999
dxfrw 0.6.3
  0
SECTION
  2
HEADER
  9
$ACADVER
  1
AC1014
  9
$DWGCODEPAGE
  3
ANSI_950
  9
$INSBASE
 10
0
 20
0
 30
0
  9
$EXTMIN
 10
0.1514195203781128
 20
-1.476991653442382
 30
0
  9
$EXTMAX
 10
2.130477905273437
 20
-0.0403907299041748
 30
0
  9
$LIMMIN
 10
0
 20
0
  9
$LIMMAX
 10
12
 20
9
  9
$ORTHOMODE
 70
    0
  9
$REGENMODE
 70
    1
  9
$FILLMODE
 70
    1
  9
$QTEXTMODE
 70
    0
  9
$MIRRTEXT
 70
    1
  9
$LTSCALE
 40
1
  9
$ATTMODE
 70
    1
  9
$TEXTSIZE
 40
0.2
  9
$TRACEWID
 40
0.05
  9
$TEXTSTYLE
  7
Standard
  9
$CLAYER
  8
LAYER_1
  9
$CELTYPE
  6
ByLayer
  9
$CECOLOR
 62
  256
  9
$CELTSCALE
 40
1
  9
$DISPSILH
 70
    0
  9
$DIMSCALE
 40
1
  9
$DIMASZ
 40
0.18
  9
$DIMEXO
 40
0.0625
  9
$DIMDLI
 40
0.38
  9
$DIMRND
 40
0
  9
$DIMDLE
 40
0
  9
$DIMEXE
 40
0.18
  9
$DIMTP
 40
0
  9
$DIMTM
 40
0
  9
$DIMTXT
 40
0.18
  9
$DIMCEN
 40
0.09
  9
$DIMTSZ
 40
0
  9
$DIMTOL
 70
    0
  9
$DIMLIM
 70
    0
  9
$DIMTIH
 70
    1
  9
$DIMTOH
 70
    1
  9
$DIMSE1
 70
    0
  9
$DIMSE2
 70
    0
  9
$DIMTAD
 70
    0
  9
$DIMZIN
 70
    0
  9
$DIMBLK
  1

  9
$DIMASO
 70
    1
  9
$DIMSHO
 70
    1
  9
$DIMPOST
  1

  9
$DIMAPOST
  1

  9
$DIMALT
 70
    0
  9
$DIMALTD
 70
    2
  9
$DIMALTF
 40
25.4
  9
$DIMLFAC
 40
1
  9
$DIMTOFL
 70
    0
  9
$DIMTVP
 40
0
  9
$DIMTIX
 70
    0
  9
$DIMSOXD
 70
    0
  9
$DIMSAH
 70
    0
  9
$DIMBLK1
  1

  9
$DIMBLK2
  1

  9
$DIMSTYLE
  2
Standard
  9
$DIMCLRD
 70
    0
  9
$DIMCLRE
 70
    0
  9
$DIMCLRT
 70
    0
  9
$DIMTFAC
 40
1
  9
$DIMGAP
 40
0.09
  9
$DIMJUST
 70
    0
  9
$DIMSD1
 70
    0
  9
$DIMSD2
 70
    0
  9
$DIMTOLJ
 70
    1
  9
$DIMTZIN
 70
    0
  9
$DIMALTZ
 70
    0
  9
$DIMALTTZ
 70
    0
  9
$DIMUPT
 70
    0
  9
$DIMDEC
 70
    4
  9
$DIMTDEC
 70
    4
  9
$DIMALTU
 70
    2
  9
$DIMALTTD
 70
    2
  9
$DIMTXSTY
  7
Standard
  9
$DIMAUNIT
 70
    0
  9
$DIMADEC
 70
    0
  9
$DIMALTRND
 40
0
  9
$DIMAZIN
 70
    0
  9
$DIMDSEP
 70
   46
  9
$DIMATFIT
 70
    3
  9
$DIMFRAC
 70
    0
  9
$DIMLDRBLK
  1

  9
$DIMUNIT
 70
    2
  9
$DIMLWD
 70
   -2
  9
$DIMLWE
 70
   -2
  9
$DIMTMOVE
 70
    0
  9
$LUNITS
 70
    2
  9
$LUPREC
 70
    4
  9
$SKETCHINC
 40
0.1
  9
$FILLETRAD
 40
0.5
  9
$AUNITS
 70
    0
  9
$AUPREC
 70
    0
  9
$MENU
  1
.
  9
$ELEVATION
 40
0
  9
$PELEVATION
 40
0
  9
$THICKNESS
 40
0
  9
$LIMCHECK
 70
    0
  9
$BLIPMODE
 70
    0
  9
$CHAMFERA
 40
0.5
  9
$CHAMFERB
 40
0.5
  9
$CHAMFERC
 40
1
  9
$CHAMFERD
 40
0
  9
$SKPOLY
 70
    0
  9
$USRTIMER
 70
    1
  9
$ANGBASE
 50
0
  9
$ANGDIR
 70
    0
  9
$PDMODE
 70
    0
  9
$PDSIZE
 40
0
  9
$PLINEWID
 40
0
  9
$SPLFRAME
 70
    0
  9
$SPLINETYPE
 70
    6
  9
$SPLINESEGS
 70
    8
  9
$HANDSEED
  5
20000
  9
$SURFTAB1
 70
    6
  9
$SURFTAB2
 70
    6
  9
$SURFTYPE
 70
    6
  9
$SURFU
 70
    6
  9
$SURFV
 70
    6
  9
$UCSBASE
  2

  9
$UCSNAME
  2

  9
$UCSORG
 10
0
 20
0
 30
0
  9
$UCSXDIR
 10
1
 20
0
 30
0
  9
$UCSYDIR
 10
0
 20
1
 30
0
  9
$UCSORTHOREF
  2

  9
$UCSORTHOVIEW
 70
    0
  9
$UCSORGTOP
 10
0
 20
0
 30
0
  9
$UCSORGBOTTOM
 10
0
 20
0
 30
0
  9
$UCSORGLEFT
 10
0
 20
0
 30
0
  9
$UCSORGRIGHT
 10
0
 20
0
 30
0
  9
$UCSORGFRONT
 10
0
 20
0
 30
0
  9
$UCSORGBACK
 10
0
 20
0
 30
0
  9
$PUCSBASE
  2

  9
$PUCSNAME
  2

  9
$PUCSORG
 10
0
 20
0
 30
0
  9
$PUCSXDIR
 10
1
 20
0
 30
0
  9
$PUCSYDIR
 10
0
 20
1
 30
0
  9
$PUCSORTHOREF
  2

  9
$PUCSORTHOVIEW
 70
    0
  9
$PUCSORGTOP
 10
0
 20
0
 30
0
  9
$PUCSORGBOTTOM
 10
0
 20
0
 30
0
  9
$PUCSORGLEFT
 10
0
 20
0
 30
0
  9
$PUCSORGRIGHT
 10
0
 20
0
 30
0
  9
$PUCSORGFRONT
 10
0
 20
0
 30
0
  9
$PUCSORGBACK
 10
0
 20
0
 30
0
  9
$USERI1
 70
    0
  9
$USERI2
 70
    0
  9
$USERI3
 70
    0
  9
$USERI4
 70
    0
  9
$USERI5
 70
    0
  9
$USERR1
 40
0
  9
$USERR2
 40
0
  9
$USERR3
 40
0
  9
$USERR4
 40
0
  9
$USERR5
 40
0
  9
$WORLDVIEW
 70
    1
  9
$SHADEDGE
 70
    3
  9
$SHADEDIF
 70
   70
  9
$TILEMODE
 70
    1
  9
$MAXACTVP
 70
   64
  9
$PINSBASE
 10
0
 20
0
 30
0
  9
$PLIMCHECK
 70
    0
  9
$PEXTMIN
 10
1e+020
 20
1e+020
 30
1e+020
  9
$PEXTMAX
 10
-1e+020
 20
-1e+020
 30
-1e+020
  9
$GRIDMODE
 70
    0
  9
$SNAPSTYLE
 70
    0
  9
$PLIMMIN
 10
0
 20
0
  9
$PLIMMAX
 10
12
 20
9
  9
$UNITMODE
 70
    0
  9
$VISRETAIN
 70
    1
  9
$PLINEGEN
 70
    0
  9
$PSLTSCALE
 70
    1
  9
$TREEDEPTH
 70
 3020
  9
$CMLSTYLE
  2
Standard
  9
$CMLJUST
 70
    0
  9
$CMLSCALE
 40
1
  9
$PROXYGRAPHICS
 70
    1
  9
$MEASUREMENT
 70
    1
  9
$CELWEIGHT
370
   -1
  9
$ENDCAPS
280
    0
  9
$JOINSTYLE
280
    0
  9
$LWDISPLAY
290
    0
  9
$HYPERLINKBASE
  1

  9
$STYLESHEET
  1

  9
$XEDIT
290
    1
  9
$CEPSNTYPE
380
    0
  9
$PSTYLEMODE
290
    1
  9
$EXTNAMES
290
    1
  9
$PSVPSCALE
 40
0
  9
$OLESTARTUP
290
    0
  0
ENDSEC
  0
SECTION
  2
CLASSES
  0
ENDSEC
  0
SECTION
  2
TABLES
  0
TABLE
  2
VPORT
  5
8
100
AcDbSymbolTable
 70
    1
  0
VPORT
  5
31
330
2
100
AcDbSymbolTableRecord
100
AcDbViewportTableRecord
  2
*ACTIVE
 70
    0
 10
0
 20
0
 11
1
 21
1
 12
1.344335241045544
 22
0.1564665719981749
 13
0
 23
0
 14
10
 24
10
 15
10
 25
10
 16
0
 26
0
 36
1
 17
0
 27
0
 37
0
 40
2.707829654172497
 41
1.870283018867924
 42
50
 43
0
 44
0
 50
0
 51
0
 71
    0
 72
  100
 73
    1
 74
    3
 75
    0
 76
    0
 77
    0
 78
    0
  0
ENDTAB
  0
TABLE
  2
LTYPE
  5
5
100
AcDbSymbolTable
 70
    4
  0
LTYPE
  5
14
100
AcDbSymbolTableRecord
100
AcDbLinetypeTableRecord
  2
ByBlock
 70
    0
  3

 72
   65
 73
    0
 40
0
  0
LTYPE
  5
15
100
AcDbSymbolTableRecord
100
AcDbLinetypeTableRecord
  2
ByLayer
 70
    0
  3

 72
   65
 73
    0
 40
0
  0
LTYPE
  5
16
100
AcDbSymbolTableRecord
100
AcDbLinetypeTableRecord
  2
Continuous
 70
    0
  3
Solid line
 72
   65
 73
    0
 40
0
  0
LTYPE
  5
32
330
5
100
AcDbSymbolTableRecord
100
AcDbLinetypeTableRecord
  2
DOT
 70
    0
  3
Dot . . . . . . . . . . . . . . . . . . . . . .
 72
   65
 73
    2
 40
6.35
 49
0
 74
    0
 49
-6.35
 74
    0
  0
LTYPE
  5
33
330
5
100
AcDbSymbolTableRecord
100
AcDbLinetypeTableRecord
  2
DOTTINY
 70
    0
  3
Dot (.15x) .....................................
 72
   65
 73
    2
 40
0.9525
 49
0
 74
    0
 49
-0.9525
 74
    0
  0
LTYPE
  5
34
330
5
100
AcDbSymbolTableRecord
100
AcDbLinetypeTableRecord
  2
DOT2
 70
    0
  3
Dot (.5x) .....................................
 72
   65
 73
    2
 40
3.175
 49
0
 74
    0
 49
-3.175
 74
    0
  0
LTYPE
  5
35
330
5
100
AcDbSymbolTableRecord
100
AcDbLinetypeTableRecord
  2
DOTX2
 70
    0
  3
Dot (2x) .  .  .  .  .  .  .  .  .  .  .  .  .
 72
   65
 73
    2
 40
12.7
 49
0
 74
    0
 49
-12.7
 74
    0
  0
LTYPE
  5
36
330
5
100
AcDbSymbolTableRecord
100
AcDbLinetypeTableRecord
  2
DASHED
 70
    0
  3
Dashed _ _ _ _ _ _ _ _ _ _ _ _ _ _ _ _ _
 72
   65
 73
    2
 40
19.05
 49
12.7
 74
    0
 49
-6.35
 74
    0
  0
LTYPE
  5
37
330
5
100
AcDbSymbolTableRecord
100
AcDbLinetypeTableRecord
  2
DASHEDTINY
 70
    0
  3
Dashed (.15x) _ _ _ _ _ _ _ _ _ _ _ _ _ _ _ _ _
 72
   65
 73
    2
 40
2.8575
 49
1.905
 74
    0
 49
-0.9525
 74
    0
  0
LTYPE
  5
38
330
5
100
AcDbSymbolTableRecord
100
AcDbLinetypeTableRecord
  2
DASHED2
 70
    0
  3
Dashed (.5x) _ _ _ _ _ _ _ _ _ _ _ _ _ _ _ _ _
 72
   65
 73
    2
 40
9.524999999999999
 49
6.35
 74
    0
 49
-3.175
 74
    0
  0
LTYPE
  5
39
330
5
100
AcDbSymbolTableRecord
100
AcDbLinetypeTableRecord
  2
DASHEDX2
 70
    0
  3
Dashed (2x) ____  ____  ____  ____  ____  ___
 72
   65
 73
    2
 40
38.09999999999999
 49
25.4
 74
    0
 49
-12.7
 74
    0
  0
LTYPE
  5
3A
330
5
100
AcDbSymbolTableRecord
100
AcDbLinetypeTableRecord
  2
DASHDOT
 70
    0
  3
Dash dot __ . __ . __ . __ . __ . __ . __ . __
 72
   65
 73
    4
 40
25.4
 49
12.7
 74
    0
 49
-6.35
 74
    0
 49
0
 74
    0
 49
-6.35
 74
    0
  0
LTYPE
  5
3B
330
5
100
AcDbSymbolTableRecord
100
AcDbLinetypeTableRecord
  2
DASHDOTTINY
 70
    0
  3
Dash dot (.15x) _._._._._._._._._._._._._._._.
 72
   65
 73
    4
 40
3.81
 49
1.905
 74
    0
 49
-0.9525
 74
    0
 49
0
 74
    0
 49
-0.9525
 74
    0
  0
LTYPE
  5
3C
330
5
100
AcDbSymbolTableRecord
100
AcDbLinetypeTableRecord
  2
DASHDOT2
 70
    0
  3
Dash dot (.5x) _._._._._._._._._._._._._._._.
 72
   65
 73
    4
 40
12.7
 49
6.35
 74
    0
 49
-3.175
 74
    0
 49
0
 74
    0
 49
-3.175
 74
    0
  0
LTYPE
  5
3D
330
5
100
AcDbSymbolTableRecord
100
AcDbLinetypeTableRecord
  2
DASHDOTX2
 70
    0
  3
Dash dot (2x) ____  .  ____  .  ____  .  ___
 72
   65
 73
    4
 40
50.8
 49
25.4
 74
    0
 49
-12.7
 74
    0
 49
0
 74
    0
 49
-12.7
 74
    0
  0
LTYPE
  5
3E
330
5
100
AcDbSymbolTableRecord
100
AcDbLinetypeTableRecord
  2
DIVIDE
 70
    0
  3
Divide ____ . . ____ . . ____ . . ____ . . ____
 72
   65
 73
    6
 40
31.75
 49
12.7
 74
    0
 49
-6.35
 74
    0
 49
0
 74
    0
 49
-6.35
 74
    0
 49
0
 74
    0
 49
-6.35
 74
    0
  0
LTYPE
  5
3F
330
5
100
AcDbSymbolTableRecord
100
AcDbLinetypeTableRecord
  2
DIVIDETINY
 70
    0
  3
Divide (.15x) __..__..__..__..__..__..__..__.._
 72
   65
 73
    6
 40
4.7625
 49
1.905
 74
    0
 49
-0.9525
 74
    0
 49
0
 74
    0
 49
-0.9525
 74
    0
 49
0
 74
    0
 49
-0.9525
 74
    0
  0
LTYPE
  5
40
330
5
100
AcDbSymbolTableRecord
100
AcDbLinetypeTableRecord
  2
DIVIDE2
 70
    0
  3
Divide (.5x) __..__..__..__..__..__..__..__.._
 72
   65
 73
    6
 40
15.875
 49
6.35
 74
    0
 49
-3.175
 74
    0
 49
0
 74
    0
 49
-3.175
 74
    0
 49
0
 74
    0
 49
-3.175
 74
    0
  0
LTYPE
  5
41
330
5
100
AcDbSymbolTableRecord
100
AcDbLinetypeTableRecord
  2
DIVIDEX2
 70
    0
  3
Divide (2x) ________  .  .  ________  .  .  _
 72
   65
 73
    6
 40
63.5
 49
25.4
 74
    0
 49
-12.7
 74
    0
 49
0
 74
    0
 49
-12.7
 74
    0
 49
0
 74
    0
 49
-12.7
 74
    0
  0
LTYPE
  5
42
330
5
100
AcDbSymbolTableRecord
100
AcDbLinetypeTableRecord
  2
BORDER
 70
    0
  3
Border __ __ . __ __ . __ __ . __ __ . __ __ .
 72
   65
 73
    6
 40
44.45
 49
12.7
 74
    0
 49
-6.35
 74
    0
 49
12.7
 74
    0
 49
-6.35
 74
    0
 49
0
 74
    0
 49
-6.35
 74
    0
  0
LTYPE
  5
43
330
5
100
AcDbSymbolTableRecord
100
AcDbLinetypeTableRecord
  2
BORDERTINY
 70
    0
  3
Border (.15x) __.__.__.__.__.__.__.__.__.__.__.
 72
   65
 73
    6
 40
6.6675
 49
1.905
 74
    0
 49
-0.9525
 74
    0
 49
1.905
 74
    0
 49
-0.9525
 74
    0
 49
0
 74
    0
 49
-0.9525
 74
    0
  0
LTYPE
  5
44
330
5
100
AcDbSymbolTableRecord
100
AcDbLinetypeTableRecord
  2
BORDER2
 70
    0
  3
Border (.5x) __.__.__.__.__.__.__.__.__.__.__.
 72
   65
 73
    6
 40
22.225
 49
6.35
 74
    0
 49
-3.175
 74
    0
 49
6.35
 74
    0
 49
-3.175
 74
    0
 49
0
 74
    0
 49
-3.175
 74
    0
  0
LTYPE
  5
45
330
5
100
AcDbSymbolTableRecord
100
AcDbLinetypeTableRecord
  2
BORDERX2
 70
    0
  3
Border (2x) ____  ____  .  ____  ____  .  ___
 72
   65
 73
    6
 40
88.89999999999999
 49
25.4
 74
    0
 49
-12.7
 74
    0
 49
25.4
 74
    0
 49
-12.7
 74
    0
 49
0
 74
    0
 49
-12.7
 74
    0
  0
LTYPE
  5
46
330
5
100
AcDbSymbolTableRecord
100
AcDbLinetypeTableRecord
  2
CENTER
 70
    0
  3
Center ____ _ ____ _ ____ _ ____ _ ____ _ ____
 72
   65
 73
    4
 40
50.8
 49
31.75
 74
    0
 49
-6.35
 74
    0
 49
6.35
 74
    0
 49
-6.35
 74
    0
  0
LTYPE
  5
47
330
5
100
AcDbSymbolTableRecord
100
AcDbLinetypeTableRecord
  2
CENTERTINY
 70
    0
  3
Center (.15x) ___ _ ___ _ ___ _ ___ _ ___ _ ___
 72
   65
 73
    4
 40
7.62
 49
4.7625
 74
    0
 49
-0.9525
 74
    0
 49
0.9525
 74
    0
 49
-0.9525
 74
    0
  0
LTYPE
  5
48
330
5
100
AcDbSymbolTableRecord
100
AcDbLinetypeTableRecord
  2
CENTER2
 70
    0
  3
Center (.5x) ___ _ ___ _ ___ _ ___ _ ___ _ ___
 72
   65
 73
    4
 40
28.575
 49
19.05
 74
    0
 49
-3.175
 74
    0
 49
3.175
 74
    0
 49
-3.175
 74
    0
  0
LTYPE
  5
49
330
5
100
AcDbSymbolTableRecord
100
AcDbLinetypeTableRecord
  2
CENTERX2
 70
    0
  3
Center (2x) ________  __  ________  __  _____
 72
   65
 73
    4
 40
101.6
 49
63.5
 74
    0
 49
-12.7
 74
    0
 49
12.7
 74
    0
 49
-12.7
 74
    0
  0
ENDTAB
  0
TABLE
  2
LAYER
  5
2
100
AcDbSymbolTable
 70
    1
  0
LAYER
  5
10
330
2
100
AcDbSymbolTableRecord
100
AcDbLayerTableRecord
  2
0
 70
    0
 62
    7
  6
CONTINUOUS
370
   -3
390
F
  0
LAYER
  5
4A
330
2
100
AcDbSymbolTableRecord
100
AcDbLayerTableRecord
  2
ASHADE
 70
    4
 62
    7
  6
CONTINUOUS
370
   -3
390
F
  0
LAYER
  5
4B
330
2
100
AcDbSymbolTableRecord
100
AcDbLayerTableRecord
  2
LAYER_1
 70
    0
 62
  255
  6
CONTINUOUS
370
   -3
390
F
  0
ENDTAB
  0
TABLE
  2
STYLE
  5
3
100
AcDbSymbolTable
 70
    3
  0
STYLE
  5
4C
330
2
100
AcDbSymbolTableRecord
100
AcDbTextStyleTableRecord
  2
Standard
 70
    0
 40
0
 41
1
 50
0
 71
    0
 42
1
  3
txt
  4

  0
ENDTAB
  0
TABLE
  2
VIEW
  5
6
100
AcDbSymbolTable
 70
    0
  0
ENDTAB
  0
TABLE
  2
UCS
  5
7
100
AcDbSymbolTable
 70
    0
  0
ENDTAB
  0
TABLE
  2
APPID
  5
9
100
AcDbSymbolTable
 70
    1
  0
APPID
  5
12
100
AcDbSymbolTableRecord
100
AcDbRegAppTableRecord
  2
ACAD
 70
    0
  0
APPID
  5
4D
100
AcDbSymbolTableRecord
100
AcDbRegAppTableRecord
  2
LibreCad
 70
    0
  0
ENDTAB
  0
TABLE
  2
DIMSTYLE
  5
A
100
AcDbSymbolTable
 70
    1
  0
DIMSTYLE
105
4E
330
A
100
AcDbSymbolTableRecord
100
AcDbDimStyleTableRecord
  2
Standard
 70
    0
 40
1
 41
0.18
 42
0.0625
 43
0.38
 44
0.18
 45
0
 46
0
 47
0
 48
0
 49
1
140
0.18
141
0.09
142
0
143
25.4
144
1
145
0
146
1
147
0.09
 71
    0
 72
    0
 73
    1
 74
    1
 75
    0
 76
    0
 77
    0
 78
    0
170
    0
171
    2
172
    0
173
    0
174
    0
175
    0
176
    0
177
    0
178
    0
270
    2
271
    4
272
    4
273
    2
274
    2
275
    0
280
    0
281
    0
282
    0
283
    1
284
    0
285
    0
286
    0
287
    3
288
    0
340
Standard
  0
ENDTAB
  0
TABLE
  2
BLOCK_RECORD
  5
1
100
AcDbSymbolTable
 70
    2
  0
BLOCK_RECORD
  5
1F
100
AcDbSymbolTableRecord
100
AcDbBlockTableRecord
  2
*Model_Space
  0
BLOCK_RECORD
  5
1E
100
AcDbSymbolTableRecord
100
AcDbBlockTableRecord
  2
*Paper_Space
  0
BLOCK_RECORD
  5
4F
100
AcDbSymbolTableRecord
100
AcDbBlockTableRecord
  2
direct
  0
BLOCK_RECORD
  5
52
100
AcDbSymbolTableRecord
100
AcDbBlockTableRecord
  2
overhead
  0
BLOCK_RECORD
  5
55
100
AcDbSymbolTableRecord
100
AcDbBlockTableRecord
  2
sh_spot
  0
BLOCK_RECORD
  5
58
100
AcDbSymbolTableRecord
100
AcDbBlockTableRecord
  2
AVE_RENDER
  0
BLOCK_RECORD
  5
5B
100
AcDbSymbolTableRecord
100
AcDbBlockTableRecord
  2
AVE_GLOBAL
  0
ENDTAB
  0
ENDSEC
  0
SECTION
  2
BLOCKS
  0
BLOCK
  5
20
100
AcDbEntity
  8
0
100
AcDbBlockBegin
  2
*Model_Space
 70
    0
 10
0
 20
0
 30
0
  3
*Model_Space
  1

  0
ENDBLK
  5
21
100
AcDbEntity
  8
0
100
AcDbBlockEnd
  0
BLOCK
  5
1C
100
AcDbEntity
  8
0
100
AcDbBlockBegin
  2
*Paper_Space
 70
    0
 10
0
 20
0
 30
0
  3
*Paper_Space
  1

  0
ENDBLK
  5
1D
100
AcDbEntity
  8
0
100
AcDbBlockEnd
  0
BLOCK
  5
50
100
AcDbEntity
  8
0
100
AcDbBlockBegin
  2
direct
 70
    0
 10
0
 20
0
  3
direct
  1

  0
ARC
  5
5E
100
AcDbEntity
  8
ASHADE
  6
CONTINUOUS
 62
    7
100
AcDbCircle
 10
0
 20
0
 40
0.3
100
AcDbArc
 50
205.6792886194569
 51
334.3207113805431
  0
ARC
  5
5F
100
AcDbEntity
  8
ASHADE
  6
CONTINUOUS
 62
    7
100
AcDbCircle
 10
0
 20
0
 40
0.3
100
AcDbArc
 50
25.67928861945685
 51
154.3207113805431
  0
LINE
  5
60
100
AcDbEntity
  8
ASHADE
  6
CONTINUOUS
 62
    7
100
AcDbLine
 10
-0.21
 20
0.2142428528562855
 11
-0.21
 21
0.5
  0
LINE
  5
61
100
AcDbEntity
  8
ASHADE
  6
CONTINUOUS
 62
    7
100
AcDbLine
 10
-0.11
 20
0.2791057147390572
 11
-0.11
 21
0.5
  0
LINE
  5
62
100
AcDbEntity
  8
ASHADE
  6
CONTINUOUS
 62
    7
100
AcDbLine
 10
0.21
 20
0.2142428528562855
 11
0.21
 21
0.5
  0
LINE
  5
63
100
AcDbEntity
  8
ASHADE
  6
CONTINUOUS
 62
    7
100
AcDbLine
 10
0
 20
0.3
 11
0
 21
0.5
  0
LINE
  5
64
100
AcDbEntity
  8
ASHADE
  6
CONTINUOUS
 62
    7
100
AcDbLine
 10
0.11
 20
0.2791057147390572
 11
0.11
 21
0.5
  0
ENDBLK
  5
51
100
AcDbEntity
  8
0
100
AcDbBlockEnd
  0
BLOCK
  5
53
100
AcDbEntity
  8
0
100
AcDbBlockBegin
  2
overhead
 70
    0
 10
0
 20
0
  3
overhead
  1

  0
ARC
  5
65
100
AcDbEntity
  8
ASHADE
  6
CONTINUOUS
 62
    7
100
AcDbCircle
 10
0
 20
0
 40
0.3
100
AcDbArc
 50
205.6792886194569
 51
334.3207113805431
  0
LINE
  5
66
100
AcDbEntity
  8
ASHADE
  6
CONTINUOUS
 62
    7
100
AcDbLine
 10
-0.2041413561583015
 20
-0.2198324514393848
 11
-0.2721884748777353
 21
-0.2931099352525131
  0
LINE
  5
67
100
AcDbEntity
  8
ASHADE
  6
CONTINUOUS
 62
    7
100
AcDbLine
 10
-0.1096591641591904
 20
-0.2792398032442862
 11
-0.1279356915190555
 21
-0.3257797704516673
  0
LINE
  5
68
100
AcDbEntity
  8
ASHADE
  6
CONTINUOUS
 62
    7
100
AcDbLine
 10
0
 20
-0.2999999999999999
 11
0
 21
-0.4
  0
LINE
  5
69
100
AcDbEntity
  8
ASHADE
  6
CONTINUOUS
 62
    7
100
AcDbLine
 10
0.1096591641591904
 20
-0.2792398032442862
 11
0.1279356915190555
 21
-0.3257797704516673
  0
LINE
  5
6A
100
AcDbEntity
  8
ASHADE
  6
CONTINUOUS
 62
    7
100
AcDbLine
 10
0.2041413561583015
 20
-0.2198324514393848
 11
0.2721884748777353
 21
-0.2931099352525131
  0
ARC
  5
6B
100
AcDbEntity
  8
ASHADE
  6
CONTINUOUS
 62
    7
100
AcDbCircle
 10
0
 20
0
 40
0.3
100
AcDbArc
 50
25.67928861945685
 51
154.3207113805431
  0
LINE
  5
6C
100
AcDbEntity
  8
ASHADE
  6
CONTINUOUS
 62
    7
100
AcDbLine
 10
-0.2703701166919155
 20
0.13
 11
-0.3154318028072347
 21
0.1516666666666666
  0
LINE
  5
6D
100
AcDbEntity
  8
ASHADE
  6
CONTINUOUS
 62
    7
100
AcDbLine
 10
-0.2703701166919155
 20
-0.13
 11
-0.3154318028072347
 21
-0.1516666666666666
  0
LINE
  5
6E
100
AcDbEntity
  8
ASHADE
  6
CONTINUOUS
 62
    7
100
AcDbLine
 10
-0.2041413561583015
 20
0.2198324514393849
 11
-0.2721884748777353
 21
0.2931099352525131
  0
LINE
  5
6F
100
AcDbEntity
  8
ASHADE
  6
CONTINUOUS
 62
    7
100
AcDbLine
 10
-0.1096591641591904
 20
0.2792398032442862
 11
-0.1279356915190555
 21
0.3257797704516674
  0
LINE
  5
70
100
AcDbEntity
  8
ASHADE
  6
CONTINUOUS
 62
    7
100
AcDbLine
 10
0.2703701166919155
 20
-0.13
 11
0.3154318028072347
 21
-0.1516666666666666
  0
LINE
  5
71
100
AcDbEntity
  8
ASHADE
  6
CONTINUOUS
 62
    7
100
AcDbLine
 10
0.2703701166919155
 20
0.13
 11
0.3154318028072347
 21
0.1516666666666666
  0
LINE
  5
72
100
AcDbEntity
  8
ASHADE
  6
CONTINUOUS
 62
    7
100
AcDbLine
 10
0
 20
0.3
 11
0
 21
0.4
  0
LINE
  5
73
100
AcDbEntity
  8
ASHADE
  6
CONTINUOUS
 62
    7
100
AcDbLine
 10
0.1096591641591904
 20
0.2792398032442862
 11
0.1279356915190555
 21
0.3257797704516674
  0
LINE
  5
74
100
AcDbEntity
  8
ASHADE
  6
CONTINUOUS
 62
    7
100
AcDbLine
 10
0.2041413561583015
 20
0.2198324514393849
 11
0.2721884748777353
 21
0.2931099352525131
  0
ENDBLK
  5
54
100
AcDbEntity
  8
0
100
AcDbBlockEnd
  0
BLOCK
  5
56
100
AcDbEntity
  8
0
100
AcDbBlockBegin
  2
sh_spot
 70
    0
 10
0
 20
0
  3
sh_spot
  1

  0
LINE
  5
75
100
AcDbEntity
  8
ASHADE
  6
CONTINUOUS
 62
    7
100
AcDbLine
 10
0.25
 20
0.26
 11
-0.25
 21
0.26
  0
LINE
  5
76
100
AcDbEntity
  8
ASHADE
  6
CONTINUOUS
 62
    7
100
AcDbLine
 10
-0.25
 20
-0.3399999999999999
 11
0.25
 21
-0.3399999999999999
  0
LINE
  5
77
100
AcDbEntity
  8
ASHADE
  6
CONTINUOUS
 62
    7
100
AcDbLine
 10
-0.25
 20
-0.13
 11
-0.25
 21
-0.3399999999999999
  0
LINE
  5
78
100
AcDbEntity
  8
ASHADE
  6
CONTINUOUS
 62
    7
100
AcDbLine
 10
-0.25
 20
-0.18
 11
-0.29
 21
-0.18
  0
LINE
  5
79
100
AcDbEntity
  8
ASHADE
  6
CONTINUOUS
 62
    7
100
AcDbLine
 10
-0.29
 20
-0.22
 11
-0.25
 21
-0.22
  0
LINE
  5
7A
100
AcDbEntity
  8
ASHADE
  6
CONTINUOUS
 62
    7
100
AcDbLine
 10
-0.29
 20
-0.18
 11
-0.29
 21
-0.22
  0
LINE
  5
7B
100
AcDbEntity
  8
ASHADE
  6
CONTINUOUS
 62
    7
100
AcDbLine
 10
-0.1045454545454545
 20
0.26
 11
-0.15
 21
0.46
  0
LINE
  5
7C
100
AcDbEntity
  8
ASHADE
  6
CONTINUOUS
 62
    7
100
AcDbLine
 10
-0.21
 20
0.26
 11
-0.301304347826087
 21
0.46
  0
LINE
  5
7D
100
AcDbEntity
  8
ASHADE
  6
CONTINUOUS
 62
    7
100
AcDbLine
 10
-0.25
 20
0.26
 11
-0.25
 21
0.13
  0
LINE
  5
7E
100
AcDbEntity
  8
ASHADE
  6
CONTINUOUS
 62
    7
100
AcDbLine
 10
-0.25
 20
0.22
 11
-0.29
 21
0.22
  0
LINE
  5
7F
100
AcDbEntity
  8
ASHADE
  6
CONTINUOUS
 62
    7
100
AcDbLine
 10
-0.29
 20
0.1799999999999999
 11
-0.25
 21
0.1799999999999999
  0
LINE
  5
80
100
AcDbEntity
  8
ASHADE
  6
CONTINUOUS
 62
    7
100
AcDbLine
 10
-0.29
 20
0.22
 11
-0.29
 21
0.1799999999999999
  0
LINE
  5
81
100
AcDbEntity
  8
ASHADE
  6
CONTINUOUS
 62
    7
100
AcDbLine
 10
0.25
 20
-0.3399999999999999
 11
0.25
 21
-0.13
  0
LINE
  5
82
100
AcDbEntity
  8
ASHADE
  6
CONTINUOUS
 62
    7
100
AcDbLine
 10
0.25
 20
-0.18
 11
0.29
 21
-0.18
  0
LINE
  5
83
100
AcDbEntity
  8
ASHADE
  6
CONTINUOUS
 62
    7
100
AcDbLine
 10
0.29
 20
-0.22
 11
0.25
 21
-0.22
  0
LINE
  5
84
100
AcDbEntity
  8
ASHADE
  6
CONTINUOUS
 62
    7
100
AcDbLine
 10
0.29
 20
-0.18
 11
0.29
 21
-0.22
  0
LINE
  5
85
100
AcDbEntity
  8
ASHADE
  6
CONTINUOUS
 62
    7
100
AcDbLine
 10
0.21
 20
0.26
 11
0.301304347826087
 21
0.46
  0
LINE
  5
86
100
AcDbEntity
  8
ASHADE
  6
CONTINUOUS
 62
    7
100
AcDbLine
 10
0.1045454545454545
 20
0.26
 11
0.15
 21
0.46
  0
LINE
  5
87
100
AcDbEntity
  8
ASHADE
  6
CONTINUOUS
 62
    7
100
AcDbLine
 10
0
 20
0.26
 11
0
 21
0.46
  0
LINE
  5
88
100
AcDbEntity
  8
ASHADE
  6
CONTINUOUS
 62
    7
100
AcDbLine
 10
0.25
 20
0.13
 11
0.25
 21
0.26
  0
LINE
  5
89
100
AcDbEntity
  8
ASHADE
  6
CONTINUOUS
 62
    7
100
AcDbLine
 10
0.25
 20
0.22
 11
0.29
 21
0.22
  0
LINE
  5
8A
100
AcDbEntity
  8
ASHADE
  6
CONTINUOUS
 62
    7
100
AcDbLine
 10
0.29
 20
0.1799999999999999
 11
0.25
 21
0.1799999999999999
  0
LINE
  5
8B
100
AcDbEntity
  8
ASHADE
  6
CONTINUOUS
 62
    7
100
AcDbLine
 10
0.29
 20
0.22
 11
0.29
 21
0.1799999999999999
  0
ENDBLK
  5
57
100
AcDbEntity
  8
0
100
AcDbBlockEnd
  0
BLOCK
  5
59
100
AcDbEntity
  8
0
100
AcDbBlockBegin
  2
AVE_RENDER
 70
    0
 10
0
 20
0
  3
AVE_RENDER
  1

  0
ENDBLK
  5
5A
100
AcDbEntity
  8
0
100
AcDbBlockEnd
  0
BLOCK
  5
5C
100
AcDbEntity
  8
0
100
AcDbBlockBegin
  2
AVE_GLOBAL
 70
    0
 10
0
 20
0
  3
AVE_GLOBAL
  1

  0
ENDBLK
  5
5D
100
AcDbEntity
  8
0
100
AcDbBlockEnd
  0
ENDSEC
  0
SECTION
  2
ENTITIES
  0
INSERT
  5
8C
100
AcDbEntity
  8
ASHADE
  6
ByLayer
 62
    1
100
AcDbBlockReference
  2
AVE_RENDER
 10
0
 20
0
 30
0
 41
1
 42
1
 43
0
 50
0
 70
    1
 71
    1
 44
0
 45
0
  0
INSERT
  5
8D
100
AcDbEntity
  8
ASHADE
  6
ByLayer
 62
    3
100
AcDbBlockReference
  2
AVE_RENDER
 10
0
 20
0
 30
0
 41
1
 42
1
 43
0
 50
0
 70
    1
 71
    1
 44
0
 45
0
  0
INSERT
  5
8E
100
AcDbEntity
  8
ASHADE
  6
ByLayer
 62
    4
100
AcDbBlockReference
  2
AVE_RENDER
 10
0
 20
0
 30
0
 41
1
 42
1
 43
0
 50
0
 70
    1
 71
    1
 44
0
 45
0
  0
INSERT
  5
8F
100
AcDbEntity
  8
ASHADE
  6
ByLayer
 62
    5
100
AcDbBlockReference
  2
AVE_RENDER
 10
0
 20
0
 30
0
 41
1
 42
1
 43
0
 50
0
 70
    1
 71
    1
 44
0
 45
0
  0
INSERT
  5
90
100
AcDbEntity
  8
ASHADE
  6
ByLayer
 62
    6
100
AcDbBlockReference
  2
AVE_RENDER
 10
0
 20
0
 30
0
 41
1
 42
1
 43
0
 50
0
 70
    1
 71
    1
 44
0
 45
0
  0
INSERT
  5
91
100
AcDbEntity
  8
ASHADE
  6
ByLayer
 62
    7
100
AcDbBlockReference
  2
AVE_RENDER
 10
0
 20
0
 30
0
 41
1
 42
1
 43
0
 50
0
 70
    1
 71
    1
 44
0
 45
0
  0
INSERT
  5
92
100
AcDbEntity
  8
ASHADE
  6
ByLayer
 62
    8
100
AcDbBlockReference
  2
AVE_RENDER
 10
0
 20
0
 30
0
 41
1
 42
1
 43
0
 50
0
 70
    1
 71
    1
 44
0
 45
0
  0
INSERT
  5
93
100
AcDbEntity
  8
ASHADE
  6
ByLayer
 62
    9
100
AcDbBlockReference
  2
AVE_RENDER
 10
0
 20
0
 30
0
 41
1
 42
1
 43
0
 50
0
 70
    1
 71
    1
 44
0
 45
0
  0
INSERT
  5
94
100
AcDbEntity
  8
ASHADE
  6
ByLayer
 62
    1
100
AcDbBlockReference
  2
AVE_GLOBAL
 10
0
 20
0
 30
0
 41
1
 42
1
 43
0
 50
0
 70
    1
 71
    1
 44
0
 45
0
  0
LWPOLYLINE
  5
95
100
AcDbEntity
  8
LAYER_1
  6
ByLayer
 62
   12
100
AcDbPolyline
 90
  521
 70
    1
 43
0
 10
1.984375
 20
-0.707672119140625
 10
1.98297905921936
 20
-0.7101070284843445
 10
1.981569528579711
 20
-0.7125825881958008
 10
1.980146646499633
 20
-0.7150982022285463
 10
1.978710532188415
 20
-0.7176532149314881
 10
1.977261424064636
 20
-0.720246970653534
 10
1.975799560546875
 20
-0.7228788733482361
 10
1.974325299263
 20
-0.7255482077598572
 10
1.972838640213012
 20
-0.7282543778419495
 10
1.97133982181549
 20
-0.7309967279434204
 10
1.969829201698303
 20
-0.7337746024131775
 10
1.968307018280029
 20
-0.7365874052047729
 10
1.966773271560668
 20
-0.7394343614578247
 10
1.96522831916809
 20
-0.7423149347305298
 10
1.963672280311584
 20
-0.7452284693717957
 10
1.962105512619018
 20
-0.7481743097305298
 10
1.960528135299682
 20
-0.7511518001556396
 10
1.958940386772155
 20
-0.7541602849960328
 10
1.957342505455017
 20
-0.7571991086006165
 10
1.955734729766845
 20
-0.7602676749229432
 10
1.954117178916931
 20
-0.7633652687072754
 10
1.952490091323852
 20
-0.7664913535118103
 10
1.950853824615478
 20
-0.7696451544761658
 10
1.949208378791809
 20
-0.7728261351585389
 10
1.947554111480712
 20
-0.7760335803031922
 10
1.945891261100769
 20
-0.7792668342590332
 10
1.944219946861267
 20
-0.7825253009796143
 10
1.942540407180786
 20
-0.7858083248138428
 10
1.940852880477905
 20
-0.7891152501106263
 10
1.939157485961914
 20
-0.7924454212188721
 10
1.93745470046997
 20
-0.7957981824874878
 10
1.935744524002075
 20
-0.7991729378700257
 10
1.934027194976806
 20
-0.8025689721107482
 10
1.930571913719177
 20
-0.8094224333763121
 10
1.927090883255004
 20
-0.816353440284729
 10
1.923585534095764
 20
-0.823356807231903
 10
1.920057773590087
 20
-0.8304272890090942
 10
1.916509389877319
 20
-0.8375598192214965
 10
1.912941813468933
 20
-0.8447492122650146
 10
1.909357070922851
 20
-0.8519902825355529
 10
1.905756711959838
 20
-0.8592778444290161
 10
1.902142643928527
 20
-0.8666067719459533
 10
1.898516416549682
 20
-0.8739718198776245
 10
1.894879698753356
 20
-0.8813679218292236
 10
1.891234517097473
 20
-0.8887898325920104
 10
1.883924961090087
 20
-0.9036905169487
 10
1.876601696014404
 20
-0.9186325669288635
 10
1.869278311729431
 20
-0.933574616909027
 10
1.861968755722045
 20
-0.9484753012657166
 10
1.858323574066162
 20
-0.9558972120285034
 10
1.854686975479125
 20
-0.9632933139801025
 10
1.85106074810028
 20
-0.9706583619117736
 10
1.84744656085968
 20
-0.9779872894287109
 10
1.843846201896667
 20
-0.985274851322174
 10
1.840261459350585
 20
-0.9925158619880676
 10
1.836694002151489
 20
-0.9997052550315856
 10
1.833145499229431
 20
-1.006837844848632
 10
1.829617738723754
 20
-1.013908267021179
 10
1.826112389564514
 20
-1.020911693572998
 10
1.822631359100341
 20
-1.02784264087677
 10
1.819176197052001
 20
-1.034696102142333
 10
1.817458868026733
 20
-1.038092255592346
 10
1.815748572349548
 20
-1.041466951370239
 10
1.814045786857604
 20
-1.044819712638854
 10
1.812350511550903
 20
-1.048149943351745
 10
1.810662984848022
 20
-1.051456809043884
 10
1.808983445167541
 20
-1.054739832878112
 10
1.807312130928039
 20
-1.057998299598693
 10
1.805649161338806
 20
-1.061231613159179
 10
1.803994894027709
 20
-1.064438939094543
 10
1.80234956741333
 20
-1.067619919776916
 10
1.800713181495666
 20
-1.070773720741271
 10
1.799086093902587
 20
-1.073899865150451
 10
1.797468543052673
 20
-1.076997399330139
 10
1.795860767364501
 20
-1.080065965652465
 10
1.794262886047363
 20
-1.083104848861694
 10
1.792675137519836
 20
-1.086113333702087
 10
1.7910977602005
 20
-1.089090824127197
 10
1.789530992507934
 20
-1.092036604881286
 10
1.787975072860717
 20
-1.094950199127197
 10
1.78643000125885
 20
-1.097830772399902
 10
1.784896373748779
 20
-1.100677728652954
 10
1.783374071121215
 20
-1.103490471839904
 10
1.781863451004028
 20
-1.106268405914306
 10
1.780364632606506
 20
-1.109010696411132
 10
1.778877973556518
 20
-1.111716866493225
 10
1.777403712272644
 20
-1.114386200904846
 10
1.775941848754882
 20
-1.117018103599548
 10
1.774492859840393
 20
-1.119611859321594
 10
1.773056745529174
 20
-1.122166872024536
 10
1.771633744239807
 20
-1.124682545661926
 10
1.770224213600158
 20
-1.127158164978027
 10
1.768828272819519
 20
-1.129593014717102
 10
1.766434431076049
 20
-1.13046908378601
 10
1.763514161109924
 20
-1.131537795066833
 10
1.76039445400238
 20
-1.132679462432861
 10
1.757613778114318
 20
-1.133697152137756
 10
1.754466772079467
 20
-1.134848833084106
 10
1.750963687896728
 20
-1.136130809783935
 10
1.748435735702514
 20
-1.137055993080139
 10
1.745757102966308
 20
-1.138036251068115
 10
1.742931127548217
 20
-1.139070510864257
 10
1.739960670471191
 20
-1.140157580375671
 10
1.736848950386047
 20
-1.14129638671875
 10
1.733598947525024
 20
-1.142485737800598
 10
1.730213642120361
 20
-1.143724560737609
 10
1.726696372032165
 20
-1.145011782646179
 10
1.723049998283386
 20
-1.14634621143341
 10
1.719277739524841
 20
-1.147726774215698
 10
1.715382575988769
 20
-1.149152278900146
 10
1.711367487907409
 20
-1.150621652603149
 10
1.707235693931579
 20
-1.152133703231811
 10
1.702990293502807
 20
-1.153687477111816
 10
1.698634266853332
 20
-1.155281543731689
 10
1.694170594215393
 20
-1.156915068626403
 10
1.689602613449096
 20
-1.158586859703063
 10
1.684933185577392
 20
-1.160295724868774
 10
1.680165410041809
 20
-1.162040591239929
 10
1.677745580673217
 20
-1.162926077842712
 10
1.675302386283874
 20
-1.163820266723632
 10
1.672836184501647
 20
-1.164722800254821
 10
1.670347213745117
 20
-1.165633678436279
 10
1.667836070060729
 20
-1.166552662849426
 10
1.665302991867065
 20
-1.167479634284973
 10
1.662748456001281
 20
-1.168414592742919
 10
1.660172700881958
 20
-1.169357180595397
 10
1.654959440231323
 20
-1.171265006065368
 10
1.649666428565979
 20
-1.173202157020568
 10
1.644296407699584
 20
-1.175167322158813
 10
1.638852834701538
 20
-1.177159547805786
 10
1.633338451385498
 20
-1.179177641868591
 10
1.627756595611572
 20
-1.181220412254333
 10
1.622110128402709
 20
-1.183286786079406
 10
1.616402268409729
 20
-1.185375690460205
 10
1.610635995864868
 20
-1.187485933303833
 10
1.604814410209655
 20
-1.189616441726684
 10
1.59894061088562
 20
-1.191766023635864
 10
1.593017697334289
 20
-1.193933606147766
 10
1.587048649787902
 20
-1.196118116378784
 10
1.581036567687988
 20
-1.198318243026733
 10
1.574984669685363
 20
-1.200533032417297
 10
1.568895816802978
 20
-1.20276141166687
 10
1.56277310848236
 20
-1.205002069473266
 10
1.556619763374328
 20
-1.20725393295288
 10
1.55043876171112
 20
-1.209516048431396
 10
1.544233202934265
 20
-1.211787104606628
 10
1.538006067276
 20
-1.214065909385681
 10
1.525499582290649
 20
-1.218642950057983
 10
1.512943983078002
 20
-1.223237752914428
 10
1.500363826751708
 20
-1.227841734886169
 10
1.487783670425415
 20
-1.23244559764862
 10
1.475228071212768
 20
-1.237040519714355
 10
1.462721586227416
 20
-1.241617441177368
 10
1.456494569778442
 20
-1.24389636516571
 10
1.450288891792297
 20
-1.246167421340942
 10
1.444107890129089
 20
-1.248429417610168
 10
1.437954545021057
 20
-1.250681400299072
 10
1.431831955909729
 20
-1.252922058105468
 10
1.425743103027343
 20
-1.255150318145751
 10
1.419691085815429
 20
-1.257365226745605
 10
1.413679003715515
 20
-1.259565353393554
 10
1.407709956169128
 20
-1.261749863624572
 10
1.401787042617797
 20
-1.263917446136474
 10
1.395913243293762
 20
-1.266067028045654
 10
1.390091657638549
 20
-1.268197536468505
 10
1.384325504302978
 20
-1.270307779312133
 10
1.378617525100708
 20
-1.272396683692932
 10
1.372971177101135
 20
-1.274463057518005
 10
1.367389202117919
 20
-1.276505827903747
 10
1.361874938011169
 20
-1.278523921966552
 10
1.356431245803833
 20
-1.280516147613525
 10
1.351061344146728
 20
-1.28248131275177
 10
1.345768213272094
 20
-1.28441834449768
 10
1.340554952621459
 20
-1.28632628917694
 10
1.337979316711425
 20
-1.287268877029418
 10
1.335424661636352
 20
-1.288203716278076
 10
1.332891583442687
 20
-1.289130806922912
 10
1.3303804397583
 20
-1.290049791336059
 10
1.32789146900177
 20
-1.290960669517517
 10
1.325425267219543
 20
-1.291863203048706
 10
1.3229820728302
 20
-1.292757391929626
 10
1.320562243461608
 20
-1.293642878532409
 10
1.318166255950927
 20
-1.294519782066345
 10
1.31344735622406
 20
-1.296246767044067
 10
1.308828234672546
 20
-1.297937154769897
 10
1.304311990737915
 20
-1.299589991569519
 10
1.299901843070983
 20
-1.301203966140747
 10
1.295600652694702
 20
-1.302778005599975
 10
1.291411638259887
 20
-1.304311037063598
 10
1.287337899208068
 20
-1.30580186843872
 10
1.283382415771484
 20
-1.307249426841735
 10
1.279548287391662
 20
-1.308652639389038
 10
1.275838494300842
 20
-1.310010194778442
 10
1.27225637435913
 20
-1.311321258544921
 10
1.268804669380187
 20
-1.312584400177001
 10
1.265486717224121
 20
-1.313798666000366
 10
1.262305378913879
 20
-1.314962863922119
 10
1.25926399230957
 20
-1.316075921058654
 10
1.256365299224853
 20
-1.317136764526367
 10
1.253612637519836
 20
-1.31814420223236
 10
1.251008987426757
 20
-1.31909704208374
 10
1.248557329177856
 20
-1.319994211196899
 10
1.245171904563903
 20
-1.3212331533432
 10
1.242145776748657
 20
-1.322340607643127
 10
1.239489555358886
 20
-1.323312759399414
 10
1.236541152000427
 20
-1.324391722679138
 10
1.233843564987182
 20
-1.325378894805908
 10
1.231194257736206
 20
-1.324503540992736
 10
1.232971787452697
 20
-1.320833086967468
 10
1.23542582988739
 20
-1.318716883659362
 10
1.237850666046142
 20
-1.316568136215209
 10
1.240246176719665
 20
-1.314387321472167
 10
1.24261200428009
 20
-1.312174797058105
 10
1.244947671890258
 20
-1.309930920600891
 10
1.247252941131591
 20
-1.307655930519104
 10
1.24952745437622
 20
-1.305350065231323
 10
1.251770853996276
 20
-1.303013920783996
 10
1.253982901573181
 20
-1.300647616386413
 10
1.256163239479064
 20
-1.298251509666442
 10
1.25831139087677
 20
-1.295826077461242
 10
1.260427236557006
 20
-1.293371438980102
 10
1.262510418891906
 20
-1.29088807106018
 10
1.264560461044311
 20
-1.288376212120056
 10
1.266577124595642
 20
-1.285836338996887
 10
1.268560051918029
 20
-1.283268690109252
 10
1.270509004592895
 20
-1.280673503875732
 10
1.272423505783081
 20
-1.278051257133483
 10
1.274303317070007
 20
-1.275402188301086
 10
1.276148080825805
 20
-1.272726774215698
 10
1.277957439422607
 20
-1.270025134086608
 10
1.279731035232543
 20
-1.267297744750976
 10
1.281468749046325
 20
-1.26454484462738
 10
1.283169984817504
 20
-1.261766910552978
 10
1.284834504127502
 20
-1.25896406173706
 10
1.286462068557739
 20
-1.256136894226074
 10
1.288052320480346
 20
-1.253285527229309
 10
1.289604783058166
 20
-1.250410318374633
 10
1.291119217872619
 20
-1.247511625289916
 10
1.292595386505126
 20
-1.244589805603027
 10
1.29403281211853
 20
-1.241645216941833
 10
1.29543113708496
 20
-1.238678216934204
 10
1.296790242195129
 20
-1.235688924789428
 10
1.298109650611877
 20
-1.232677817344665
 10
1.299389004707336
 20
-1.229645371437072
 10
1.300628066062927
 20
-1.226591706275939
 10
1.301826357841491
 20
-1.223517179489135
 10
1.30298376083374
 20
-1.220422148704528
 10
1.304099798202514
 20
-1.217306971549987
 10
1.305174112319946
 20
-1.214172005653381
 10
1.306206583976745
 20
-1.211017489433288
 10
1.307196617126464
 20
-1.207843780517578
 10
1.308143973350524
 20
-1.204651236534118
 10
1.309048414230346
 20
-1.201440215110778
 10
1.309909462928771
 20
-1.198211073875427
 10
1.310726881027221
 20
-1.194964051246643
 10
1.311500310897827
 20
-1.191699504852294
 10
1.312229514122009
 20
-1.188417792320251
 10
1.312914013862609
 20
-1.185119152069091
 10
1.31355345249176
 20
-1.181804060935974
 10
1.31414771080017
 20
-1.178472876548767
 10
1.314696311950683
 20
-1.17512571811676
 10
1.315198898315429
 20
-1.171763062477111
 10
1.31565523147583
 20
-1.1683851480484
 10
1.316064953804016
 20
-1.164992451667785
 10
1.316427707672119
 20
-1.161585211753845
 10
1.31674313545227
 20
-1.158163666725158
 10
1.317010998725891
 20
-1.154728412628173
 10
1.317230820655822
 20
-1.15127944946289
 10
1.317402362823486
 20
-1.147817373275756
 10
1.317525386810302
 20
-1.144342422485351
 10
1.317599415779113
 20
-1.140854954719543
 10
1.31762409210205
 20
-1.137355208396911
 10
1.317597866058349
 20
-1.133739948272705
 10
1.317519187927246
 20
-1.13013756275177
 10
1.317388534545898
 20
-1.126548290252685
 10
1.317206263542175
 20
-1.12297248840332
 10
1.316972732543945
 20
-1.119410753250122
 10
1.316688179969787
 20
-1.11586320400238
 10
1.31635308265686
 20
-1.112330317497253
 10
1.315967798233032
 20
-1.108812570571899
 10
1.315532684326171
 20
-1.105310201644897
 10
1.315047979354858
 20
-1.101823687553405
 10
1.31451416015625
 20
-1.098353385925292
 10
1.313931465148925
 20
-1.094899535179138
 10
1.313300371170043
 20
-1.091462731361389
 10
1.312621235847473
 20
-1.088043332099914
 10
1.311894297599792
 20
-1.084641575813293
 10
1.31112003326416
 20
-1.081257939338684
 10
1.310298681259155
 20
-1.077892780303955
 10
1.309430718421936
 20
-1.074546456336975
 10
1.308516383171081
 20
-1.071219325065612
 10
1.30755615234375
 20
-1.067911863327026
 10
1.30655026435852
 20
-1.064624309539794
 10
1.305499196052551
 20
-1.061357259750366
 10
1.304403185844421
 20
-1.058110833168029
 10
1.303262591361999
 20
-1.054885625839233
 10
1.302077889442443
 20
-1.051681876182556
 10
1.300849318504333
 20
-1.048500061035156
 10
1.299577355384826
 20
-1.045340538024902
 10
1.298262119293212
 20
-1.042203664779663
 10
1.296904206275939
 20
-1.039089679718017
 10
1.295503973960876
 20
-1.035999298095703
 10
1.294061541557312
 20
-1.032932519912719
 10
1.292577505111694
 20
-1.029890060424804
 10
1.291052103042602
 20
-1.026872038841247
 10
1.289485692977905
 20
-1.023879051208496
 10
1.287878632545471
 20
-1.020911216735839
 10
1.286231398582458
 20
-1.017969250679016
 10
1.284544110298156
 20
-1.015053153038024
 10
1.282817363739013
 20
-1.012163639068603
 10
1.281051278114318
 20
-1.009300947189331
 10
1.27924644947052
 20
-1.006465435028076
 10
1.277403116226196
 20
-1.003657460212707
 10
1.275521636009216
 20
-1.000877499580383
 10
1.273602247238159
 20
-0.9981258511543273
 10
1.271645545959472
 20
-0.9954029321670532
 10
1.269651770591735
 20
-0.9927091002464294
 10
1.267621159553527
 20
-0.9900447726249694
 10
1.265554308891296
 20
-0.9874103069305419
 10
1.263451337814331
 20
-0.9848060607910156
 10
1.261312842369079
 20
-0.9822324514389038
 10
1.259138941764831
 20
-0.9796898365020751
 10
1.256930112838745
 20
-0.9771786332130432
 10
1.254686713218688
 20
-0.9746991395950317
 10
1.252408981323242
 20
-0.9722517728805541
 10
1.250097513198852
 20
-0.969836950302124
 10
1.247752428054809
 20
-0.9674550294876098
 10
1.245374083518981
 20
-0.9651063680648803
 10
1.242963075637817
 20
-0.9627913832664489
 10
1.240519523620605
 20
-0.9605104327201843
 10
1.238043904304504
 20
-0.958263874053955
 10
1.235536456108093
 20
-0.9560521245002745
 10
1.232997775077819
 20
-0.9538754820823669
 10
1.230427861213684
 20
-0.9517344832420349
 10
1.227827429771423
 20
-0.9496293663978576
 10
1.225196480751037
 20
-0.9475606083869934
 10
1.223344802856445
 20
-0.9453707933425903
 10
1.225790500640869
 20
-0.9438437223434448
 10
1.228206634521484
 20
-0.942732036113739
 10
1.230654597282409
 20
-0.9416056871414183
 10
1.233542442321777
 20
-0.9402769804000854
 10
1.235987067222595
 20
-0.9391521215438842
 10
1.238662838935852
 20
-0.9379209876060485
 10
1.241562724113464
 20
-0.9365867376327514
 10
1.244679689407348
 20
-0.935152530670166
 10
1.24800682067871
 20
-0.9336217045783995
 10
1.250338196754455
 20
-0.9325490593910217
 10
1.252757668495178
 20
-0.9314357638359069
 10
1.255263328552246
 20
-0.9302828907966613
 10
1.257853031158447
 20
-0.9290913343429565
 10
1.261890530586242
 20
-0.9272335767745971
 10
1.264681220054626
 20
-0.9259495735168457
 10
1.26754879951477
 20
-0.9246301651000975
 10
1.270491003990173
 20
-0.9232764244079589
 10
1.273505806922912
 20
-0.921889305114746
 10
1.276591181755065
 20
-0.9204696416854858
 10
1.27974510192871
 20
-0.9190185070037841
 10
1.282965302467346
 20
-0.9175368547439575
 10
1.286249876022338
 20
-0.9160255193710327
 10
1.289596796035766
 20
-0.9144856333732604
 10
1.293003797531127
 20
-0.9129179716110229
 10
1.29646897315979
 20
-0.911323606967926
 10
1.299990057945251
 20
-0.9097034931182861
 10
1.303565144538879
 20
-0.9080585241317749
 10
1.307192206382751
 20
-0.9063897132873535
 10
1.310868978500366
 20
-0.9046979546546936
 10
1.31459355354309
 20
-0.9029842615127563
 10
1.318363666534423
 20
-0.9012495279312133
 10
1.322177410125732
 20
-0.8994947671890258
 10
1.326032757759094
 20
-0.8977209329605103
 10
1.329927444458007
 20
-0.8959289193153381
 10
1.33385944366455
 20
-0.8941197395324707
 10
1.3378267288208
 20
-0.8922943472862243
 10
1.341827273368835
 20
-0.8904536366462708
 10
1.345858931541442
 20
-0.888598620891571
 10
1.3499196767807
 20
-0.8867302536964417
 10
1.354007244110107
 20
-0.8848494291305541
 10
1.358119845390319
 20
-0.8829572200775146
 10
1.362255334854125
 20
-0.8810544610023499
 10
1.370586276054382
 20
-0.8772212266921997
 10
1.378983616828918
 20
-0.8733574748039244
 10
1.387430906295776
 20
-0.8694708347320556
 10
1.40440821647644
 20
-0.861659288406372
 10
1.421385645866394
 20
-0.8538477420806884
 10
1.429832816123962
 20
-0.8499611020088195
 10
1.438230276107788
 20
-0.8460973501205444
 10
1.446561217308044
 20
-0.8422641158103942
 10
1.450696587562561
 20
-0.8403614163398742
 10
1.454809188842773
 20
-0.8384691476821899
 10
1.458896875381469
 20
-0.8365883231163024
 10
1.462957620620727
 20
-0.834719955921173
 10
1.466989159584045
 20
-0.8328649401664733
 10
1.47098970413208
 20
-0.8310242295265197
 10
1.47495698928833
 20
-0.8291988372802734
 10
1.478889107704162
 20
-0.827389657497406
 10
1.482783794403076
 20
-0.8255976438522338
 10
1.486639022827148
 20
-0.8238238096237182
 10
1.490452766418457
 20
-0.8220690488815307
 10
1.494222998619079
 20
-0.8203343152999877
 10
1.497947454452514
 20
-0.8186206221580505
 10
1.501624345779418
 20
-0.8169288635253906
 10
1.505251288414001
 20
-0.8152600526809692
 10
1.508826375007629
 20
-0.813615083694458
 10
1.51234757900238
 20
-0.8119949698448181
 10
1.515812754631042
 20
-0.8104006052017211
 10
1.519219756126403
 20
-0.8088330030441284
 10
1.522566556930541
 20
-0.8072930574417114
 10
1.525851130485534
 20
-0.8057817816734313
 10
1.529071450233459
 20
-0.8043000698089598
 10
1.532225370407104
 20
-0.8028489351272583
 10
1.535310745239257
 20
-0.8014293313026428
 10
1.538325548171997
 20
-0.800042152404785
 10
1.541267752647399
 20
-0.7986884117126465
 10
1.544135212898254
 20
-0.7973690032958985
 10
1.546925902366638
 20
-0.796085000038147
 10
1.549637794494628
 20
-0.7948372364044189
 10
1.552268743515014
 20
-0.7936266660690308
 10
1.554816603660583
 20
-0.7924543619155884
 10
1.557279467582702
 20
-0.7913211584091187
 10
1.55965518951416
 20
-0.7902280688285828
 10
1.563050746917724
 20
-0.7886657118797303
 10
1.566238522529602
 20
-0.7871989607810975
 10
1.569211602210998
 20
-0.7858310341835022
 10
1.571962833404541
 20
-0.7845651507377625
 10
1.574485301971435
 20
-0.783404529094696
 10
1.577480554580688
 20
-0.7820263504981995
 10
1.580040097236633
 20
-0.7808487415313721
 10
1.582601308822631
 20
-0.779670238494873
 10
1.584937930107116
 20
-0.7785951495170594
 10
1.587513804435729
 20
-0.7779131531715393
 10
1.590213418006896
 20
-0.777435302734375
 10
1.5933438539505
 20
-0.7768812775611879
 10
1.596399188041687
 20
-0.7763404846191407
 10
1.598999977111816
 20
-0.7758801579475403
 10
1.601857423782348
 20
-0.7753744721412659
 10
1.604963660240173
 20
-0.7748246788978577
 10
1.608311295509338
 20
-0.7742321491241455
 10
1.611892342567443
 20
-0.7735983729362488
 10
1.614405632019042
 20
-0.7731534838676453
 10
1.617017030715942
 20
-0.7726913094520569
 10
1.61972427368164
 20
-0.7722121477127076
 10
1.622524976730346
 20
-0.7717164754867554
 10
1.625416874885559
 20
-0.7712045907974244
 10
1.628397822380065
 20
-0.7706770300865174
 10
1.631465435028076
 20
-0.7701340913772583
 10
1.634617447853088
 20
-0.7695761919021606
 10
1.637851595878601
 20
-0.7690038084983826
 10
1.641165494918823
 20
-0.7684172391891479
 10
1.644556999206542
 20
-0.767816960811615
 10
1.648023843765258
 20
-0.7672033905982972
 10
1.65156352519989
 20
-0.766576886177063
 10
1.655174016952514
 20
-0.7659378647804261
 10
1.658852934837341
 20
-0.7652867436408997
 10
1.662598013877868
 20
-0.7646238803863527
 10
1.666406989097595
 20
-0.7639496922492981
 10
1.670277476310729
 20
-0.7632646560668946
 10
1.674207329750061
 20
-0.7625691294670105
 10
1.678194165229797
 20
-0.7618634700775146
 10
1.682235836982727
 20
-0.7611481547355652
 10
1.686329841613769
 20
-0.7604235410690308
 10
1.690474152565002
 20
-0.7596900463104248
 10
1.694666266441345
 20
-0.7589480876922609
 10
1.698904037475585
 20
-0.7581980228424073
 10
1.703185081481933
 20
-0.7574403285980225
 10
1.707507252693176
 20
-0.7566753029823304
 10
1.711868286132812
 20
-0.7559034824371338
 10
1.716265678405761
 20
-0.7551251649856568
 10
1.720697283744812
 20
-0.7543408274650574
 10
1.725160956382751
 20
-0.7535507678985596
 10
1.729654192924499
 20
-0.7527555227279663
 10
1.734174847602844
 20
-0.7519553899765015
 10
1.738720536231994
 20
-0.7511508464813234
 10
1.747878074645996
 20
-0.749530017375946
 10
1.757108569145202
 20
-0.7478963136672974
 10
1.766393899917602
 20
-0.7462528944015503
 10
1.785055756568908
 20
-0.7429499030113221
 10
1.803717613220214
 20
-0.7396469116210938
 10
1.813002943992614
 20
-0.7380034923553467
 10
1.822233438491821
 20
-0.736369788646698
 10
1.831391096115112
 20
-0.7347489595413208
 10
1.835936784744262
 20
-0.7339444160461426
 10
1.840457320213317
 20
-0.7331442832946778
 10
1.844950556755065
 20
-0.7323490381240845
 10
1.849414229393005
 20
-0.7315590381622314
 10
1.853845834732055
 20
-0.7307746410369873
 10
1.858243346214294
 20
-0.7299963831901551
 10
1.862604260444641
 20
-0.7292245030403138
 10
1.866926431655883
 20
-0.7284595370292664
 10
1.871207475662231
 20
-0.7277017831802369
 10
1.875445246696472
 20
-0.7269517779350281
 10
1.879637479782104
 20
-0.7262097597122193
 10
1.883781671524047
 20
-0.7254762649536133
 10
1.887875795364379
 20
-0.7247516512870789
 10
1.89191734790802
 20
-0.7240363359451294
 10
1.895904183387756
 20
-0.7233306765556335
 10
1.899834036827087
 20
-0.7226351499557496
 10
1.903704524040222
 20
-0.7219501137733459
 10
1.907513499259948
 20
-0.7212759852409363
 10
1.911258578300476
 20
-0.7206131219863892
 10
1.914937496185302
 20
-0.7199620008468628
 10
1.918547987937927
 20
-0.7193229794502259
 10
1.922087788581848
 20
-0.718696415424347
 10
1.925554513931274
 20
-0.7180828452110291
 10
1.928946018218994
 20
-0.7174825668334961
 10
1.932260036468505
 20
-0.7168960571289062
 10
1.935494065284729
 20
-0.7163236141204834
 10
1.938646078109741
 20
-0.7157657742500306
 10
1.941713690757751
 20
-0.7152228355407715
 10
1.944694638252258
 20
-0.7146952152252198
 10
1.94758653640747
 20
-0.7141833901405334
 10
1.950387358665466
 20
-0.7136876583099366
 10
1.953094482421875
 20
-0.7132084965705872
 10
1.955705881118774
 20
-0.7127463221549988
 10
1.958219170570373
 20
-0.7123014926910402
 10
1.961800336837768
 20
-0.7116676568984986
 10
1.965147852897644
 20
-0.7110751867294312
 10
1.968254208564758
 20
-0.7105253934860229
 10
1.971111536026
 20
-0.7100196480751038
 10
1.97371232509613
 20
-0.7095593214035035
 10
1.976767659187316
 20
-0.7090185880661011
 10
1.979334712028503
 20
-0.7085642218589783
  0
LWPOLYLINE
  5
96
100
AcDbEntity
  8
LAYER_1
  6
ByLayer
 62
   12
100
AcDbPolyline
 90
  158
 70
    1
 43
0
 10
1.062919616699218
 20
-0.8960542678833007
 10
1.058095812797546
 20
-0.8963110446929931
 10
1.053298711776733
 20
-0.8966667652130126
 10
1.048529267311096
 20
-0.8971203565597534
 10
1.043788313865661
 20
-0.8976706266403198
 10
1.039076566696166
 20
-0.8983164429664611
 10
1.034395217895507
 20
-0.8990567326545715
 10
1.029744982719421
 20
-0.8998903036117553
 10
1.025126695632934
 20
-0.9008160233497619
 10
1.020541310310363
 20
-0.9018327593803405
 10
1.015989661216735
 20
-0.9029394388198853
 10
1.011472821235656
 20
-0.9041348099708557
 10
1.006991386413574
 20
-0.9054178595542907
 10
1.002546429634094
 20
-0.9067873954772949
 10
0.9981388449668884
 20
-0.9082422852516174
 10
0.9937694072723388
 20
-0.9097813963890075
 10
0.9894390702247619
 20
-0.9114035964012145
 10
0.9851487278938293
 20
-0.9131077527999877
 10
0.980899155139923
 20
-0.9148927330970764
 10
0.9766913652420043
 20
-0.9167573451995848
 10
0.9725262522697448
 20
-0.9187005758285522
 10
0.9684045910835266
 20
-0.9207211732864379
 10
0.9643272757530212
 20
-0.922818124294281
 10
0.9602952599525451
 20
-0.924990177154541
 10
0.95630943775177
 20
-0.9272362589836119
 10
0.9523706436157225
 20
-0.9295551776885986
 10
0.9501760601997375
 20
-0.930891215801239
 10
0.947605013847351
 20
-0.9274677038192749
 10
0.9441471099853515
 20
-0.9215971231460571
 10
0.9406841397285461
 20
-0.9157084822654724
 10
0.937216579914093
 20
-0.9098025560379028
 10
0.9337447881698608
 20
-0.90388023853302
 10
0.930269181728363
 20
-0.8979423046112061
 10
0.9267900586128234
 20
-0.8919895887374877
 10
0.9233079552650451
 20
-0.886022925376892
 10
0.919823169708252
 20
-0.880043089389801
 10
0.9163361191749572
 20
-0.8740509152412415
 10
0.9128472208976744
 20
-0.8680472373962402
 10
0.9093568325042723
 20
-0.8620328903198242
 10
0.9058653116226196
 20
-0.8560087084770202
 10
0.902373194694519
 20
-0.8499754667282104
 10
0.8953883647918701
 20
-0.8378850817680358
 10
0.8884056210517883
 20
-0.8257683515548706
 10
0.8814279437065125
 20
-0.8136318922042846
 10
0.8744586110115051
 20
-0.8014822006225585
 10
0.8675006628036499
 20
-0.7893258333206177
 10
0.8605573773384094
 20
-0.777169406414032
 10
0.853631854057312
 20
-0.7650194168090821
 10
0.8467272520065307
 20
-0.7528824806213379
 10
0.8432837724685668
 20
-0.7468209266662598
 10
0.8398467302322387
 20
-0.7407650947570801
 10
0.8364164233207702
 20
-0.7347158193588257
 10
0.8329933881759644
 20
-0.7286738753318787
 10
0.8295779228210449
 20
-0.7226401567459106
 10
0.8261704444885253
 20
-0.716615378856659
 10
0.8227713704109191
 20
-0.7106004357337952
 10
0.8193810582160949
 20
-0.7045961022377015
 10
0.8159998655319213
 20
-0.6986032724380494
 10
0.8126283288002014
 20
-0.6926227211952209
 10
0.809266686439514
 20
-0.6866552233695984
 10
0.8059154152870178
 20
-0.6807016730308533
 10
0.8025748729705811
 20
-0.6747629046440125
 10
0.7992455363273621
 20
-0.6688396334648133
 10
0.7959277033805848
 20
-0.6629327535629272
 10
0.7926217913627625
 20
-0.6570430994033813
 10
0.7893282175064087
 20
-0.6511714458465577
 10
0.7860473394393921
 20
-0.6453186273574829
 10
0.7827795743942261
 20
-0.6394854187965393
 10
0.7795253396034241
 20
-0.6336727738380433
 10
0.7762849926948548
 20
-0.6278813481330872
 10
0.7746701836585999
 20
-0.6249939203262329
 10
0.7768630385398865
 20
-0.6229124069213868
 10
0.7795817852020264
 20
-0.6213306784629822
 10
0.7822235226631165
 20
-0.6198402047157288
 10
0.7847915291786194
 20
-0.6184370517730713
 10
0.7872890233993531
 20
-0.6171173453330994
 10
0.7897192835807801
 20
-0.615877389907837
 10
0.7920855283737183
 20
-0.614713191986084
 10
0.7943910360336304
 20
-0.613620936870575
 10
0.7977424263954163
 20
-0.6121091246604921
 10
0.8009755015373229
 20
-0.6107375025749207
 10
0.8041010499000549
 20
-0.6094931960105896
 10
0.8071301579475402
 20
-0.6083632111549379
 10
0.8100737333297729
 20
-0.6073344945907593
 10
0.8129427433013916
 20
-0.6063940525054932
 10
0.8157481551170349
 20
-0.605529010295868
 10
0.8194087147712708
 20
-0.6044702529907227
 10
0.823001742362976
 20
-0.6034916043281556
 10
0.8265532255172729
 20
-0.6025621891021729
 10
0.8300890922546386
 20
-0.6016512513160706
 10
0.8336353302001953
 20
-0.6007279753684998
 10
0.8372179865837097
 20
-0.5997616052627563
 10
0.840863049030304
 20
-0.5987213850021363
 10
0.8436534404754638
 20
-0.5978741645812989
 10
0.8465044498443604
 20
-0.5969551205635071
 10
0.8494271636009216
 20
-0.5959512591362
 10
0.8524324297904968
 20
-0.5948495268821717
 10
0.855531334877014
 20
-0.5936369299888611
 10
0.8587347269058228
 20
-0.5923005342483521
 10
0.8620536327362061
 20
-0.5908274054527283
 10
0.8654990196228027
 20
-0.5892044305801392
 10
0.8678716421127319
 20
-0.5880328416824341
 10
0.8703085780143737
 20
-0.5867850184440613
 10
0.8728130459785461
 20
-0.5854572057723999
 10
0.8753883838653564
 20
-0.5840454697608948
 10
0.8780378103256224
 20
-0.582546055316925
 10
0.8807645440101624
 20
-0.5809549689292908
 10
0.8829507231712341
 20
-0.5796457529067994
 10
0.8854215741157531
 20
-0.5841765403747559
 10
0.8871501684188842
 20
-0.5874243378639222
 10
0.8888801336288452
 20
-0.590662956237793
 10
0.8906114697456359
 20
-0.593892514705658
 10
0.892344057559967
 20
-0.5971131324768068
 10
0.8940779566764832
 20
-0.6003251075744629
 10
0.8958131074905396
 20
-0.6035285592079163
 10
0.8975495100021362
 20
-0.6067236661911011
 10
0.9010259509086608
 20
-0.6130896210670472
 10
0.904507040977478
 20
-0.6194244623184204
 10
0.9079926013946533
 20
-0.6257296204566956
 10
0.9114824533462524
 20
-0.6320065855979921
 10
0.914976418018341
 20
-0.6382567882537842
 10
0.9184743165969848
 20
-0.6444817781448365
 10
0.9219759106636047
 20
-0.6506829857826233
 10
0.9254810214042662
 20
-0.6568617820739746
 10
0.9289894700050354
 20
-0.6630197763442994
 10
0.9325010776519775
 20
-0.6691583991050721
 10
0.9360157251358032
 20
-0.6752790212631226
 10
0.9395330548286437
 20
-0.6813832521438599
 10
0.9430530071258544
 20
-0.6874724626541138
 10
0.9465753436088562
 20
-0.6935480833053589
 10
0.9500999450683593
 20
-0.6996117234230042
 10
0.9536265134811401
 20
-0.7056647539138794
 10
0.9571549296379089
 20
-0.7117086052894593
 10
0.9642164707183837
 20
-0.7237748503684998
 10
0.9783532023429869
 20
-0.7478623390197754
 10
0.9854253530502319
 20
-0.7599070072174073
 10
0.9924980401992797
 20
-0.7719679474830629
 10
0.9960340857505798
 20
-0.7780082225799561
 10
0.9995697140693665
 20
-0.7840569615364075
 10
1.00310468673706
 20
-0.7901155948638916
 10
1.006638884544372
 20
-0.7961856722831726
 10
1.010172009468078
 20
-0.8022685647010803
 10
1.013703942298889
 20
-0.8083658814430236
 10
1.017234563827514
 20
-0.8144789338111877
 10
1.020763516426086
 20
-0.8206092715263366
 10
1.024290800094604
 20
-0.826758325099945
 10
1.0278160572052
 20
-0.832927644252777
 10
1.031339168548583
 20
-0.8391185998916625
 10
1.034859895706176
 20
-0.8453326821327209
 10
1.038378238677978
 20
-0.8515713810920715
 10
1.04189383983612
 20
-0.8578361272811889
 10
1.045406460762023
 20
-0.8641284108161926
 10
1.048915982246398
 20
-0.8704497218132019
 10
1.052422285079956
 20
-0.8768014907836914
 10
1.055925130844116
 20
-0.8831852078437805
 10
1.057675242424011
 20
-0.8863894939422607
 10
1.0594242811203
 20
-0.8896023035049438
 10
1.061172485351562
 20
-0.892823815345764
  0
LWPOLYLINE
  5
97
100
AcDbEntity
  8
LAYER_1
  6
ByLayer
 62
   12
100
AcDbPolyline
 90
  529
 70
    1
 43
0
 10
0.9888371229171752
 20
-1.363133907318115
 10
0.9655748605728149
 20
-1.367560267448425
 10
0.9422590732574462
 20
-1.371992707252502
 10
0.9188941717147827
 20
-1.376430630683898
 10
0.8954848647117614
 20
-1.380873441696166
 10
0.8720355629920959
 20
-1.385320782661437
 10
0.8485508561134338
 20
-1.389772057533264
 10
0.825035274028778
 20
-1.394226789474487
 10
0.8014933466911315
 20
-1.398684501647949
 10
0.7543486952781678
 20
-1.407606601715087
 10
0.7071532607078553
 20
-1.416534423828125
 10
0.6599432826042176
 20
-1.425464034080505
 10
0.6127551794052124
 20
-1.434391140937805
 10
0.5656252503395081
 20
-1.443311810493469
 10
0.5420934557914734
 20
-1.447768449783325
 10
0.5185897946357727
 20
-1.452221989631652
 10
0.4951188564300537
 20
-1.456671953201293
 10
0.4716851711273194
 20
-1.4611177444458
 10
0.4482932090759278
 20
-1.465558767318725
 10
0.4249476790428162
 20
-1.469994783401489
 10
0.4016529321670533
 20
-1.474425077438354
 10
0.3900260925292969
 20
-1.476637959480285
 10
0.3874160051345825
 20
-1.476991653442382
 10
0.3849772214889526
 20
-1.476151466369628
 10
0.3824684023857117
 20
-1.475214481353759
 10
0.3800272941589355
 20
-1.474263191223144
 10
0.3772192001342773
 20
-1.473132729530334
 10
0.3740614652633667
 20
-1.471823334693908
 10
0.3714741468429565
 20
-1.47072410583496
 10
0.3687071800231934
 20
-1.469524383544921
 10
0.3657680153846741
 20
-1.46822440624237
 10
0.3626639246940613
 20
-1.466824173927307
 10
0.3582811951637268
 20
-1.464801430702209
 10
0.3536356687545776
 20
-1.462600946426391
 10
0.3512197136878967
 20
-1.461434125900268
 10
0.3487446308135986
 20
-1.460222959518432
 10
0.3462125062942505
 20
-1.458967447280883
 10
0.3436254858970642
 20
-1.457667589187622
 10
0.3409857749938965
 20
-1.456323504447937
 10
0.338295578956604
 20
-1.454935073852539
 10
0.3355571031570435
 20
-1.453502416610717
 10
0.3327723741531372
 20
-1.452025651931762
 10
0.3299436569213867
 20
-1.450504660606384
 10
0.3270730972290039
 20
-1.448939561843872
 10
0.3241629004478455
 20
-1.447330355644226
 10
0.3212151527404785
 20
-1.445677042007446
 10
0.3182321786880493
 20
-1.443979620933532
 10
0.3152159452438354
 20
-1.442238211631774
 10
0.3121688365936279
 20
-1.440452814102172
 10
0.3090928792953491
 20
-1.438623428344726
 10
0.3059902191162109
 20
-1.436750054359436
 10
0.3028631210327148
 20
-1.43483281135559
 10
0.2997137308120727
 20
-1.432871580123901
 10
0.2965442538261413
 20
-1.430866599082946
 10
0.2933567762374878
 20
-1.428817749023437
 10
0.2901535034179687
 20
-1.426725029945373
 10
0.2869366407394409
 20
-1.424588561058044
 10
0.2837083339691162
 20
-1.42240834236145
 10
0.2804707288742065
 20
-1.42018437385559
 10
0.2772259712219238
 20
-1.417916774749755
 10
0.2739763259887695
 20
-1.415605425834655
 10
0.2707239389419556
 20
-1.41325044631958
 10
0.2674709558486938
 20
-1.410851836204528
 10
0.2642195224761963
 20
-1.408409714698791
 10
0.2609717845916748
 20
-1.405923962593078
 10
0.2577300667762756
 20
-1.403394699096679
 10
0.2544963359832764
 20
-1.400821924209594
 10
0.2512729167938232
 20
-1.398205637931823
 10
0.2480619549751282
 20
-1.395545840263366
 10
0.2448655366897583
 20
-1.392842769622802
 10
0.2416858673095703
 20
-1.390096187591552
 10
0.2385252118110657
 20
-1.387306332588195
 10
0.2353855967521667
 20
-1.384473085403442
 10
0.232269287109375
 20
-1.381596446037292
 10
0.2291784286499023
 20
-1.378676652908325
 10
0.2261151671409607
 20
-1.375713467597961
 10
0.2230817079544067
 20
-1.37270712852478
 10
0.2200802564620972
 20
-1.369657516479492
 10
0.2171128988265991
 20
-1.366564869880676
 10
0.2141817808151245
 20
-1.363428950309753
 10
0.2112892270088196
 20
-1.360249996185302
 10
0.2084372639656067
 20
-1.357027888298034
 10
0.2056281566619873
 20
-1.353762626647949
 10
0.2028639912605286
 20
-1.350454449653625
 10
0.2001470327377319
 20
-1.347103238105773
 10
0.1974793076515198
 20
-1.343708992004394
 10
0.1948631405830383
 20
-1.340271830558776
 10
0.1923006176948547
 20
-1.33679175376892
 10
0.1897939443588257
 20
-1.333268761634826
 10
0.1873452663421631
 20
-1.329702973365783
 10
0.1849567890167236
 20
-1.326094269752502
 10
0.1826306581497192
 20
-1.322442650794982
 10
0.1803690195083618
 20
-1.318748354911804
 10
0.1781740188598633
 20
-1.315011262893676
 10
0.1760479211807251
 20
-1.31123149394989
 10
0.1739928722381592
 20
-1.307408928871154
 10
0.1720110177993774
 20
-1.303543806076049
 10
0.1701045036315918
 20
-1.299635887145996
 10
0.1682755947113037
 20
-1.295685410499572
 10
0.1665263175964355
 20
-1.291692376136779
 10
0.1648589372634888
 20
-1.287656664848327
 10
0.1632756590843201
 20
-1.283578515052795
 10
0.1617785692214966
 20
-1.279457807540893
 10
0.160369873046875
 20
-1.275294542312622
 10
0.1590517163276672
 20
-1.27108895778656
 10
0.15782630443573
 20
-1.266840815544128
 10
0.1566957831382751
 20
-1.262550354003906
 10
0.1556623578071594
 20
-1.258217453956604
 10
0.1547281742095947
 20
-1.253842234611511
 10
0.153895378112793
 20
-1.249424695968627
 10
0.1531661748886108
 20
-1.244964838027954
 10
0.152542769908905
 20
-1.240462779998779
 10
0.1520272493362427
 20
-1.235918402671813
 10
0.1517127752304077
 20
-1.232482433319091
 10
0.1515092253684998
 20
-1.229231476783752
 10
0.1514195203781128
 20
-1.225226998329162
 10
0.1514653563499451
 20
-1.222047209739685
 10
0.1516166925430298
 20
-1.218707203865051
 10
0.1518810987472534
 20
-1.215199470520019
 10
0.1522663831710815
 20
-1.211516141891479
 10
0.1525940895080566
 20
-1.208959102630615
 10
0.152981162071228
 20
-1.206318259239196
 10
0.1534298062324524
 20
-1.203591227531433
 10
0.153942346572876
 20
-1.200775742530822
 10
0.154521107673645
 20
-1.197869539260864
 10
0.1551682353019714
 20
-1.194870233535766
 10
0.1558860540390015
 20
-1.191775560379028
 10
0.1566768288612366
 20
-1.188583135604858
 10
0.157542884349823
 20
-1.185290813446044
 10
0.1584863662719727
 20
-1.181896090507507
 10
0.1595096588134766
 20
-1.178396701812744
 10
0.1606149673461914
 20
-1.174790501594543
 10
0.1618045568466186
 20
-1.171074867248535
 10
0.1630807518959045
 20
-1.167247772216796
 10
0.1644457578659058
 20
-1.163306832313537
 10
0.1659018397331238
 20
-1.159249663352966
 10
0.1674513220787048
 20
-1.155074000358581
 10
0.1690964698791504
 20
-1.150777578353881
 10
0.1708394885063171
 20
-1.146358013153076
 10
0.1726826429367065
 20
-1.141813039779663
 10
0.1746283173561096
 20
-1.137140274047851
 10
0.1756402254104614
 20
-1.134755253791809
 10
0.1766786575317383
 20
-1.132337570190429
 10
0.1777437925338745
 20
-1.129886627197265
 10
0.1788359880447388
 20
-1.127402424812316
 10
0.1799554824829102
 20
-1.124884486198425
 10
0.1811025738716125
 20
-1.122332572937011
 10
0.1822775602340698
 20
-1.119746446609497
 10
0.1834806203842163
 20
-1.117125749588012
 10
0.1847122311592102
 20
-1.114470243453979
 10
0.185972511768341
 20
-1.111779689788818
 10
0.1872618198394775
 20
-1.10905373096466
 10
0.1885804533958435
 20
-1.106292009353637
 10
0.1899286508560181
 20
-1.103494405746459
 10
0.1913067102432251
 20
-1.100660443305969
 10
0.1927148699760437
 20
-1.097790002822875
 10
0.1941534876823425
 20
-1.094882607460021
 10
0.1956228613853454
 20
-1.091938138008117
 10
0.1971231698989868
 20
-1.088956236839294
 10
0.1986547708511352
 20
-1.085936665534973
 10
0.2002179622650146
 20
-1.082879066467285
 10
0.2018129825592041
 20
-1.079783201217651
 10
0.2034401893615723
 20
-1.076648712158203
 10
0.2050997614860535
 20
-1.07347548007965
 10
0.2067919969558716
 20
-1.070262908935546
 10
0.2085172533988953
 20
-1.067010998725891
 10
0.2102757692337036
 20
-1.063719391822814
 10
0.2120678424835205
 20
-1.060387730598449
 10
0.2138937711715698
 20
-1.057015657424926
 10
0.2157537937164307
 20
-1.053603172302246
 10
0.2176481485366821
 20
-1.050149679183959
 10
0.2195772528648376
 20
-1.046655058860778
 10
0.2215413451194763
 20
-1.043118834495544
 10
0.2235406637191772
 20
-1.039541006088256
 10
0.2255755066871643
 20
-1.035921096801757
 10
0.2276461124420166
 20
-1.032258868217468
 10
0.2297528982162476
 20
-1.028553962707519
 10
0.2318960428237915
 20
-1.024806261062622
 10
0.2340758442878723
 20
-1.021015286445617
 10
0.2362926006317139
 20
-1.017180800437927
 10
0.23854660987854
 20
-1.013302564620971
 10
0.2408381104469299
 20
-1.009380221366882
 10
0.2426851987838745
 20
-1.006239295005798
 10
0.2444487810134888
 20
-1.0032719373703
 10
0.246249794960022
 20
-1.000273466110229
 10
0.2480888366699219
 20
-0.9972445964813232
 10
0.2499663233757019
 20
-0.9941860437393188
 10
0.251882791519165
 20
-0.991098403930664
 10
0.2538387775421143
 20
-0.9879823327064514
 10
0.2558348178863525
 20
-0.9848385453224182
 10
0.2578713893890381
 20
-0.9816676378250122
 10
0.2599490284919739
 20
-0.9784703850746154
 10
0.2620681524276733
 20
-0.975247323513031
 10
0.264229416847229
 20
-0.9719992280006408
 10
0.2664332389831543
 20
-0.9687266945838928
 10
0.268680214881897
 20
-0.9654304385185241
 10
0.2709707021713257
 20
-0.9621110558509826
 10
0.273305356502533
 20
-0.9587692022323608
 10
0.275684654712677
 20
-0.9554056525230407
 10
0.278109073638916
 20
-0.9520209431648254
 10
0.2805792093276977
 20
-0.9486158490180969
 10
0.2830954790115356
 20
-0.9451909065246582
 10
0.2856584191322327
 20
-0.9417469501495361
 10
0.2882685661315918
 20
-0.9382844567298889
 10
0.290926456451416
 20
-0.9348042607307434
 10
0.2936325073242187
 20
-0.9313068985939025
 10
0.2963873147964477
 20
-0.9277930855751036
 10
0.299191415309906
 20
-0.9242634177207946
 10
0.3020452260971069
 20
-0.9207187294960021
 10
0.3049493432044983
 20
-0.9171594977378845
 10
0.3079042434692383
 20
-0.9135864973068237
 10
0.3109104037284851
 20
-0.9100003242492675
 10
0.3139684200286865
 20
-0.9064017534255981
 10
0.317078709602356
 20
-0.9027913212776184
 10
0.3202419281005859
 20
-0.8991697430610656
 10
0.3234584331512451
 20
-0.8955376744270324
 10
0.3267287611961365
 20
-0.8918957710266113
 10
0.3300535082817078
 20
-0.8882447481155396
 10
0.3334331512451172
 20
-0.8845852017402648
 10
0.3368681669235229
 20
-0.8809178471565245
 10
0.340359091758728
 20
-0.8772433400154113
 10
0.3439064025878906
 20
-0.8735622763633728
 10
0.3475106954574585
 20
-0.869875431060791
 10
0.3511724472045898
 20
-0.8661834001541137
 10
0.3548921942710876
 20
-0.8624868392944335
 10
0.3586703538894653
 20
-0.8587864637374877
 10
0.3625075221061706
 20
-0.8550828695297241
 10
0.3664041757583618
 20
-0.8513767719268798
 10
0.3703608512878418
 20
-0.8476688265800476
 10
0.3743780851364136
 20
-0.843959629535675
 10
0.3784562945365906
 20
-0.8402499556541442
 10
0.3825960755348205
 20
-0.836540400981903
 10
0.3867979049682617
 20
-0.8328316807746887
 10
0.3910623788833618
 20
-0.8291243910789489
 10
0.3953898549079895
 20
-0.8254192471504211
 10
0.3997809886932373
 20
-0.8217169046401978
 10
0.4042361974716187
 20
-0.8180179595947265
 10
0.4087560176849366
 20
-0.8143231868743896
 10
0.4133409857749939
 20
-0.8106331229209899
 10
0.4179916381835938
 20
-0.8069486021995544
 10
0.4227083921432496
 20
-0.8032701015472412
 10
0.4274919033050537
 20
-0.7995983958244324
 10
0.432342529296875
 20
-0.7959341406822205
 10
0.4372608661651612
 20
-0.792277991771698
 10
0.4422473907470704
 20
-0.7886306047439576
 10
0.4473026990890503
 20
-0.7849926352500916
 10
0.4524272680282593
 20
-0.7813647389411927
 10
0.4576215147972107
 20
-0.777747631072998
 10
0.4628860354423523
 20
-0.7741419076919556
 10
0.4682213664054871
 20
-0.7705482840538025
 10
0.4736279249191285
 20
-0.7669673562049866
 10
0.4791063666343689
 20
-0.7633998990058899
 10
0.4846570491790772
 20
-0.7598465085029602
 10
0.4902806282043457
 20
-0.7563078403472902
 10
0.4959774613380433
 20
-0.752784550189972
 10
0.5017482042312622
 20
-0.7492773532867432
 10
0.5075932741165162
 20
-0.7457868456840516
 10
0.5135132670402527
 20
-0.7423137426376343
 10
0.5195086002349854
 20
-0.7388587594032288
 10
0.5255798101425171
 20
-0.7354224324226381
 10
0.5317274928092957
 20
-0.7320054769515992
 10
0.5379520654678345
 20
-0.7286085486412049
 10
0.5442541241645813
 20
-0.7252323627471924
 10
0.5506340861320496
 20
-0.7218775749206543
 10
0.5570925474166871
 20
-0.7185447812080384
 10
0.5603513121604921
 20
-0.716886878013611
 10
0.5636299252510071
 20
-0.7152346968650818
 10
0.5669284462928772
 20
-0.7135883569717408
 10
0.5702468156814576
 20
-0.7119479775428772
 10
0.5735852718353271
 20
-0.710313618183136
 10
0.5769437551498413
 20
-0.7086852788925171
 10
0.5803223848342896
 20
-0.7070631980895996
 10
0.5837211608886719
 20
-0.7054473161697388
 10
0.5871402025222779
 20
-0.7038377523422242
 10
0.590579628944397
 20
-0.7022346258163453
 10
0.5940393805503846
 20
-0.7006380558013916
 10
0.5975195765495301
 20
-0.6990480422973633
 10
0.601020336151123
 20
-0.6974646449089051
 10
0.6045415997505188
 20
-0.6958880424499512
 10
0.6080835461616517
 20
-0.6943182945251465
 10
0.6116462349891663
 20
-0.6927554607391359
 10
0.615229606628418
 20
-0.6911996006965638
 10
0.618833899497986
 20
-0.6896508932113647
 10
0.6224589943885804
 20
-0.6881092786788942
 10
0.6261051297187806
 20
-0.686574935913086
 10
0.6297722458839417
 20
-0.6850479245185852
 10
0.633460521697998
 20
-0.6835283637046814
 10
0.637169897556305
 20
-0.6820162534713746
 10
0.6409004926681519
 20
-0.6805117726325989
 10
0.6446523666381836
 20
-0.6790149211883545
 10
0.648425579071045
 20
-0.6775258779525757
 10
0.6522201895713807
 20
-0.6760445833206177
 10
0.6560363173484803
 20
-0.6745712757110596
 10
0.6598739624023438
 20
-0.6731058955192566
 10
0.663733184337616
 20
-0.671648681163788
 10
0.6676141023635865
 20
-0.6701995730400085
 10
0.6715167164802552
 20
-0.6687586903572083
 10
0.6754412055015564
 20
-0.6673261523246766
 10
0.6793874502182007
 20
-0.6659020781517029
 10
0.6833556890487671
 20
-0.6644864678382874
 10
0.687345862388611
 20
-0.6630794405937195
 10
0.6913581490516663
 20
-0.6616810560226442
 10
0.6953924894332886
 20
-0.6602914333343506
 10
0.6994490623474121
 20
-0.6589105725288392
 10
0.7015486359596254
 20
-0.6607609987258912
 10
0.7031459212303162
 20
-0.6634016633033754
 10
0.7048511505126954
 20
-0.6662209630012513
 10
0.7063681483268738
 20
-0.6687288880348206
 10
0.7080810070037842
 20
-0.6715607047080994
 10
0.709982454776764
 20
-0.6747043728828431
 10
0.7113513350486756
 20
-0.676967442035675
 10
0.7127985954284668
 20
-0.6793601512908936
 10
0.7143220901489258
 20
-0.6818789839744568
 10
0.7159197330474854
 20
-0.6845203638076783
 10
0.7175893783569336
 20
-0.6872806549072266
 10
0.7193287014961243
 20
-0.6901562809944153
 10
0.7211357355117798
 20
-0.6931437849998475
 10
0.7230082154273987
 20
-0.6962394714355469
 10
0.7249439954757692
 20
-0.699439823627472
 10
0.7269408702850342
 20
-0.7027412652969361
 10
0.7289968132972718
 20
-0.7061402201652527
 10
0.7311094999313354
 20
-0.7096331119537354
 10
0.733276903629303
 20
-0.7132164239883423
 10
0.7354967594146729
 20
-0.7168864607810975
 10
0.737766981124878
 20
-0.7206397652626038
 10
0.7400854229927063
 20
-0.7244727015495301
 10
0.7424498200416565
 20
-0.7283817529678345
 10
0.7460780143737793
 20
-0.7343801856040955
 10
0.7485480904579163
 20
-0.7384638190269471
 10
0.7510565519332886
 20
-0.7426109910011292
 10
0.7536013126373291
 20
-0.7468182444572449
 10
0.756180226802826
 20
-0.7510818839073182
 10
0.7587911486625672
 20
-0.7553983926773072
 10
0.761431872844696
 20
-0.7597641944885254
 10
0.764100193977356
 20
-0.7641757130622864
 10
0.7667940855026246
 20
-0.7686294317245485
 10
0.7695112824440004
 20
-0.7731216549873352
 10
0.7722496390342714
 20
-0.77764892578125
 10
0.7750070095062256
 20
-0.7822076082229615
 10
0.7777812480926514
 20
-0.7867941856384278
 10
0.7805701494216919
 20
-0.7914050221443177
 10
0.7833716273307801
 20
-0.7960366010665894
 10
0.7890034914016724
 20
-0.8053476214408875
 10
0.7946595549583435
 20
-0.8146985769271849
 10
0.8003225326538085
 20
-0.8240610361099243
 10
0.8059751391410827
 20
-0.8334063291549682
 10
0.8116000890731812
 20
-0.8427059054374694
 10
0.8143967390060424
 20
-0.8473296165466307
 10
0.8171800971031188
 20
-0.8519311547279357
 10
0.819947838783264
 20
-0.8565070033073425
 10
0.8226978778839111
 20
-0.8610535264015197
 10
0.8254280090332031
 20
-0.8655672669410704
 10
0.8281361460685729
 20
-0.870044469833374
 10
0.8308200240135192
 20
-0.8744817376136779
 10
0.8334776163101196
 20
-0.8788754343986511
 10
0.8361066579818724
 20
-0.883221924304962
 10
0.8387050032615661
 20
-0.8875177502632141
 10
0.8412705659866333
 20
-0.8917592167854309
 10
0.8438010811805725
 20
-0.8959428668022155
 10
0.8462944030761718
 20
-0.9000650644302368
 10
0.8487484455108641
 20
-0.9041222929954528
 10
0.8511610031127929
 20
-0.9081108570098876
 10
0.853529930114746
 20
-0.9120272994041442
 10
0.8558530211448669
 20
-0.9158680438995361
 10
0.8581281900405883
 20
-0.9196294546127319
 10
0.8603531718254089
 20
-0.9233080148696899
 10
0.8625259399414062
 20
-0.9269001483917236
 10
0.8646442294120787
 20
-0.9304022789001464
 10
0.8667058944702148
 20
-0.9338107705116271
 10
0.8687087893486022
 20
-0.937122106552124
 10
0.8706507682800292
 20
-0.9403327703475952
 10
0.8725296854972839
 20
-0.9434390664100646
 10
0.8743433356285095
 20
-0.9464375376701354
 10
0.8760895729064941
 20
-0.9493245482444763
 10
0.8777662515640258
 20
-0.9520965218544006
 10
0.879371166229248
 20
-0.9547499418258666
 10
0.8809022307395935
 20
-0.9572811722755432
 10
0.8823571801185607
 20
-0.9596866369247437
 10
0.8837339878082275
 20
-0.9619628190994262
 10
0.8856477737426757
 20
-0.9651268720626831
 10
0.8873734474182128
 20
-0.9679798483848571
 10
0.8889036774635314
 20
-0.9705097675323486
 10
0.8902311921119689
 20
-0.972704529762268
 10
0.8916733264923095
 20
-0.9750887155532836
 10
0.8930986523628234
 20
-0.9774451851844786
 10
0.8942287564277648
 20
-0.9797306060791015
 10
0.8924186229705811
 20
-0.9816103577613829
 10
0.8879826068878173
 20
-0.9858558177947998
 10
0.8854061961174011
 20
-0.9884883165359497
 10
0.8834294080734252
 20
-0.9908525347709655
 10
0.8811485767364501
 20
-0.9937305450439453
 10
0.8787586688995361
 20
-0.9968761205673217
 10
0.876433253288269
 20
-1.000078678131103
 10
0.8730663061141967
 20
-1.004980564117431
 10
0.8709023594856262
 20
-1.008307814598083
 10
0.8688030242919921
 20
-1.011677861213684
 10
0.8667682409286499
 20
-1.015086650848388
 10
0.8647980690002441
 20
-1.018530249595642
 10
0.8628924489021301
 20
-1.02200448513031
 10
0.8610514402389526
 20
-1.025505304336547
 10
0.8592749834060668
 20
-1.02902865409851
 10
0.8575631380081176
 20
-1.032570481300354
 10
0.8548076748847961
 20
-1.038429975509643
 10
0.8531352877616882
 20
-1.042163610458374
 10
0.8515256643295288
 20
-1.045928359031677
 10
0.8499794006347656
 20
-1.049723744392395
 10
0.8484971523284912
 20
-1.053549289703369
 10
0.847079575061798
 20
-1.057404518127441
 10
0.8457273244857788
 20
-1.061288952827453
 10
0.8444408774375916
 20
-1.065202116966247
 10
0.8432210683822631
 20
-1.069143295288085
 10
0.8420683741569519
 20
-1.073112249374389
 10
0.8409834504127502
 20
-1.077108263969421
 10
0.8399670124053955
 20
-1.081130862236022
 10
0.8390195965766906
 20
-1.085179686546325
 10
0.838141918182373
 20
-1.089254140853881
 10
0.8373345136642456
 20
-1.093353748321533
 10
0.8365980982780457
 20
-1.097477912902832
 10
0.8359332680702209
 20
-1.101626276969909
 10
0.8353406190872192
 20
-1.105798125267028
 10
0.8348208069801329
 20
-1.10999321937561
 10
0.8343744874000549
 20
-1.114210844039916
 10
0.8340023159980773
 20
-1.11845052242279
 10
0.8337048292160034
 20
-1.122711896896362
 10
0.8334827423095703
 20
-1.126994371414184
 10
0.8333365917205811
 20
-1.131297349929809
 10
0.8332671523094177
 20
-1.135620474815368
 10
0.833263874053955
 20
-1.138561725616455
 10
0.8332970142364501
 20
-1.141571879386901
 10
0.8333668112754821
 20
-1.144573211669921
 10
0.8334730863571166
 20
-1.147565603256225
 10
0.8336154818534851
 20
-1.150548815727233
 10
0.8337939381599426
 20
-1.153522491455078
 10
0.8340081572532653
 20
-1.156486630439758
 10
0.8342580199241638
 20
-1.159440755844116
 10
0.8345431685447692
 20
-1.162384986877441
 10
0.834863543510437
 20
-1.165318727493286
 10
0.8352187871932983
 20
-1.168242096900939
 10
0.8356087803840637
 20
-1.171154737472534
 10
0.8360332846641541
 20
-1.1740562915802
 10
0.836492121219635
 20
-1.176946759223937
 10
0.8369849920272827
 20
-1.179825901985168
 10
0.8375117778778076
 20
-1.182693362236022
 10
0.8380722403526306
 20
-1.185549020767211
 10
0.8386661410331726
 20
-1.188392639160156
 10
0.8392932415008544
 20
-1.191224098205566
 10
0.8399534225463867
 20
-1.194042921066284
 10
0.8406463861465454
 20
-1.196849226951599
 10
0.8413718938827514
 20
-1.199642539024353
 10
0.8421298861503601
 20
-1.202422738075256
 10
0.8429199457168579
 20
-1.205189585685729
 10
0.8437420725822448
 20
-1.207942962646484
 10
0.8445958495140075
 20
-1.21068251132965
 10
0.8454812169075012
 20
-1.213408112525939
 10
0.846397876739502
 20
-1.216119408607482
 10
0.8473456501960754
 20
-1.218816399574279
 10
0.8483243584632874
 20
-1.221498727798461
 10
0.8493337035179138
 20
-1.22416615486145
 10
0.8503735065460205
 20
-1.226818561553955
 10
0.851443588733673
 20
-1.229455709457397
 10
0.8525437116622924
 20
-1.232077240943908
 10
0.8536736965179443
 20
-1.234683156013488
 10
0.8548332452774047
 20
-1.237273097038269
 10
0.8560222387313842
 20
-1.239846944808959
 10
0.8572403788566589
 20
-1.242404341697692
 10
0.8584875464439392
 20
-1.244945168495178
 10
0.8597634434700012
 20
-1.247469186782836
 10
0.8610678911209106
 20
-1.249976158142089
 10
0.8624007105827332
 20
-1.252465963363647
 10
0.8637616038322448
 20
-1.254938244819641
 10
0.8651504516601562
 20
-1.257392883300781
 10
0.8665670156478881
 20
-1.259829640388488
 10
0.8680110573768615
 20
-1.262248277664184
 10
0.8694823384284973
 20
-1.264648675918579
 10
0.8709807395935057
 20
-1.267030477523803
 10
0.8725059032440186
 20
-1.269393444061279
 10
0.8740577697753906
 20
-1.271737575531005
 10
0.8756360411643981
 20
-1.274062395095825
 10
0.8772405385971069
 20
-1.276367902755737
 10
0.8788710236549377
 20
-1.278653740882873
 10
0.8805273175239562
 20
-1.280919671058654
 10
0.8822091221809387
 20
-1.283165693283081
 10
0.8839163184165953
 20
-1.285391330718994
 10
0.8856486678123474
 20
-1.287596464157104
 10
0.8874059915542603
 20
-1.289780974388122
 10
0.8891879916191101
 20
-1.291944503784179
 10
0.8909944891929626
 20
-1.294086933135986
 10
0.8928253054618835
 20
-1.296207904815673
 10
0.8946801424026489
 20
-1.298307418823242
 10
0.896558940410614
 20
-1.300385117530822
 10
0.89846134185791
 20
-1.302440762519836
 10
0.900387167930603
 20
-1.304474234580993
 10
0.9023362398147583
 20
-1.306485295295715
 10
0.9043083786964417
 20
-1.308473587036132
 10
0.9063032269477844
 20
-1.310439109802246
 10
0.9083207249641418
 20
-1.312381386756896
 10
0.9103606343269348
 20
-1.314300537109375
 10
0.9124226570129395
 20
-1.316196084022521
 10
0.9145066738128662
 20
-1.318067789077758
 10
0.9166123867034912
 20
-1.319915652275085
 10
0.9187396168708801
 20
-1.321739315986633
 10
0.9208881855010986
 20
-1.323538541793823
 10
0.9230578541755676
 20
-1.325313210487365
 10
0.9252484440803527
 20
-1.327063083648681
 10
0.9274596571922302
 20
-1.328787922859191
 10
0.9296913743019104
 20
-1.330487370491027
 10
0.9319432973861694
 20
-1.332161426544189
 10
0.9342153072357177
 20
-1.333809733390808
 10
0.9365071058273315
 20
-1.335432171821594
 10
0.9388185143470764
 20
-1.337028503417968
 10
0.9411492943763732
 20
-1.338598489761352
 10
0.9434993267059326
 20
-1.340141892433166
 10
0.9458682537078857
 20
-1.341658473014831
 10
0.9482560157775878
 20
-1.343148112297058
 10
0.9506622552871704
 20
-1.344610571861267
 10
0.9530869126319885
 20
-1.346045613288879
 10
0.9555296301841735
 20
-1.347452878952026
 10
0.9579902291297911
 20
-1.348832368850708
 10
0.960468590259552
 20
-1.350183725357055
 10
0.9629644155502319
 20
-1.351506829261779
 10
0.965477466583252
 20
-1.352801442146301
 10
0.9680076241493225
 20
-1.354067325592041
 10
0.9705545902252197
 20
-1.355304241180419
 10
0.9731181859970092
 20
-1.356511950492858
 10
0.9756982326507568
 20
-1.357690334320068
 10
0.9782944321632385
 20
-1.358839154243469
 10
0.9809066653251647
 20
-1.359958052635192
 10
0.9835346937179565
 20
-1.361047029495239
 10
0.9861782193183898
 20
-1.36210560798645
  0
LWPOLYLINE
  5
98
100
AcDbEntity
  8
LAYER_1
  6
ByLayer
 62
   12
100
AcDbPolyline
 90
  555
 70
    1
 43
0
 10
1.480129361152648
 20
-0.7533709406852723
 10
1.478952288627624
 20
-0.7503585815429688
 10
1.478000998497009
 20
-0.747924029827118
 10
1.476839065551757
 20
-0.7449501156806946
 10
1.475509643554687
 20
-0.7415476441383362
 10
1.474056005477905
 20
-0.737827479839325
 10
1.473039388656616
 20
-0.7352255582809449
 10
1.471999645233154
 20
-0.7325645685195923
 10
1.469902276992797
 20
-0.7271966338157654
 10
1.468870162963867
 20
-0.7245553135871888
 10
1.467866420745849
 20
-0.7219862937927246
 10
1.466903686523437
 20
-0.7195222973823548
 10
1.465564608573913
 20
-0.7160952091217041
 10
1.464390039443969
 20
-0.7130892872810364
 10
1.463423371315002
 20
-0.7106153368949891
 10
1.462391853332519
 20
-0.7079752683639527
 10
1.460179090499877
 20
-0.7062411308288575
 10
1.457992076873779
 20
-0.7049161791801453
 10
1.455110192298889
 20
-0.7031701803207397
 10
1.452535986900329
 20
-0.7016106247901917
 10
1.449641704559326
 20
-0.6998571753501892
 10
1.446457743644714
 20
-0.6979282498359681
 10
1.444189310073852
 20
-0.6965538859367371
 10
1.441814541816711
 20
-0.6951152086257935
 10
1.439342617988586
 20
-0.693617582321167
 10
1.436782360076904
 20
-0.692066490650177
 10
1.43414294719696
 20
-0.6904674768447876
 10
1.431433320045471
 20
-0.6888258457183838
 10
1.428662538528442
 20
-0.6871472001075745
 10
1.4258394241333
 20
-0.6854368448257447
 10
1.422973155975341
 20
-0.6837003827095032
 10
1.420072793960571
 20
-0.6819431185722351
 10
1.414205193519592
 20
-0.6783883571624756
 10
1.408308863639831
 20
-0.6748160719871521
 10
1.402455687522888
 20
-0.6712700128555298
 10
1.39956784248352
 20
-0.6695204377174379
 10
1.39671778678894
 20
-0.6677937507629395
 10
1.393914461135864
 20
-0.6660954356193542
 10
1.391167044639587
 20
-0.6644309163093567
 10
1.388484477996826
 20
-0.6628057360649109
 10
1.385875701904296
 20
-0.6612251996994019
 10
1.383349657058715
 20
-0.6596948504447937
 10
1.380915522575378
 20
-0.6582201719284058
 10
1.378582239151
 20
-0.6568065285682679
 10
1.376358747482299
 20
-0.655459463596344
 10
1.373249053955078
 20
-0.6535755395889283
 10
1.370437145233154
 20
-0.6518719792366028
 10
1.367953419685363
 20
-0.6503672003746033
 10
1.365204691886901
 20
-0.6487019062042237
 10
1.362774848937988
 20
-0.6472297906875611
 10
1.364141464233398
 20
-0.6444382071495057
 10
1.366386771202087
 20
-0.6428273916244507
 10
1.368672609329223
 20
-0.6412818431854248
 10
1.370998382568359
 20
-0.639801025390625
 10
1.373363256454467
 20
-0.6383841037750245
 10
1.375766634941101
 20
-0.6370304226875306
 10
1.378207802772521
 20
-0.635739266872406
 10
1.380686044692993
 20
-0.6345099806785583
 10
1.383200645446777
 20
-0.6333417892456055
 10
1.385751008987426
 20
-0.6322340369224549
 10
1.388336300849914
 20
-0.6311860084533693
 10
1.390955805778503
 20
-0.6301969885826111
 10
1.393608927726745
 20
-0.6292662620544434
 10
1.396294951438903
 20
-0.6283931732177735
 10
1.39901316165924
 20
-0.6275769472122193
 10
1.401762843132019
 20
-0.6268168687820435
 10
1.404543280601501
 20
-0.6261123418807985
 10
1.40735375881195
 20
-0.6254625916481018
 10
1.410193681716918
 20
-0.6248669028282166
 10
1.413062214851379
 20
-0.6243245601654053
 10
1.415958881378173
 20
-0.6238349080085756
 10
1.418882727622985
 20
-0.6233972311019897
 10
1.421833157539367
 20
-0.6230108141899109
 10
1.424809455871582
 20
-0.6226749420166016
 10
1.427810907363891
 20
-0.6223888993263245
 10
1.430836915969848
 20
-0.6221520304679871
 10
1.433886647224426
 20
-0.6219635605812073
 10
1.436959505081176
 20
-0.6218228340148926
 10
1.440054655075073
 20
-0.6217291951179506
 10
1.443171620368957
 20
-0.621681809425354
 10
1.446309447288513
 20
-0.6216800808906556
 10
1.449467658996582
 20
-0.6217232346534729
 10
1.452645421028137
 20
-0.6218106150627137
 10
1.455842018127441
 20
-0.6219415068626404
 10
1.459056854248046
 20
-0.6221151947975159
 10
1.462289094924926
 20
-0.6223309636116028
 10
1.465538144111633
 20
-0.6225880980491639
 10
1.468803405761718
 20
-0.6228859424591064
 10
1.472083926200866
 20
-0.6232237815856934
 10
1.475379109382629
 20
-0.6236009001731873
 10
1.478688359260559
 20
-0.6240165829658509
 10
1.482010841369628
 20
-0.6244701147079468
 10
1.485345959663391
 20
-0.6249607801437378
 10
1.488692879676818
 20
-0.6254879236221313
 10
1.492051005363464
 20
-0.6260508298873902
 10
1.495419740676879
 20
-0.6266487836837769
 10
1.498798131942749
 20
-0.6272810697555542
 10
1.502185583114624
 20
-0.6279470324516297
 10
1.505581498146057
 20
-0.6286458969116211
 10
1.508985161781311
 20
-0.6293769478797913
 10
1.512395739555358
 20
-0.6301395297050476
 10
1.515812516212463
 20
-0.6309329867362976
 10
1.519235014915466
 20
-0.6317564845085144
 10
1.52609384059906
 20
-0.6334910988807679
 10
1.532966613769531
 20
-0.6353376507759095
 10
1.53984773159027
 20
-0.6372905373573304
 10
1.54673159122467
 20
-0.6393441557884217
 10
1.55361270904541
 20
-0.6414928436279297
 10
1.560485243797302
 20
-0.6437309384346009
 10
1.567343831062316
 20
-0.6460528969764709
 10
1.574182748794555
 20
-0.6484529376029969
 10
1.580996394157409
 20
-0.6509255170822144
 10
1.587779283523559
 20
-0.6534649729728699
 10
1.594525694847106
 20
-0.6560656428337098
 10
1.601230025291442
 20
-0.658721923828125
 10
1.607886672019958
 20
-0.6614281535148621
 10
1.614490270614624
 20
-0.6641787290573121
 10
1.621034860610961
 20
-0.6669679880142212
 10
1.627515077590942
 20
-0.669790267944336
 10
1.633925318717956
 20
-0.6726399660110474
 10
1.640259861946105
 20
-0.6755113601684571
 10
1.646513223648071
 20
-0.6783989667892456
 10
1.652679681777954
 20
-0.6812970042228699
 10
1.658753871917724
 20
-0.6841999292373658
 10
1.664729952812194
 20
-0.6871020197868348
 10
1.670602321624755
 20
-0.689997673034668
 10
1.676365613937377
 20
-0.6928812861442566
 10
1.679204583168029
 20
-0.6943168044090271
 10
1.682642340660095
 20
-0.6918827891349792
 10
1.697030067443847
 20
-0.6782819628715516
 10
1.711450219154357
 20
-0.6646848917007447
 10
1.725901246070861
 20
-0.6510928273200989
 10
1.75489056110382
 20
-0.6239287257194519
 10
1.783986568450927
 20
-0.5967995524406433
 10
1.813177943229675
 20
-0.5697153210639954
 10
1.842453360557556
 20
-0.5426859259605408
 10
1.871801376342773
 20
-0.5157213211059571
 10
1.901210665702819
 20
-0.4888314008712769
 10
1.930669903755187
 20
-0.4620262384414673
 10
1.960167646408081
 20
-0.4353156089782715
 10
1.989692568778991
 20
-0.4087096452713013
 10
2.004461765289306
 20
-0.3954488039016723
 10
2.019233465194702
 20
-0.3822180032730102
 10
2.034006118774414
 20
-0.3690183162689209
 10
2.048778772354125
 20
-0.3558509349822998
 10
2.05247163772583
 20
-0.3525642156600952
 10
2.054548740386962
 20
-0.3507164716720581
 10
2.056376457214355
 20
-0.3432177305221558
 10
2.059220314025878
 20
-0.3309292793273926
 10
2.062097311019897
 20
-0.3186469078063965
 10
2.065004587173461
 20
-0.306371808052063
 10
2.070897340774536
 20
-0.2818475961685181
 10
2.076874494552612
 20
-0.2573655843734741
 10
2.082911968231201
 20
-0.2329345941543579
 10
2.088985443115234
 20
-0.2085635662078857
 10
2.095070838928222
 20
-0.1842613220214844
 10
2.101143836975097
 20
-0.1600369215011597
 10
2.10718035697937
 20
-0.1358989477157593
 10
2.110177516937255
 20
-0.1238652467727661
 10
2.11315631866455
 20
-0.1118565797805786
 10
2.116113901138305
 20
-0.0998739004135132
 10
2.119047164916992
 20
-0.0879184007644654
 10
2.121953248977661
 20
-0.07599127292633059
 10
2.124829292297363
 20
-0.06409347057342531
 10
2.127671718597412
 20
-0.0522263050079346
 10
2.130477905273437
 20
-0.0403907299041748
 10
2.121856451034545
 20
-0.0420925617218018
 10
2.113290786743164
 20
-0.0437874794006348
 10
2.104781150817871
 20
-0.0454754829406738
 10
2.096327066421508
 20
-0.0471566915512085
 10
2.087928295135498
 20
-0.0488309860229492
 10
2.079584836959838
 20
-0.0504984855651856
 10
2.071296453475952
 20
-0.0521591901779175
 10
2.063063144683837
 20
-0.0538129806518555
 10
2.054884433746337
 20
-0.0554600954055786
 10
2.046760082244873
 20
-0.0571004152297974
 10
2.038690328598022
 20
-0.0587340593338013
 10
2.030674695968627
 20
-0.0603609085083008
 10
2.02271294593811
 20
-0.0619810819625855
 10
2.014805078506469
 20
-0.0635945796966553
 10
2.006950855255126
 20
-0.0652014017105103
 10
1.999150156974792
 20
-0.06680166721344
 10
1.991402626037597
 20
-0.06839513778686521
 10
1.983708143234252
 20
-0.0699821710586548
 10
1.976066708564758
 20
-0.07156252861022951
 10
1.968477845191955
 20
-0.07313632965087891
 10
1.960941553115844
 20
-0.074703574180603
 10
1.953457713127136
 20
-0.07626438140869141
 10
1.946025967597961
 20
-0.07781863212585451
 10
1.93864619731903
 20
-0.0793663263320923
 10
1.931318283081054
 20
-0.0809077024459839
 10
1.924041986465454
 20
-0.0824425220489502
 10
1.916817188262939
 20
-0.0839709043502808
 10
1.909643530845642
 20
-0.0854928493499756
 10
1.902521133422851
 20
-0.0870084762573242
 10
1.895449519157409
 20
-0.0885177850723267
 10
1.888428688049316
 20
-0.0900206565856934
 10
1.881458401679992
 20
-0.09151721000671389
 10
1.874538421630859
 20
-0.0930074453353882
 10
1.867668747901916
 20
-0.09449136257171629
 10
1.860849022865295
 20
-0.0959689617156983
 10
1.854079008102416
 20
-0.0974403619766236
 10
1.847358703613281
 20
-0.0989055633544922
 10
1.840687870979309
 20
-0.1003645658493042
 10
1.83406639099121
 20
-0.1018173694610596
 10
1.827493906021118
 20
-0.1032638549804687
 10
1.82097041606903
 20
-0.1047043800354004
 10
1.81449556350708
 20
-0.1061385869979858
 10
1.808069348335266
 20
-0.1075668334960937
 10
1.80169141292572
 20
-0.108988881111145
 10
1.795361638069152
 20
-0.1104048490524292
 10
1.789080023765563
 20
-0.1118147373199463
 10
1.782846093177795
 20
-0.1132186651229858
 10
1.776659846305847
 20
-0.1146165132522583
 10
1.770521163940429
 20
-0.1160082817077637
 10
1.764429688453674
 20
-0.117394208908081
 10
1.758385300636291
 20
-0.1187740564346313
 10
1.752387762069702
 20
-0.1201480627059936
 10
1.746437072753906
 20
-0.1215161085128784
 10
1.740532875061035
 20
-0.1228781938552856
 10
1.734675168991088
 20
-0.1242344379425049
 10
1.728863477706909
 20
-0.1255847215652466
 10
1.723097920417785
 20
-0.1269292831420898
 10
1.717378139495849
 20
-0.1282680034637451
 10
1.711704134941101
 20
-0.1296008825302124
 10
1.706075429916381
 20
-0.1309279203414917
 10
1.700492143630981
 20
-0.1322492361068726
 10
1.694953799247741
 20
-0.133564829826355
 10
1.689460515975952
 20
-0.1348745822906494
 10
1.684011936187744
 20
-0.136178731918335
 10
1.678607940673828
 20
-0.1374771595001221
 10
1.673248291015625
 20
-0.1387698650360107
 10
1.667932868003845
 20
-0.1400569677352905
 10
1.662661433219909
 20
-0.1413383483886719
 10
1.657433867454528
 20
-0.1426142454147339
 10
1.652249932289123
 20
-0.1438844203948975
 10
1.647109508514404
 20
-0.1451491117477417
 10
1.642012357711791
 20
-0.146408200263977
 10
1.636958241462707
 20
-0.1476616859436035
 10
1.63194715976715
 20
-0.1489096879959106
 10
1.626978754997253
 20
-0.1501522064208984
 10
1.622053027153015
 20
-0.1513892412185669
 10
1.617169618606567
 20
-0.1526209115982056
 10
1.61232841014862
 20
-0.1538469791412353
 10
1.607529163360595
 20
-0.1550676822662353
 10
1.602771878242492
 20
-0.1562830209732056
 10
1.598056197166442
 20
-0.1574928760528564
 10
1.593382000923156
 20
-0.1586974859237671
 10
1.588749051094055
 20
-0.1598966121673584
 10
1.584157228469848
 20
-0.1610904932022095
 10
1.579606413841247
 20
-0.1622791290283203
 10
1.575096249580383
 20
-0.1634624004364014
 10
1.570626735687255
 20
-0.1646404266357422
 10
1.566197633743286
 20
-0.1658130884170532
 10
1.561808705329895
 20
-0.1669806241989136
 10
1.557459831237792
 20
-0.1681429147720337
 10
1.5531507730484
 20
-0.1693000793457031
 10
1.548881411552429
 20
-0.1704519987106323
 10
1.544651508331298
 20
-0.1715987920761108
 10
1.54046082496643
 20
-0.1727404594421387
 10
1.536309361457824
 20
-0.1738770008087158
 10
1.532196879386901
 20
-0.1750084161758423
 10
1.528123140335083
 20
-0.1761348247528076
 10
1.524087905883789
 20
-0.1772561073303223
 10
1.52009105682373
 20
-0.1783723831176758
 10
1.516132473945617
 20
-0.1794836521148682
 10
1.512211918830871
 20
-0.1805899143218994
 10
1.508329272270202
 20
-0.1816911697387695
 10
1.504484176635742
 20
-0.1827875375747681
 10
1.500676751136779
 20
-0.1838788986206055
 10
1.496906518936157
 20
-0.1849653720855713
 10
1.493173360824584
 20
-0.1860469579696655
 10
1.489477157592773
 20
-0.1871235370635986
 10
1.485817790031433
 20
-0.1881953477859497
 10
1.482195019721984
 20
-0.1892622709274292
 10
1.478608608245849
 20
-0.1903244256973266
 10
1.475058436393737
 20
-0.1913818120956421
 10
1.47154426574707
 20
-0.1924343109130859
 10
1.468065977096557
 20
-0.1934820413589477
 10
1.46462345123291
 20
-0.1945251226425171
 10
1.461216330528259
 20
-0.1955634355545044
 10
1.457844495773315
 20
-0.1965969800949097
 10
1.454507827758789
 20
-0.1976258754730224
 10
1.451206088066101
 20
-0.1986501216888428
 10
1.447939157485961
 20
-0.199669599533081
 10
1.444706797599792
 20
-0.2006845474243164
 10
1.441508889198303
 20
-0.2016948461532593
 10
1.438345193862915
 20
-0.2027006149291992
 10
1.435215473175048
 20
-0.2037018537521362
 10
1.432119727134704
 20
-0.2046984434127808
 10
1.429057598114013
 20
-0.2056905031204224
 10
1.426028966903686
 20
-0.206678032875061
 10
1.423033595085144
 20
-0.2076610326766968
 10
1.420071482658386
 20
-0.2086396217346191
 10
1.417142271995544
 20
-0.2096136808395386
 10
1.414245843887329
 20
-0.2105834484100342
 10
1.411381959915161
 20
-0.2115486860275268
 10
1.40855050086975
 20
-0.2125095129013061
 10
1.405751347541809
 20
-0.2134660482406616
 10
1.402984142303466
 20
-0.2144180536270142
 10
1.400248885154724
 20
-0.2153658866882324
 10
1.397545337677001
 20
-0.2163093090057373
 10
1.394873261451721
 20
-0.2172484397888184
 10
1.392232537269592
 20
-0.2181832790374756
 10
1.389622926712036
 20
-0.2191139459609985
 10
1.387044191360473
 20
-0.2200402021408081
 10
1.384496331214904
 20
-0.2209624052047729
 10
1.38197910785675
 20
-0.221880316734314
 10
1.379492282867431
 20
-0.2227940559387207
 10
1.377035617828369
 20
-0.2237036228179932
 10
1.374609112739562
 20
-0.2246090173721313
 10
1.372212409973144
 20
-0.2255102396011352
 10
1.367507934570312
 20
-0.2273005247116089
 10
1.362920761108398
 20
-0.2290744781494141
 10
1.358449459075927
 20
-0.2308322191238403
 10
1.354092597961425
 20
-0.2325741052627563
 10
1.349848747253417
 20
-0.2343001365661621
 10
1.34571635723114
 20
-0.2360104322433472
 10
1.341694116592407
 20
-0.2377053499221802
 10
1.337780356407165
 20
-0.2393847703933716
 10
1.333973884582519
 20
-0.24104905128479
 10
1.330273151397705
 20
-0.2426983118057251
 10
1.326676607131958
 20
-0.2443325519561768
 10
1.323182821273803
 20
-0.2459521293640137
 10
1.319790482521057
 20
-0.2475571632385254
 10
1.316498160362243
 20
-0.2491477727890015
 10
1.313304185867309
 20
-0.2507239580154419
 10
1.310207247734069
 20
-0.2522860765457153
 10
1.30720579624176
 20
-0.2538343667984009
 10
1.304298520088195
 20
-0.255368709564209
 10
1.301483869552612
 20
-0.2568894624710083
 10
1.298760533332824
 20
-0.2583966255187988
 10
1.296126842498779
 20
-0.2598904371261597
 10
1.29358160495758
 20
-0.2613711357116699
 10
1.291123032569885
 20
-0.2628387212753296
 10
1.288750052452087
 20
-0.2642934322357178
 10
1.286460876464843
 20
-0.2657355070114136
 10
1.284254312515258
 20
-0.2671648263931274
 10
1.282128810882568
 20
-0.2685818672180176
 10
1.278115034103393
 20
-0.2713791131973267
 10
1.275970578193664
 20
-0.2730873823165893
 10
1.273693203926086
 20
-0.2752605676651001
 10
1.271478652954101
 20
-0.2774826288223267
 10
1.268836498260498
 20
-0.2801932096481323
 10
1.266840457916259
 20
-0.2822636365890503
 10
1.264658570289611
 20
-0.2845386266708374
 10
1.262292861938476
 20
-0.2870132923126221
 10
1.259745001792907
 20
-0.2896827459335327
 10
1.257016658782958
 20
-0.2925418615341186
 10
1.254109621047973
 20
-0.2955857515335083
 10
1.251025557518005
 20
-0.2988094091415405
 10
1.247766375541687
 20
-0.3022078275680542
 10
1.244333863258361
 20
-0.3057758808135986
 10
1.242552995681762
 20
-0.3076220750808716
 10
1.240729570388793
 20
-0.3095088005065918
 10
1.238863587379455
 20
-0.311435341835022
 10
1.236955285072326
 20
-0.3134013414382935
 10
1.235005021095275
 20
-0.3154059648513794
 10
1.233012914657592
 20
-0.3174487352371216
 10
1.230979204177856
 20
-0.3195289373397827
 10
1.228904008865356
 20
-0.3216458559036255
 10
1.22678780555725
 20
-0.3237990140914917
 10
1.22463047504425
 20
-0.3259878158569336
 10
1.222432613372802
 20
-0.3282114267349243
 10
1.220194101333618
 20
-0.3304694890975952
 10
1.217915296554565
 20
-0.3327611684799194
 10
1.215596437454223
 20
-0.3350859880447388
 10
1.213237643241882
 20
-0.3374431133270264
 10
1.21083927154541
 20
-0.3398321866989136
 10
1.208401560783386
 20
-0.3422523736953735
 10
1.20592451095581
 20
-0.344703197479248
 10
1.203408598899841
 20
-0.3471839427947998
 10
1.200853824615478
 20
-0.349694013595581
 10
1.19826054573059
 20
-0.352232813835144
 10
1.195628881454467
 20
-0.3547996282577515
 10
1.192959189414978
 20
-0.3573938608169556
 10
1.190251588821411
 20
-0.3600150346755981
 10
1.187506318092346
 20
-0.3626624345779419
 10
1.184723496437072
 20
-0.3653353452682495
 10
1.181903600692749
 20
-0.3680331707000732
 10
1.179046511650085
 20
-0.3707553148269653
 10
1.17615270614624
 20
-0.373501181602478
 10
1.173222422599792
 20
-0.3762701749801636
 10
1.170255661010742
 20
-0.3790615797042847
 10
1.167252779006958
 20
-0.3818747997283935
 10
1.164214015007019
 20
-0.3847092390060425
 10
1.161139488220214
 20
-0.3875643014907837
 10
1.158029556274414
 20
-0.3904392719268799
 10
1.154884338378906
 20
-0.3933336734771728
 10
1.15170395374298
 20
-0.3962466716766357
 10
1.148488879203796
 20
-0.3991777896881103
 10
1.145239114761352
 20
-0.402126431465149
 10
1.141955018043518
 20
-0.4050917625427246
 10
1.138636708259582
 20
-0.4080734252929688
 10
1.135284543037414
 20
-0.4110705852508545
 10
1.131898522377014
 20
-0.4140827655792237
 10
1.12847900390625
 20
-0.4171093702316285
 10
1.125026226043701
 20
-0.420149564743042
 10
1.121540427207946
 20
-0.4232028722763062
 10
1.118021607398986
 20
-0.4262686967849732
 10
1.114470243453979
 20
-0.4293462038040162
 10
1.110886454582214
 20
-0.4324350357055664
 10
1.10727047920227
 20
-0.4355344772338868
 10
1.103622555732727
 20
-0.4386439323425293
 10
1.099942803382873
 20
-0.4417626261711121
 10
1.096231460571289
 20
-0.4448900818824768
 10
1.092488884925842
 20
-0.4480255842208863
 10
1.088715076446533
 20
-0.4511686563491822
 10
1.08491051197052
 20
-0.4543185234069825
 10
1.081075191497802
 20
-0.4574745893478394
 10
1.07720947265625
 20
-0.4606362581253052
 10
1.073313474655151
 20
-0.4638029336929322
 10
1.069387435913085
 20
-0.4669739007949829
 10
1.06144630908966
 20
-0.4733264446258545
 10
1.053387641906738
 20
-0.4796888828277588
 10
1.045213341712951
 20
-0.4860562086105347
 10
1.036925077438354
 20
-0.492423415184021
 10
1.028524756431579
 20
-0.4987854957580567
 10
1.026407241821289
 20
-0.5003746747970581
 10
1.023872971534729
 20
-0.5022676587104798
 10
1.021801590919494
 20
-0.5038012266159058
 10
1.017766714096069
 20
-0.5067493319511414
 10
1.013870954513549
 20
-0.5095459818840027
 10
1.010108828544616
 20
-0.5121997594833374
 10
1.006474494934082
 20
-0.5147193074226381
 10
1.002962231636047
 20
-0.5171132683753968
 10
0.9995665550231932
 20
-0.5193902850151062
 10
0.9962815642356871
 20
-0.5215590000152588
 10
0.9931017160415649
 20
-0.5236281156539917
 10
0.9900212287902832
 20
-0.5256061553955079
 10
0.9870344996452332
 20
-0.5275018215179444
 10
0.9841358661651611
 20
-0.5293237566947937
 10
0.9813195466995239
 20
-0.5310805439949036
 10
0.9785799384117126
 20
-0.5327809453010559
 10
0.9759113192558287
 20
-0.5344334840774537
 10
0.9733079671859741
 20
-0.5360468626022339
 10
0.9707643389701843
 20
-0.5376296639442444
 10
0.9682745933532714
 20
-0.5391905903816224
 10
0.9658331871032714
 20
-0.5407382249832154
 10
0.9634343385696411
 20
-0.5422812700271606
 10
0.9610723853111267
 20
-0.5438283681869507
 10
0.9587416648864746
 20
-0.5453881025314331
 10
0.9564364552497863
 20
-0.5469691157341005
 10
0.9541511535644531
 20
-0.5485800504684449
 10
0.9518799781799316
 20
-0.5502296090126038
 10
0.9506248831748962
 20
-0.5525965690612793
 10
0.9552849531173706
 20
-0.5610650777816772
 10
0.9590525031089782
 20
-0.5678651332855225
 10
0.9628536105155944
 20
-0.5746866464614869
 10
0.966686725616455
 20
-0.5815287232398987
 10
0.9705504775047302
 20
-0.588390588760376
 10
0.9744433760643005
 20
-0.5952712297439576
 10
0.9783638715744019
 20
-0.6021698117256165
 10
0.9823105931282043
 20
-0.6090854406356812
 10
0.9902767539024353
 20
-0.6229643821716309
 10
0.9983299970626831
 20
-0.6369010210037231
 10
1.006458759307861
 20
-0.650888204574585
 10
1.014651179313659
 20
-0.6649189591407776
 10
1.022895455360412
 20
-0.6789861917495728
 10
1.031180024147033
 20
-0.6930828094482422
 10
1.039492964744567
 20
-0.7072018384933472
 10
1.05615746974945
 20
-0.7354786396026612
 10
1.072795033454895
 20
-0.7637601494789124
 10
1.081074476242065
 20
-0.7778849601745605
 10
1.089311838150024
 20
-0.791989803314209
 10
1.097495555877685
 20
-0.8060675859451293
 10
1.105613827705383
 20
-0.8201112151145935
 10
1.113654971122741
 20
-0.8341136574745178
 10
1.121607184410095
 20
-0.848067820072174
 10
1.125546216964721
 20
-0.8550246357917785
 10
1.129458785057067
 20
-0.8619667291641235
 10
1.13334310054779
 20
-0.8688932061195374
 10
1.137197971343994
 20
-0.8758032321929931
 10
1.141021847724914
 20
-0.8826958537101744
 10
1.144813060760498
 20
-0.8895702958106994
 10
1.148570537567138
 20
-0.8964255452156066
 10
1.152292370796203
 20
-0.903260827064514
 10
1.154139637947082
 20
-0.9066706895828247
 10
1.156294226646423
 20
-0.9082116484642028
 10
1.158892035484313
 20
-0.9069694876670837
 10
1.161443352699279
 20
-0.9057495594024658
 10
1.163766384124755
 20
-0.9046388268470764
 10
1.16642677783966
 20
-0.9033668041229248
 10
1.16941225528717
 20
-0.9019392728805541
 10
1.17271077632904
 20
-0.9003621339797973
 10
1.175077438354492
 20
-0.8992304801940917
 10
1.177574157714843
 20
-0.8980367183685302
 10
1.180197238922119
 20
-0.8967824578285217
 10
1.182943105697631
 20
-0.8954696059226989
 10
1.185807943344116
 20
-0.8940997719764709
 10
1.188788294792175
 20
-0.8926746845245361
 10
1.191880464553833
 20
-0.8911961913108825
 10
1.195080876350402
 20
-0.8896659612655639
 10
1.198385834693908
 20
-0.888085663318634
 10
1.201791644096374
 20
-0.8864571452140808
 10
1.205294847488403
 20
-0.8847821354866027
 10
1.208891749382019
 20
-0.8830623030662536
 10
1.212578654289245
 20
-0.8812993764877319
 10
1.216351985931396
 20
-0.8794952034950256
 10
1.220208168029785
 20
-0.8776513934135437
 10
1.224143385887145
 20
-0.8757697939872741
 10
1.228154182434082
 20
-0.8738520145416259
 10
1.232236862182617
 20
-0.871899902820587
 10
1.236387848854064
 20
-0.8699151277542114
 10
1.240603446960449
 20
-0.867899477481842
 10
1.244879961013793
 20
-0.8658546209335327
 10
1.249213933944702
 20
-0.8637824058532714
 10
1.253601551055908
 20
-0.8616844415664672
 10
1.258039355278015
 20
-0.8595625162124633
 10
1.262523651123046
 20
-0.8574183583259583
 10
1.267050743103027
 20
-0.8552537560462951
 10
1.27161705493927
 20
-0.8530703783035278
 10
1.276219010353088
 20
-0.8508700132369995
 10
1.280852794647216
 20
-0.8486543297767639
 10
1.285514950752258
 20
-0.8464251160621643
 10
1.294909834861755
 20
-0.8419330716133117
 10
1.30437433719635
 20
-0.837407648563385
 10
1.313879489898681
 20
-0.8328627943992614
 10
1.332895636558532
 20
-0.8237702846527098
 10
1.342348456382751
 20
-0.8192504048347473
 10
1.351725816726684
 20
-0.8147666454315186
 10
1.356377124786376
 20
-0.8125426769256591
 10
1.360998630523681
 20
-0.8103328943252563
 10
1.365586757659912
 20
-0.8081390857696533
 10
1.370137810707092
 20
-0.8059630393981932
 10
1.374648213386535
 20
-0.8038063645362854
 10
1.379114270210266
 20
-0.8016709089279174
 10
1.383532524108886
 20
-0.7995584011077881
 10
1.387899041175842
 20
-0.797470510005951
 10
1.392210483551025
 20
-0.7954090237617493
 10
1.396463155746459
 20
-0.7933756709098816
 10
1.40065324306488
 20
-0.7913721203804017
 10
1.404777407646179
 20
-0.7894002199172974
 10
1.408831715583801
 20
-0.7874616384506226
 10
1.412812709808349
 20
-0.7855581045150757
 10
1.416716814041137
 20
-0.78369140625
 10
1.420540213584899
 20
-0.781863272190094
 10
1.424279451370239
 20
-0.7800753712654114
 10
1.427930831909179
 20
-0.7783294916152954
 10
1.431490659713745
 20
-0.7766273617744446
 10
1.434955358505249
 20
-0.7749707102775574
 10
1.438321232795715
 20
-0.7733613252639771
 10
1.441584825515747
 20
-0.7718008756637574
 10
1.444742321968078
 20
-0.7702910900115967
 10
1.447790265083312
 20
-0.7688337564468384
 10
1.450724840164184
 20
-0.7674306035041809
 10
1.453542590141296
 20
-0.766083300113678
 10
1.456239700317382
 20
-0.7647936940193177
 10
1.458812594413757
 20
-0.7635634541511536
 10
1.461257815361022
 20
-0.7623943090438843
 10
1.463571548461914
 20
-0.7612879872322083
 10
1.466787695884704
 20
-0.7597501873970032
 10
1.469687700271606
 20
-0.7583635449409485
 10
1.472259402275085
 20
-0.7571339011192322
 10
1.475156188011169
 20
-0.7557488083839417
  0
LWPOLYLINE
  5
99
100
AcDbEntity
  8
LAYER_1
  6
ByLayer
 62
   12
100
AcDbPolyline
 90
  402
 70
    1
 43
0
 10
0.9496771693229675
 20
-1.137355208396911
 10
0.9522855877876281
 20
-1.137355208396911
 10
0.9548825025558471
 20
-1.137355208396911
 10
0.95810467004776
 20
-1.137355208396911
 10
0.96100914478302
 20
-1.137355208396911
 10
0.9648941159248352
 20
-1.137355208396911
 10
0.9696868062019348
 20
-1.137355208396911
 10
0.9728143215179443
 20
-1.137355208396911
 10
0.9757782220840454
 20
-1.137355208396911
 10
0.9784844517707824
 20
-1.137355208396911
 10
0.9813618063926696
 20
-1.137355208396911
 10
0.9839792251586914
 20
-1.137355208396911
 10
0.9850121140480042
 20
-1.134103655815124
 10
0.9851925373077391
 20
-1.130736827850341
 10
0.9854941964149475
 20
-1.127403736114501
 10
0.9859148859977722
 20
-1.124106526374816
 10
0.9864524602890014
 20
-1.120847344398498
 10
0.9871046543121337
 20
-1.117628574371337
 10
0.9878693819046021
 20
-1.114452123641967
 10
0.9887444376945494
 20
-1.111320376396179
 10
0.9897276759147644
 20
-1.108235359191894
 10
0.9908168315887451
 20
-1.105199337005615
 10
0.9920097589492797
 20
-1.102214574813842
 10
0.9933042526245117
 20
-1.099283099174499
 10
0.9946982264518737
 20
-1.096407175064086
 10
0.9961894154548645
 20
-1.093588948249816
 10
0.9977756738662719
 20
-1.090830564498901
 10
0.9994547963142395
 20
-1.088134288787841
 10
1.001224637031555
 20
-1.08550226688385
 10
1.003082990646362
 20
-1.082936763763427
 10
1.005027651786804
 20
-1.080439805984497
 10
1.007056474685668
 20
-1.07801353931427
 10
1.009167194366455
 20
-1.075660347938537
 10
1.01135778427124
 20
-1.073382258415222
 10
1.013625979423522
 20
-1.071181535720825
 10
1.015969634056091
 20
-1.069060325622558
 10
1.018386602401733
 20
-1.067020773887634
 10
1.020874500274658
 20
-1.065065145492553
 10
1.023431420326232
 20
-1.063195586204528
 10
1.026054978370666
 20
-1.061414241790771
 10
1.028743028640747
 20
-1.059723258018493
 10
1.031493544578552
 20
-1.058124899864196
 10
1.034304141998291
 20
-1.056621313095092
 10
1.037172794342041
 20
-1.055214762687683
 10
1.040097117424011
 20
-1.05390727519989
 10
1.043075203895568
 20
-1.052701115608215
 10
1.046104669570922
 20
-1.05159842967987
 10
1.04918348789215
 20
-1.050601363182067
 10
1.052309393882751
 20
-1.049712300300598
 10
1.055480122566223
 20
-1.048933148384094
 10
1.058693647384643
 20
-1.048266291618347
 10
1.061947703361511
 20
-1.047713875770568
 10
1.065240025520324
 20
-1.047277927398681
 10
1.068568706512451
 20
-1.046960830688476
 10
1.07193124294281
 20
-1.046764612197875
 10
1.075325727462768
 20
-1.046691536903381
 10
1.075619101524353
 20
-1.049264311790466
 10
1.075619101524353
 20
-1.052017211914062
 10
1.075619101524353
 20
-1.055101990699768
 10
1.075619101524353
 20
-1.058156132698059
 10
1.075619101524353
 20
-1.060900568962097
 10
1.075619101524353
 20
-1.06390106678009
 10
1.075619101524353
 20
-1.067146778106689
 10
1.075619101524353
 20
-1.069735527038574
 10
1.075619101524353
 20
-1.072451472282409
 10
1.075619101524353
 20
-1.075290203094482
 10
1.075619101524353
 20
-1.0782470703125
 10
1.075619101524353
 20
-1.081317424774169
 10
1.075619101524353
 20
-1.084496855735778
 10
1.075619101524353
 20
-1.087780714035034
 10
1.075619101524353
 20
-1.091164469718933
 10
1.075619101524353
 20
-1.094643592834472
 10
1.075619101524353
 20
-1.09821343421936
 10
1.075619101524353
 20
-1.101869463920593
 10
1.075619101524353
 20
-1.105607151985168
 10
1.075619101524353
 20
-1.109421968460083
 10
1.075619101524353
 20
-1.113309144973754
 10
1.075619101524353
 20
-1.115938663482666
 10
1.075619101524353
 20
-1.118597030639648
 10
1.075619101524353
 20
-1.121282815933227
 10
1.075619101524353
 20
-1.123994827270507
 10
1.075619101524353
 20
-1.126731514930725
 10
1.075619101524353
 20
-1.129491806030273
 10
1.075619101524353
 20
-1.132274031639099
 10
1.075619101524353
 20
-1.135076999664306
 10
1.075619101524353
 20
-1.13789939880371
 10
1.075619101524353
 20
-1.140739679336547
 10
1.075619101524353
 20
-1.143596768379211
 10
1.075619101524353
 20
-1.146469116210937
 10
1.075619101524353
 20
-1.149355411529541
 10
1.075619101524353
 20
-1.152254343032836
 10
1.075619101524353
 20
-1.15516459941864
 10
1.075619101524353
 20
-1.158084630966186
 10
1.075619101524353
 20
-1.163949131965637
 10
1.075619101524353
 20
-1.169836997985839
 10
1.075619101524353
 20
-1.181639671325683
 10
1.075619101524353
 20
-1.187532782554626
 10
1.075619101524353
 20
-1.193405985832214
 10
1.075619101524353
 20
-1.196331739425659
 10
1.075619101524353
 20
-1.199248433113098
 10
1.075619101524353
 20
-1.202154755592346
 10
1.075619101524353
 20
-1.205049395561218
 10
1.075619101524353
 20
-1.207930922508239
 10
1.075619101524353
 20
-1.210798025131225
 10
1.075619101524353
 20
-1.213649272918701
 10
1.075619101524353
 20
-1.21648347377777
 10
1.075619101524353
 20
-1.21929907798767
 10
1.075619101524353
 20
-1.222094893455505
 10
1.075619101524353
 20
-1.224869489669799
 10
1.075619101524353
 20
-1.227621436119079
 10
1.075619101524353
 20
-1.230349540710449
 10
1.075619101524353
 20
-1.233052492141723
 10
1.075619101524353
 20
-1.235728621482849
 10
1.075619101524353
 20
-1.238376975059509
 10
1.075619101524353
 20
-1.24099588394165
 10
1.075619101524353
 20
-1.243584156036376
 10
1.075619101524353
 20
-1.246140480041503
 10
1.075619101524353
 20
-1.249911785125732
 10
1.075619101524353
 20
-1.25360357761383
 10
1.075619101524353
 20
-1.257210969924926
 10
1.075619101524353
 20
-1.260729670524597
 10
1.075619101524353
 20
-1.264155030250549
 10
1.075619101524353
 20
-1.26748239994049
 10
1.075619101524353
 20
-1.270707368850708
 10
1.075619101524353
 20
-1.273825168609619
 10
1.075619101524353
 20
-1.27683138847351
 10
1.075619101524353
 20
-1.279721498489379
 10
1.075619101524353
 20
-1.282490849494934
 10
1.075619101524353
 20
-1.28513479232788
 10
1.075619101524353
 20
-1.28845727443695
 10
1.075619101524353
 20
-1.291538119316101
 10
1.075619101524353
 20
-1.294366359710693
 10
1.075619101524353
 20
-1.296931266784667
 10
1.075619101524353
 20
-1.299750566482543
 10
1.075619101524353
 20
-1.302538514137268
 10
1.075619101524353
 20
-1.305185675621032
 10
1.073335766792297
 20
-1.306688070297241
 10
1.070141673088073
 20
-1.306688070297241
 10
1.067411184310913
 20
-1.306688070297241
 10
1.064840197563171
 20
-1.306665182113647
 10
1.06200361251831
 20
-1.306334257125854
 10
1.05923855304718
 20
-1.30601167678833
 10
1.056029319763183
 20
-1.305637121200561
 10
1.053153991699218
 20
-1.305301666259765
 10
1.05036461353302
 20
-1.304976224899291
 10
1.047472834587097
 20
-1.304638743400573
 10
1.044793486595153
 20
-1.304326176643371
 10
1.042149305343627
 20
-1.303781032562255
 10
1.039430618286132
 20
-1.303089976310729
 10
1.036881446838378
 20
-1.302442073822021
 10
1.033158063888549
 20
-1.301495790481567
 10
1.030364871025085
 20
-1.300785779953002
 10
1.02777874469757
 20
-1.300128459930419
 10
1.025273203849792
 20
-1.299491643905639
 10
1.022780060768127
 20
-1.298814892768859
 10
1.020267009735107
 20
-1.29778254032135
 10
1.017696380615234
 20
-1.296726584434509
 10
1.014706134796142
 20
-1.295498132705688
 10
1.012022614479064
 20
-1.294395804405212
 10
1.009415507316589
 20
-1.293324828147888
 10
1.007062435150146
 20
-1.29235827922821
 10
1.004626989364624
 20
-1.29135775566101
 10
1.002241253852844
 20
-1.290233373641967
 10
0.9997059702873229
 20
-1.288846373558044
 10
0.9970738291740417
 20
-1.28740632534027
 10
0.9937318563461303
 20
-1.285577893257141
 10
0.991220474243164
 20
-1.284203886985778
 10
0.9888916015625
 20
-1.28292977809906
 10
0.9866295456886292
 20
-1.281692266464233
 10
0.9843737483024597
 20
-1.280419945716857
 10
0.9821982979774475
 20
-1.278866171836853
 10
0.979958176612854
 20
-1.277266144752502
 10
0.9773462414741516
 20
-1.275400638580322
 10
0.9749985337257385
 20
-1.273723721504211
 10
0.9727143049240112
 20
-1.272092223167419
 10
0.9703369140625
 20
-1.270394206047058
 10
0.9681151509284973
 20
-1.268807291984558
 10
0.9660850763320922
 20
-1.267061352729797
 10
0.9640809893608093
 20
-1.265148162841796
 10
0.9621904492378234
 20
-1.263343453407287
 10
0.9594184756278991
 20
-1.260697245597839
 10
0.957331895828247
 20
-1.258705258369445
 10
0.95539391040802
 20
-1.256855130195617
 10
0.9535067677497863
 20
-1.255053639411926
 10
0.9516266584396362
 20
-1.25321614742279
 10
0.9499578475952148
 20
-1.251196146011352
 10
0.9482276439666748
 20
-1.249101877212524
 10
0.9462056159973145
 20
-1.246654391288757
 10
0.9443851113319396
 20
-1.244450807571411
 10
0.942611277103424
 20
-1.242303729057312
 10
0.9407615661621093
 20
-1.240064859390258
 10
0.9390255808830261
 20
-1.237963676452636
 10
0.937484323978424
 20
-1.235795140266418
 10
0.9359902739524841
 20
-1.23348581790924
 10
0.9345766305923461
 20
-1.231300711631774
 10
0.9324997663497924
 20
-1.228090524673461
 10
0.9309338331222534
 20
-1.225669980049133
 10
0.9294769763946533
 20
-1.223418235778808
 10
0.9280549287796021
 20
-1.221220135688781
 10
0.9266868829727172
 20
-1.21906566619873
 10
0.9255585074424743
 20
-1.216583251953125
 10
0.9244249463081359
 20
-1.214089512825012
 10
0.9230970144271849
 20
-1.21116816997528
 10
0.9218995571136473
 20
-1.208533883094787
 10
0.9207311272621154
 20
-1.205963253974914
 10
0.9196708798408508
 20
-1.203630805015563
 10
0.9185627102851867
 20
-1.20119297504425
 10
0.9175775051116943
 20
-1.198744773864746
 10
0.9166873097419738
 20
-1.196074128150939
 10
0.9157522320747375
 20
-1.19326889514923
 10
0.9139519333839417
 20
-1.187867879867553
 10
0.9130838513374328
 20
-1.185263633728027
 10
0.9122038483619689
 20
-1.182623744010925
 10
0.9113765954971313
 20
-1.180141925811767
 10
0.910828411579132
 20
-1.177523136138916
 10
0.910366415977478
 20
-1.175004243850708
 10
0.9098020792007446
 20
-1.171926975250244
 10
0.9091027379035949
 20
-1.168114066123962
 10
0.9085877537727355
 20
-1.165306091308593
 10
0.9081196784973145
 20
-1.162753820419311
 10
0.9076288938522338
 20
-1.160077571868896
 10
0.9072715044021606
 20
-1.157442331314086
 10
0.9070855379104614
 20
-1.154651165008544
 10
0.9068893790245056
 20
-1.151707530021667
 10
0.9066382646560668
 20
-1.147938132286071
 10
0.9064482450485229
 20
-1.145086407661437
 10
0.9062708616256713
 20
-1.142424941062927
 10
0.9060969352722167
 20
-1.139814257621765
 10
0.905941367149353
 20
-1.13723087310791
 10
0.9061174392700195
 20
-1.134588122367858
 10
0.9062972068786621
 20
-1.131890773773193
 10
0.9065087437629699
 20
-1.128715753555297
 10
0.9067001342773438
 20
-1.125843286514282
 10
0.9068874716758728
 20
-1.123032093048095
 10
0.9070580005645751
 20
-1.12047266960144
 10
0.9072374105453491
 20
-1.117780327796936
 10
0.9075359106063842
 20
-1.115139722824096
 10
0.9080442190170288
 20
-1.11236834526062
 10
0.9085824489593505
 20
-1.109433531761169
 10
0.9092731475830078
 20
-1.105667471885681
 10
0.9097965359687805
 20
-1.102813482284545
 10
0.9102858304977416
 20
-1.100145578384399
 10
0.9107669591903687
 20
-1.097522377967834
 10
0.9112255573272705
 20
-1.095021843910217
 10
0.9120881557464598
 20
-1.092433810234069
 10
0.9129387140274047
 20
-1.089882135391235
 10
0.913942277431488
 20
-1.08687150478363
 10
0.9148516654968261
 20
-1.084143161773681
 10
0.9157429933547973
 20
-1.081469297409057
 10
0.9165558815002441
 20
-1.079030632972717
 10
0.9174136519432067
 20
-1.076457381248474
 10
0.9183538556098937
 20
-1.073976993560791
 10
0.9195001125335693
 20
-1.071455240249633
 10
0.9207189679145812
 20
-1.068773865699768
 10
0.9218867421150208
 20
-1.066204905509948
 10
0.9230843186378479
 20
-1.063570261001586
 10
0.9242324233055114
 20
-1.061044454574584
 10
0.9254036545753479
 20
-1.058467864990234
 10
0.9265232682228088
 20
-1.056004762649536
 10
0.9278745651245117
 20
-1.053768992424011
 10
0.9294623136520385
 20
-1.051314830780029
 10
0.9309173822402954
 20
-1.049065828323364
 10
0.9330109357833862
 20
-1.045829892158508
 10
0.9345604777336119
 20
-1.043434619903564
 10
0.9359762072563171
 20
-1.04124641418457
 10
0.9374746680259703
 20
-1.038930296897888
 10
0.9390166401863098
 20
-1.036757588386535
 10
0.9407461285591125
 20
-1.034664154052734
 10
0.9425929188728333
 20
-1.032428860664367
 10
0.9443655610084533
 20
-1.030283212661743
 10
0.9461861848831176
 20
-1.028079509735107
 10
0.9479342699050903
 20
-1.02596366405487
 10
0.9497211575508117
 20
-1.023800730705261
 10
0.9514386653900146
 20
-1.021721959114074
 10
0.9532680511474609
 20
-1.019884705543518
 10
0.9553743600845336
 20
-1.017873883247375
 10
0.9573100209236145
 20
-1.016026020050048
 10
0.96010023355484
 20
-1.013362407684326
 10
0.9621689319610595
 20
-1.011387586593627
 10
0.9640620946884155
 20
-1.009580254554748
 10
0.9660720229148864
 20
-1.007661461830139
 10
0.9681037068367004
 20
-1.005911350250244
 10
0.9703171253204345
 20
-1.004330396652221
 10
0.9726906418800354
 20
-1.00263512134552
 10
0.9749733209609985
 20
-1.001004695892333
 10
0.9773212075233459
 20
-0.9993277192115783
 10
0.9795788526535034
 20
-0.997715175151825
 10
0.9818914532661437
 20
-0.9960634112358093
 10
0.9839764237403869
 20
-0.9945742487907409
 10
0.9863440990447998
 20
-0.9931743144989013
 10
0.9888681769371032
 20
-0.9917933940887451
 10
0.9911941289901733
 20
-0.9905208945274353
 10
0.9945531487464904
 20
-0.9886831641197203
 10
0.9970478415489196
 20
-0.9873183369636535
 10
0.999334692955017
 20
-0.9860672354698181
 10
1.00176990032196
 20
-0.9847348928451538
 10
1.004174470901489
 20
-0.9835385680198669
 10
1.006684899330139
 20
-0.9825072884559631
 10
1.00938856601715
 20
-0.9813966751098632
 10
1.011993885040283
 20
-0.9803264141082763
 10
1.01467740535736
 20
-0.9792240262031555
 10
1.017261743545532
 20
-0.978162407875061
 10
1.019914269447326
 20
-0.9770727753639221
 10
1.022317171096801
 20
-0.9760857224464417
 10
1.02495789527893
 20
-0.9752988815307617
 10
1.027752757072448
 20
-0.9745885133743286
 10
1.030335545539855
 20
-0.9739320874214172
 10
1.034072518348693
 20
-0.9729822874069213
 10
1.036852478981018
 20
-0.9722757339477539
 10
1.039405107498168
 20
-0.9716269373893737
 10
1.042131543159484
 20
-0.970933973789215
 10
1.044779896736145
 20
-0.9703859090805053
 10
1.047448873519897
 20
-0.970074474811554
 10
1.050335884094238
 20
-0.9697375893592834
 10
1.053123235702514
 20
-0.9694123268127441
 10
1.055998563766479
 20
-0.9690768718719482
 10
1.058771610260009
 20
-0.9687532782554626
 10
1.061623811721801
 20
-0.9684205055236816
 10
1.06421947479248
 20
-0.9681175947189331
 10
1.067001938819885
 20
-0.9680222868919371
 10
1.069647192955017
 20
-0.9680222868919371
 10
1.07247257232666
 20
-0.9680222868919371
 10
1.075097918510437
 20
-0.9680222868919371
 10
1.075619101524353
 20
-0.970518946647644
 10
1.075619101524353
 20
-0.9731274247169494
 10
1.075619101524353
 20
-0.9760314226150512
 10
1.075619101524353
 20
-0.9793661236763
 10
1.075619101524353
 20
-0.9820801615715026
 10
1.075619101524353
 20
-0.9849226474761962
 10
1.075619101524353
 20
-0.9888281822204589
 10
1.075619101524353
 20
-0.9927597641944885
 10
1.075619101524353
 20
-0.995656132698059
 10
1.075619101524353
 20
-0.9984533190727233
 10
1.075619101524353
 20
-1.001102685928344
 10
1.075619101524353
 20
-1.004320979118347
 10
1.075619101524353
 20
-1.007074117660522
 10
1.075619101524353
 20
-1.009685516357421
 10
1.072270035743713
 20
-1.011457085609436
 10
1.069143414497375
 20
-1.011577367782592
 10
1.066036581993103
 20
-1.011773347854614
 10
1.062950491905212
 20
-1.012044072151184
 10
1.05988597869873
 20
-1.012388825416564
 10
1.056843996047973
 20
-1.01280665397644
 10
1.053825378417968
 20
-1.013296484947204
 10
1.050831198692321
 20
-1.01385760307312
 10
1.04786217212677
 20
-1.014488935470581
 10
1.044919252395629
 20
-1.01518976688385
 10
1.042003393173217
 20
-1.01595914363861
 10
1.03911542892456
 20
-1.016796112060546
 10
1.036256313323974
 20
-1.017699718475341
 10
1.033427000045776
 20
-1.018669128417968
 10
1.030628204345703
 20
-1.019703388214111
 10
1.02786111831665
 20
-1.020801782608032
 10
1.025126338005065
 20
-1.021963119506835
 10
1.022424936294555
 20
-1.023186802864074
 10
1.019757866859436
 20
-1.024471640586853
 10
1.017125844955444
 20
-1.025816917419433
 10
1.014529943466186
 20
-1.0272216796875
 10
1.011970996856689
 20
-1.028684973716735
 10
1.009449958801269
 20
-1.030205965042114
 10
1.006967544555664
 20
-1.031783699989318
 10
1.004524946212768
 20
-1.033417344093322
 10
1.00212287902832
 20
-1.035105943679809
 10
0.9997622966766357
 20
-1.036848545074462
 10
0.9974440932273864
 20
-1.038644313812255
 10
0.9951691627502441
 20
-1.040492415428161
 10
0.9929383993148803
 20
-1.042391896247863
 10
0.9907527565956115
 20
-1.044341683387756
 10
0.9886130690574645
 20
-1.046341180801391
 10
0.9865202903747557
 20
-1.048389196395874
 10
0.9844753146171569
 20
-1.050485014915466
 10
0.9824790358543395
 20
-1.052627682685852
 10
0.9805324077606201
 20
-1.054816246032714
 10
0.9786362051963806
 20
-1.057049751281738
 10
0.9767915010452271
 20
-1.059327483177185
 10
0.9749990701675415
 20
-1.061648488044738
 10
0.9732598066329956
 20
-1.064011812210083
 10
0.9715747237205505
 20
-1.066416501998901
 10
0.9699446558952332
 20
-1.068861722946166
 10
0.968370497226715
 20
-1.071346521377563
 10
0.9668531417846679
 20
-1.073870062828063
 10
0.9653935432434082
 20
-1.076431512832641
 10
0.9639925956726074
 20
-1.07902979850769
 10
0.9626511931419371
 20
-1.081664085388183
 10
0.9613701701164244
 20
-1.084333419799804
 10
0.9601505398750305
 20
-1.087036967277526
 10
0.9589931368827819
 20
-1.089773893356323
 10
0.9578989148139953
 20
-1.092543125152587
 10
0.9568687081336975
 20
-1.095343828201293
 10
0.9559034705162048
 20
-1.098175168037414
 10
0.9550040960311889
 20
-1.101036190986633
 10
0.9541714787483215
 20
-1.103926062583923
 10
0.9534065127372741
 20
-1.106843709945678
 10
0.9527101516723632
 20
-1.109788417816162
 10
0.9520832300186157
 20
-1.112759113311767
 10
0.9515267014503479
 20
-1.115754961967468
 10
0.9510414004325866
 20
-1.118775129318237
 10
0.9506283402442932
 20
-1.121818661689758
 10
0.9502882957458496
 20
-1.124884724617004
 10
0.950022280216217
 20
-1.127972245216369
 10
0.9498311877250671
 20
-1.131080389022827
 10
0.9497157931327819
 20
-1.134208440780639
  0
LWPOLYLINE
  5
9A
100
AcDbEntity
  8
LAYER_1
  6
ByLayer
 62
   12
100
AcDbPolyline
 90
  406
 70
    1
 43
0
 10
1.245305180549621
 20
-1.137355208396911
 10
1.245120048522949
 20
-1.140133142471313
 10
1.244940042495727
 20
-1.142833471298217
 10
1.244759798049926
 20
-1.145538449287414
 10
1.244505167007446
 20
-1.149360537528991
 10
1.244319796562194
 20
-1.15214192867279
 10
1.244128465652465
 20
-1.155014038085937
 10
1.243952751159667
 20
-1.157651782035827
 10
1.243560671806335
 20
-1.160344123840332
 10
1.243048071861267
 20
-1.163140296936035
 10
1.242570400238037
 20
-1.165746569633483
 10
1.241875171661376
 20
-1.169538974761962
 10
1.241355419158935
 20
-1.172374486923217
 10
1.240875840187072
 20
-1.174991130828857
 10
1.240413546562194
 20
-1.177513241767883
 10
1.23986530303955
 20
-1.180137157440185
 10
1.23904013633728
 20
-1.182612895965576
 10
1.238160967826843
 20
-1.185250282287597
 10
1.237142920494079
 20
-1.188304305076599
 10
1.23623239994049
 20
-1.191036105155944
 10
1.235350251197814
 20
-1.193682432174682
 10
1.234437584877014
 20
-1.196420550346374
 10
1.233595609664916
 20
-1.198946356773376
 10
1.232537746429443
 20
-1.201435089111328
 10
1.231332898139953
 20
-1.203983664512634
 10
1.230206489562988
 20
-1.206366300582885
 10
1.228564381599426
 20
-1.209839701652526
 10
1.22733461856842
 20
-1.212441205978393
 10
1.226197838783264
 20
-1.214845657348632
 10
1.225099325180053
 20
-1.217169284820556
 10
1.223973155021667
 20
-1.219464659690856
 10
1.222521901130676
 20
-1.22177767753601
 10
1.221047043800354
 20
-1.224128246307373
 10
1.219335317611694
 20
-1.226856231689453
 10
1.217801809310913
 20
-1.229300379753112
 10
1.216313958168029
 20
-1.231671452522277
 10
1.214771628379821
 20
-1.234129667282104
 10
1.213342547416687
 20
-1.236407279968261
 10
1.211741685867309
 20
-1.238533616065979
 10
1.209990739822387
 20
-1.240653038024902
 10
1.208348989486694
 20
-1.242640256881713
 10
1.20595097541809
 20
-1.245542764663696
 10
1.204151988029479
 20
-1.24772036075592
 10
1.202486395835876
 20
-1.249736309051513
 10
1.200681567192077
 20
-1.251920819282531
 10
1.19900894165039
 20
-1.253834009170532
 10
1.196993470191955
 20
-1.255758166313171
 10
1.194913029670715
 20
-1.257744193077087
 10
1.192884087562561
 20
-1.259681105613708
 10
1.190775632858276
 20
-1.261693954467773
 10
1.188727140426635
 20
-1.263649463653564
 10
1.186878323554992
 20
-1.265414476394653
 10
1.184964656829833
 20
-1.267241239547729
 10
1.182943224906921
 20
-1.268935680389404
 10
1.180599451065063
 20
-1.270609736442565
 10
1.178166270256042
 20
-1.272347688674926
 10
1.175076723098754
 20
-1.274554371833801
 10
1.172755002975463
 20
-1.276212692260742
 10
1.170602083206176
 20
-1.277750372886657
 10
1.168510913848876
 20
-1.279244065284729
 10
1.16638970375061
 20
-1.280717849731445
 10
1.164036512374877
 20
-1.282005310058593
 10
1.161613345146179
 20
-1.283331036567687
 10
1.158787846565246
 20
-1.284876823425292
 10
1.156248331069946
 20
-1.286266207695007
 10
1.153777480125427
 20
-1.287618041038513
 10
1.151543378829956
 20
-1.288840293884277
 10
1.149223327636718
 20
-1.290109515190124
 10
1.14684784412384
 20
-1.291260600090026
 10
1.144187450408935
 20
-1.292353391647338
 10
1.141836166381835
 20
-1.293319344520568
 10
1.137886762619018
 20
-1.294941663742065
 10
1.135231137275695
 20
-1.296032547950744
 10
1.1327645778656
 20
-1.297045826911926
 10
1.13036286830902
 20
-1.298032402992248
 10
1.127923250198364
 20
-1.298993945121765
 10
1.125332355499267
 20
-1.299652576446533
 10
1.122646212577819
 20
-1.30033528804779
 10
1.119506955146789
 20
-1.301133275032043
 10
1.11668062210083
 20
-1.301851749420166
 10
1.113926649093627
 20
-1.302551746368408
 10
1.111432313919067
 20
-1.303185820579528
 10
1.10883343219757
 20
-1.303846359252929
 10
1.106231927871704
 20
-1.304351210594177
 10
1.103400826454162
 20
-1.304681539535522
 10
1.100438833236694
 20
-1.30502712726593
 10
1.096661925315856
 20
-1.305467724800109
 10
1.093814253807067
 20
-1.305799961090087
 10
1.091164946556091
 20
-1.306109070777893
 10
1.088578820228576
 20
-1.306410789489746
 10
1.086013793945312
 20
-1.306688070297241
 10
1.083197712898254
 20
-1.306688070297241
 10
1.080384254455566
 20
-1.306688070297241
 10
1.077709913253784
 20
-1.306688070297241
 10
1.075619101524353
 20
-1.305072903633117
 10
1.075619101524353
 20
-1.302517771720886
 10
1.075619101524353
 20
-1.299800753593444
 10
1.075619101524353
 20
-1.297031283378601
 10
1.075619101524353
 20
-1.294427990913391
 10
1.075619101524353
 20
-1.291664242744445
 10
1.075619101524353
 20
-1.288788795471191
 10
1.075619101524353
 20
-1.284865498542785
 10
1.075619101524353
 20
-1.280945897102355
 10
1.075619101524353
 20
-1.278078198432922
 10
1.075619101524353
 20
-1.275326371192932
 10
1.075619101524353
 20
-1.272739052772521
 10
1.075619101524353
 20
-1.269993782043457
 10
1.075619101524353
 20
-1.267311215400695
 10
1.075619101524353
 20
-1.264619469642639
 10
1.07906949520111
 20
-1.263250708580017
 10
1.082195520401
 20
-1.263127923011779
 10
1.085301756858825
 20
-1.262929558753967
 10
1.088387250900268
 20
-1.262656331062316
 10
1.091451168060302
 20
-1.262309193611145
 10
1.094492435455322
 20
-1.261889100074768
 10
1.097510337829589
 20
-1.261396884918212
 10
1.100503802299499
 20
-1.260833501815795
 10
1.103472113609313
 20
-1.260199785232543
 10
1.106414198875427
 20
-1.259496688842773
 10
1.109329223632812
 20
-1.2587251663208
 10
1.112216234207153
 20
-1.257886052131652
 10
1.115074396133422
 20
-1.256980299949645
 10
1.117902874946594
 20
-1.256008744239807
 10
1.120700597763061
 20
-1.254972338676452
 10
1.123466730117797
 20
-1.253871917724609
 10
1.126200437545776
 20
-1.252708435058593
 10
1.12890076637268
 20
-1.251482844352722
 10
1.131566762924194
 20
-1.250195980072021
 10
1.13419759273529
 20
-1.248848676681518
 10
1.136792302131652
 20
-1.247442007064819
 10
1.139350056648254
 20
-1.24597680568695
 10
1.141869902610778
 20
-1.244453907012939
 10
1.144351005554199
 20
-1.242874383926391
 10
1.146792292594909
 20
-1.241238951683044
 10
1.149193048477172
 20
-1.239548563957214
 10
1.151552319526672
 20
-1.237804174423217
 10
1.153869152069091
 20
-1.236006617546081
 10
1.156142592430114
 20
-1.234156847000122
 10
1.158371925354003
 20
-1.232255697250366
 10
1.160556077957153
 20
-1.230304241180419
 10
1.162694215774536
 20
-1.22830319404602
 10
1.164785385131835
 20
-1.226253509521484
 10
1.166828870773315
 20
-1.224156260490417
 10
1.168823480606079
 20
-1.222012042999267
 10
1.170768499374389
 20
-1.21982204914093
 10
1.17266297340393
 20
-1.217586874961853
 10
1.174506068229675
 20
-1.215307831764221
 10
1.176296710968017
 20
-1.212985396385192
 10
1.17803418636322
 20
-1.210620760917663
 10
1.179717540740966
 20
-1.20821475982666
 10
1.181345701217651
 20
-1.205768227577209
 10
1.182918071746826
 20
-1.203282117843627
 10
1.184433460235595
 20
-1.200757265090942
 10
1.185891151428222
 20
-1.198194742202758
 10
1.18729019165039
 20
-1.195595264434814
 10
1.188629627227783
 20
-1.192959904670715
 10
1.189908623695373
 20
-1.190289378166198
 10
1.191126227378845
 20
-1.18758475780487
 10
1.192281603813171
 20
-1.184846878051757
 10
1.193373799324035
 20
-1.182076573371887
 10
1.194401860237121
 20
-1.179274797439575
 10
1.195364952087402
 20
-1.176442623138427
 10
1.196262121200561
 20
-1.173580646514892
 10
1.197092652320861
 20
-1.170689940452575
 10
1.197855353355407
 20
-1.167771458625793
 10
1.198549509048461
 20
-1.164825916290283
 10
1.199174165725708
 20
-1.16185450553894
 10
1.199728369712829
 20
-1.158857822418212
 10
1.200211286544799
 20
-1.155836939811706
 10
1.200621962547302
 20
-1.152792692184448
 10
1.200959682464599
 20
-1.149726152420043
 10
1.201223254203796
 20
-1.146637916564941
 10
1.201411962509155
 20
-1.143529176712036
 10
1.201524853706359
 20
-1.140400648117065
 10
1.201560735702514
 20
-1.137647867202758
 10
1.198938250541687
 20
-1.137355208396911
 10
1.19633662700653
 20
-1.137355208396911
 10
1.193111062049865
 20
-1.137355208396911
 10
1.190204739570617
 20
-1.137355208396911
 10
1.187110424041748
 20
-1.137355208396911
 10
1.183922171592712
 20
-1.137355208396911
 10
1.180733799934387
 20
-1.137355208396911
 10
1.177639484405517
 20
-1.137355208396911
 10
1.174733161926269
 20
-1.137355208396911
 10
1.172108650207519
 20
-1.137355208396911
 10
1.169367551803588
 20
-1.137355208396911
 10
1.16675853729248
 20
-1.137355208396911
 10
1.166223526000976
 20
-1.140679597854614
 10
1.166040420532226
 20
-1.144045710563659
 10
1.165736198425292
 20
-1.147377967834472
 10
1.165313005447387
 20
-1.15067446231842
 10
1.164772987365722
 20
-1.153932690620422
 10
1.164118289947509
 20
-1.157150626182556
 10
1.16335117816925
 20
-1.160326123237609
 10
1.162473678588867
 20
-1.163456916809082
 10
1.16148817539215
 20
-1.16654086112976
 10
1.160396814346313
 20
-1.169575810432434
 10
1.159201622009277
 20
-1.1725594997406
 10
1.157904982566833
 20
-1.175489783287048
 10
1.156508922576904
 20
-1.178364515304565
 10
1.155015707015991
 20
-1.18118143081665
 10
1.153427362442016
 20
-1.18393850326538
 10
1.151746273040771
 20
-1.186633348464965
 10
1.149974584579467
 20
-1.189263939857482
 10
1.148114323616027
 20
-1.19182813167572
 10
1.146167874336242
 20
-1.194323539733886
 10
1.144137263298034
 20
-1.196748256683349
 10
1.142024755477905
 20
-1.199099898338317
 10
1.139832377433776
 20
-1.201376318931579
 10
1.13756251335144
 20
-1.203575372695922
 10
1.135217308998107
 20
-1.205694794654846
 10
1.132798910140991
 20
-1.207732558250427
 10
1.130309462547302
 20
-1.209686398506164
 10
1.127751111984252
 20
-1.211554050445556
 10
1.125126123428344
 20
-1.213333487510681
 10
1.122436642646789
 20
-1.215022563934326
 10
1.119684815406799
 20
-1.2166188955307
 10
1.116873025894165
 20
-1.218120336532592
 10
1.114003181457519
 20
-1.21952486038208
 10
1.111077547073364
 20
-1.220830202102661
 10
1.1080983877182
 20
-1.222034215927124
 10
1.105067729949951
 20
-1.223134636878967
 10
1.101987957954406
 20
-1.224129319190979
 10
1.098861098289489
 20
-1.225016117095947
 10
1.095689415931701
 20
-1.22579276561737
 10
1.092475056648254
 20
-1.226457238197326
 10
1.089220166206359
 20
-1.227007150650024
 10
1.085926890373229
 20
-1.227440595626831
 10
1.082597613334655
 20
-1.227755069732666
 10
1.07923424243927
 20
-1.227948665618896
 10
1.075839161872863
 20
-1.22801911830902
 10
1.075619101524353
 20
-1.225403904914855
 10
1.075619101524353
 20
-1.222633719444274
 10
1.075619101524353
 20
-1.219534993171691
 10
1.075619101524353
 20
-1.216469883918762
 10
1.075619101524353
 20
-1.213716983795166
 10
1.075619101524353
 20
-1.210708379745483
 10
1.075619101524353
 20
-1.207454919815063
 10
1.075619101524353
 20
-1.204860687255859
 10
1.075619101524353
 20
-1.202139258384704
 10
1.075619101524353
 20
-1.199295401573181
 10
1.075619101524353
 20
-1.196333646774291
 10
1.075619101524353
 20
-1.19325840473175
 10
1.075619101524353
 20
-1.190074443817138
 10
1.075619101524353
 20
-1.186786174774169
 10
1.075619101524353
 20
-1.183398246765136
 10
1.075619101524353
 20
-1.179915070533752
 10
1.075619101524353
 20
-1.176341414451599
 10
1.075619101524353
 20
-1.172681808471679
 10
1.075619101524353
 20
-1.168940782546997
 10
1.075619101524353
 20
-1.165122747421264
 10
1.075619101524353
 20
-1.162536978721618
 10
1.075619101524353
 20
-1.159920454025268
 10
1.075619101524353
 20
-1.155941009521484
 10
1.075619101524353
 20
-1.153253436088562
 10
1.075619101524353
 20
-1.150539755821228
 10
1.075619101524353
 20
-1.147801518440246
 10
1.075619101524353
 20
-1.145039796829223
 10
1.075619101524353
 20
-1.142256140708923
 10
1.075619101524353
 20
-1.13945186138153
 10
1.075619101524353
 20
-1.13662838935852
 10
1.075619101524353
 20
-1.133786797523498
 10
1.075619101524353
 20
-1.130928754806518
 10
1.075619101524353
 20
-1.128055453300476
 10
1.075619101524353
 20
-1.125168323516845
 10
1.075619101524353
 20
-1.122268557548522
 10
1.075619101524353
 20
-1.119357705116271
 10
1.075619101524353
 20
-1.116437077522277
 10
1.075619101524353
 20
-1.113507866859436
 10
1.075619101524353
 20
-1.11057162284851
 10
1.075619101524353
 20
-1.10468316078186
 10
1.075619101524353
 20
-1.098782539367675
 10
1.075619101524353
 20
-1.092880487442016
 10
1.075619101524353
 20
-1.086987853050231
 10
1.075619101524353
 20
-1.08111548423767
 10
1.075619101524353
 20
-1.078190207481384
 10
1.075619101524353
 20
-1.075274109840393
 10
1.075619101524353
 20
-1.072368502616882
 10
1.075619101524353
 20
-1.069474697113037
 10
1.075619101524353
 20
-1.066594123840332
 10
1.075619101524353
 20
-1.063727974891662
 10
1.075619101524353
 20
-1.060877799987792
 10
1.075619101524353
 20
-1.058044791221618
 10
1.075619101524353
 20
-1.055230379104614
 10
1.075619101524353
 20
-1.052435874938964
 10
1.075619101524353
 20
-1.049662709236145
 10
1.075619101524353
 20
-1.046912193298339
 10
1.075619101524353
 20
-1.044185638427734
 10
1.075619101524353
 20
-1.041484475135803
 10
1.075619101524353
 20
-1.038810014724731
 10
1.075619101524353
 20
-1.036163568496704
 10
1.075619101524353
 20
-1.033546566963195
 10
1.075619101524353
 20
-1.030960321426391
 10
1.075619101524353
 20
-1.028406143188476
 10
1.075619101524353
 20
-1.024638175964355
 10
1.075619101524353
 20
-1.020949959754943
 10
1.075619101524353
 20
-1.017346262931823
 10
1.075619101524353
 20
-1.013831496238708
 10
1.075619101524353
 20
-1.010410189628601
 10
1.075619101524353
 20
-1.007087111473083
 10
1.075619101524353
 20
-1.003866791725158
 10
1.075619101524353
 20
-1.00075364112854
 10
1.075619101524353
 20
-0.9977522492408752
 10
1.075619101524353
 20
-0.9948672652244567
 10
1.075619101524353
 20
-0.9921032786369323
 10
1.075619101524353
 20
-0.98946475982666
 10
1.075619101524353
 20
-0.9861499071121215
 10
1.075619101524353
 20
-0.983077049255371
 10
1.075619101524353
 20
-0.9802571535110473
 10
1.075619101524353
 20
-0.9777008891105651
 10
1.075619101524353
 20
-0.9748929142951965
 10
1.075619101524353
 20
-0.9721193313598632
 10
1.075619101524353
 20
-0.969492495059967
 10
1.077709913253784
 20
-0.9680222868919371
 10
1.080384254455566
 20
-0.9680222868919371
 10
1.083197712898254
 20
-0.9680222868919371
 10
1.085750699043273
 20
-0.9680222868919371
 10
1.088578820228576
 20
-0.9682996273040771
 10
1.091164946556091
 20
-0.9686013460159301
 10
1.093814253807067
 20
-0.9689104557037354
 10
1.096661925315856
 20
-0.9692426919937133
 10
1.099517822265625
 20
-0.9695758819580078
 10
1.102191686630249
 20
-0.9698878526687622
 10
1.104827165603637
 20
-0.9701953530311584
 10
1.107360959053039
 20
-0.9704909324645996
 10
1.110005855560302
 20
-0.9711620211601257
 10
1.112635374069213
 20
-0.9718304276466369
 10
1.115745306015014
 20
-0.9726209640502929
 10
1.118568301200866
 20
-0.9733384847640991
 10
1.121338963508605
 20
-0.9740427732467651
 10
1.123870253562927
 20
-0.9746862053871154
 10
1.126549482345581
 20
-0.975367248058319
 10
1.129109025001525
 20
-0.9761629104614257
 10
1.131657719612121
 20
-0.9772099256515502
 10
1.134379148483276
 20
-0.9783278703689575
 10
1.136991500854492
 20
-0.9794009923934937
 10
1.139674425125122
 20
-0.9805031418800354
 10
1.142250537872314
 20
-0.9815613031387329
 10
1.144883871078491
 20
-0.9826430678367614
 10
1.147246599197387
 20
-0.9836136698722839
 10
1.149714112281799
 20
-0.984869360923767
 10
1.152251362800598
 20
-0.9862574934959411
 10
1.154583096504211
 20
-0.987533152103424
 10
1.157944083213806
 20
-0.9893720149993896
 10
1.160436034202575
 20
-0.990735352039337
 10
1.162716627120971
 20
-0.9919829964637756
 10
1.165137767791748
 20
-0.9933076500892639
 10
1.167423963546752
 20
-0.9946901202201843
 10
1.169637441635131
 20
-0.996271014213562
 10
1.172010898590087
 20
-0.9979662895202636
 10
1.174293637275695
 20
-0.9995967149734497
 10
1.176641464233398
 20
-1.00127375125885
 10
1.1788991689682
 20
-1.002886176109313
 10
1.181211709976196
 20
-1.004537940025329
 10
1.183296680450439
 20
-1.006027221679687
 10
1.185368537902832
 20
-1.007854580879211
 10
1.187463760375976
 20
-1.009854912757873
 10
1.18939471244812
 20
-1.011698246002197
 10
1.192183256149291
 20
-1.014360189437866
 10
1.194254159927368
 20
-1.016337275505065
 10
1.196152567863464
 20
-1.018149495124816
 10
1.198174238204956
 20
-1.020079493522644
 10
1.200037717819213
 20
-1.022010207176208
 10
1.201741337776184
 20
-1.024072289466857
 10
1.20357596874237
 20
-1.026292920112609
 10
1.205343842506408
 20
-1.028432846069335
 10
1.207164883613586
 20
-1.030637025833129
 10
1.208918571472167
 20
-1.032759666442871
 10
1.210718631744384
 20
-1.03493845462799
 10
1.21234917640686
 20
-1.036911964416503
 10
1.213881969451904
 20
-1.039162874221801
 10
1.215397715568542
 20
-1.041578650474548
 10
1.216798543930053
 20
-1.043811202049255
 10
1.218825340270996
 20
-1.047041296958923
 10
1.220333099365234
 20
-1.049444317817687
 10
1.221717476844787
 20
-1.051650762557983
 10
1.223196268081665
 20
-1.054007411003112
 10
1.224533438682556
 20
-1.056344151496887
 10
1.225690126419067
 20
-1.058790922164916
 10
1.226941227912902
 20
-1.061437249183654
 10
1.22814917564392
 20
-1.063992381095886
 10
1.229395270347595
 20
-1.066628217697143
 10
1.230597019195556
 20
-1.069170236587524
 10
1.231833100318908
 20
-1.071784734725952
 10
1.232957959175109
 20
-1.074164152145385
 10
1.233912587165832
 20
-1.076715111732482
 10
1.234807848930358
 20
-1.079400539398193
 10
1.235637426376342
 20
-1.081889390945434
 10
1.236840009689331
 20
-1.085497140884399
 10
1.237736105918884
 20
-1.088185548782348
 10
1.238560318946838
 20
-1.09065818786621
 10
1.239443302154541
 20
-1.093307018280029
 10
1.240176558494567
 20
-1.095904111862182
 10
1.240661978721618
 20
-1.098552584648132
 10
1.241189360618591
 20
-1.101429939270019
 10
1.241699695587158
 20
-1.104213714599609
 10
1.242226839065551
 20
-1.107089400291442
 10
1.242735862731933
 20
-1.109866976737976
 10
1.243260622024536
 20
-1.112729430198669
 10
1.243740320205688
 20
-1.115346550941467
 10
1.244018673896789
 20
-1.118049144744873
 10
1.244206070899963
 20
-1.120860576629638
 10
1.244380116462707
 20
-1.123473525047302
 10
1.244632959365844
 20
-1.127268195152282
 10
1.244821786880493
 20
-1.130100727081298
 10
1.244995594024658
 20
-1.132710337638854
  0
ENDSEC
  0
SECTION
  2
OBJECTS
  0
DICTIONARY
  5
C
100
AcDbDictionary
281
    1
  3
ACAD_GROUP
350
D
  0
DICTIONARY
  5
D
330
C
100
AcDbDictionary
281
    1
  0
ENDSEC
  0
EOF
