999
dxfrw 0.6.3
  0
SECTION
  2
HEADER
  9
$ACADVER
  1
AC1014
  9
$DWGCODEPAGE
  3
ANSI_950
  9
$INSBASE
 10
0
 20
0
 30
0
  9
$EXTMIN
 10
0.1514195203781128
 20
-1.476991653442382
 30
0
  9
$EXTMAX
 10
2.130477905273437
 20
-0.0403907299041748
 30
0
  9
$LIMMIN
 10
0
 20
0
  9
$LIMMAX
 10
12
 20
9
  9
$ORTHOMODE
 70
    0
  9
$REGENMODE
 70
    1
  9
$FILLMODE
 70
    1
  9
$QTEXTMODE
 70
    0
  9
$MIRRTEXT
 70
    1
  9
$LTSCALE
 40
1
  9
$ATTMODE
 70
    1
  9
$TEXTSIZE
 40
0.2
  9
$TRACEWID
 40
0.05
  9
$TEXTSTYLE
  7
Standard
  9
$CLAYER
  8
LAYER_1
  9
$CELTYPE
  6
ByLayer
  9
$CECOLOR
 62
  256
  9
$CELTSCALE
 40
1
  9
$DISPSILH
 70
    0
  9
$DIMSCALE
 40
1
  9
$DIMASZ
 40
0.18
  9
$DIMEXO
 40
0.0625
  9
$DIMDLI
 40
0.38
  9
$DIMRND
 40
0
  9
$DIMDLE
 40
0
  9
$DIMEXE
 40
0.18
  9
$DIMTP
 40
0
  9
$DIMTM
 40
0
  9
$DIMTXT
 40
0.18
  9
$DIMCEN
 40
0.09
  9
$DIMTSZ
 40
0
  9
$DIMTOL
 70
    0
  9
$DIMLIM
 70
    0
  9
$DIMTIH
 70
    1
  9
$DIMTOH
 70
    1
  9
$DIMSE1
 70
    0
  9
$DIMSE2
 70
    0
  9
$DIMTAD
 70
    0
  9
$DIMZIN
 70
    0
  9
$DIMBLK
  1

  9
$DIMASO
 70
    1
  9
$DIMSHO
 70
    1
  9
$DIMPOST
  1

  9
$DIMAPOST
  1

  9
$DIMALT
 70
    0
  9
$DIMALTD
 70
    2
  9
$DIMALTF
 40
25.4
  9
$DIMLFAC
 40
1
  9
$DIMTOFL
 70
    0
  9
$DIMTVP
 40
0
  9
$DIMTIX
 70
    0
  9
$DIMSOXD
 70
    0
  9
$DIMSAH
 70
    0
  9
$DIMBLK1
  1

  9
$DIMBLK2
  1

  9
$DIMSTYLE
  2
Standard
  9
$DIMCLRD
 70
    0
  9
$DIMCLRE
 70
    0
  9
$DIMCLRT
 70
    0
  9
$DIMTFAC
 40
1
  9
$DIMGAP
 40
0.09
  9
$DIMJUST
 70
    0
  9
$DIMSD1
 70
    0
  9
$DIMSD2
 70
    0
  9
$DIMTOLJ
 70
    1
  9
$DIMTZIN
 70
    0
  9
$DIMALTZ
 70
    0
  9
$DIMALTTZ
 70
    0
  9
$DIMUPT
 70
    0
  9
$DIMDEC
 70
    4
  9
$DIMTDEC
 70
    4
  9
$DIMALTU
 70
    2
  9
$DIMALTTD
 70
    2
  9
$DIMTXSTY
  7
Standard
  9
$DIMAUNIT
 70
    0
  9
$DIMADEC
 70
    0
  9
$DIMALTRND
 40
0
  9
$DIMAZIN
 70
    0
  9
$DIMDSEP
 70
   46
  9
$DIMATFIT
 70
    3
  9
$DIMFRAC
 70
    0
  9
$DIMLDRBLK
  1

  9
$DIMUNIT
 70
    2
  9
$DIMLWD
 70
   -2
  9
$DIMLWE
 70
   -2
  9
$DIMTMOVE
 70
    0
  9
$LUNITS
 70
    2
  9
$LUPREC
 70
    4
  9
$SKETCHINC
 40
0.1
  9
$FILLETRAD
 40
0.5
  9
$AUNITS
 70
    0
  9
$AUPREC
 70
    0
  9
$MENU
  1
.
  9
$ELEVATION
 40
0
  9
$PELEVATION
 40
0
  9
$THICKNESS
 40
0
  9
$LIMCHECK
 70
    0
  9
$BLIPMODE
 70
    0
  9
$CHAMFERA
 40
0.5
  9
$CHAMFERB
 40
0.5
  9
$CHAMFERC
 40
1
  9
$CHAMFERD
 40
0
  9
$SKPOLY
 70
    0
  9
$USRTIMER
 70
    1
  9
$ANGBASE
 50
0
  9
$ANGDIR
 70
    0
  9
$PDMODE
 70
    0
  9
$PDSIZE
 40
0
  9
$PLINEWID
 40
0
  9
$SPLFRAME
 70
    0
  9
$SPLINETYPE
 70
    6
  9
$SPLINESEGS
 70
    8
  9
$HANDSEED
  5
20000
  9
$SURFTAB1
 70
    6
  9
$SURFTAB2
 70
    6
  9
$SURFTYPE
 70
    6
  9
$SURFU
 70
    6
  9
$SURFV
 70
    6
  9
$UCSBASE
  2

  9
$UCSNAME
  2

  9
$UCSORG
 10
0
 20
0
 30
0
  9
$UCSXDIR
 10
1
 20
0
 30
0
  9
$UCSYDIR
 10
0
 20
1
 30
0
  9
$UCSORTHOREF
  2

  9
$UCSORTHOVIEW
 70
    0
  9
$UCSORGTOP
 10
0
 20
0
 30
0
  9
$UCSORGBOTTOM
 10
0
 20
0
 30
0
  9
$UCSORGLEFT
 10
0
 20
0
 30
0
  9
$UCSORGRIGHT
 10
0
 20
0
 30
0
  9
$UCSORGFRONT
 10
0
 20
0
 30
0
  9
$UCSORGBACK
 10
0
 20
0
 30
0
  9
$PUCSBASE
  2

  9
$PUCSNAME
  2

  9
$PUCSORG
 10
0
 20
0
 30
0
  9
$PUCSXDIR
 10
1
 20
0
 30
0
  9
$PUCSYDIR
 10
0
 20
1
 30
0
  9
$PUCSORTHOREF
  2

  9
$PUCSORTHOVIEW
 70
    0
  9
$PUCSORGTOP
 10
0
 20
0
 30
0
  9
$PUCSORGBOTTOM
 10
0
 20
0
 30
0
  9
$PUCSORGLEFT
 10
0
 20
0
 30
0
  9
$PUCSORGRIGHT
 10
0
 20
0
 30
0
  9
$PUCSORGFRONT
 10
0
 20
0
 30
0
  9
$PUCSORGBACK
 10
0
 20
0
 30
0
  9
$USERI1
 70
    0
  9
$USERI2
 70
    0
  9
$USERI3
 70
    0
  9
$USERI4
 70
    0
  9
$USERI5
 70
    0
  9
$USERR1
 40
0
  9
$USERR2
 40
0
  9
$USERR3
 40
0
  9
$USERR4
 40
0
  9
$USERR5
 40
0
  9
$WORLDVIEW
 70
    1
  9
$SHADEDGE
 70
    3
  9
$SHADEDIF
 70
   70
  9
$TILEMODE
 70
    1
  9
$MAXACTVP
 70
   64
  9
$PINSBASE
 10
0
 20
0
 30
0
  9
$PLIMCHECK
 70
    0
  9
$PEXTMIN
 10
1e+020
 20
1e+020
 30
1e+020
  9
$PEXTMAX
 10
-1e+020
 20
-1e+020
 30
-1e+020
  9
$GRIDMODE
 70
    0
  9
$SNAPSTYLE
 70
    0
  9
$PLIMMIN
 10
0
 20
0
  9
$PLIMMAX
 10
12
 20
9
  9
$UNITMODE
 70
    0
  9
$VISRETAIN
 70
    1
  9
$PLINEGEN
 70
    0
  9
$PSLTSCALE
 70
    1
  9
$TREEDEPTH
 70
 3020
  9
$CMLSTYLE
  2
Standard
  9
$CMLJUST
 70
    0
  9
$CMLSCALE
 40
1
  9
$PROXYGRAPHICS
 70
    1
  9
$MEASUREMENT
 70
    1
  9
$CELWEIGHT
370
   -1
  9
$ENDCAPS
280
    0
  9
$JOINSTYLE
280
    0
  9
$LWDISPLAY
290
    0
  9
$HYPERLINKBASE
  1

  9
$STYLESHEET
  1

  9
$XEDIT
290
    1
  9
$CEPSNTYPE
380
    0
  9
$PSTYLEMODE
290
    1
  9
$EXTNAMES
290
    1
  9
$PSVPSCALE
 40
0
  9
$OLESTARTUP
290
    0
  0
ENDSEC
  0
SECTION
  2
CLASSES
  0
ENDSEC
  0
SECTION
  2
TABLES
  0
TABLE
  2
VPORT
  5
8
100
AcDbSymbolTable
 70
    1
  0
VPORT
  5
31
330
2
100
AcDbSymbolTableRecord
100
AcDbViewportTableRecord
  2
*ACTIVE
 70
    0
 10
0
 20
0
 11
1
 21
1
 12
1.344335241045544
 22
0.1564665719981749
 13
0
 23
0
 14
10
 24
10
 15
10
 25
10
 16
0
 26
0
 36
1
 17
0
 27
0
 37
0
 40
2.707829654172497
 41
1.870283018867924
 42
50
 43
0
 44
0
 50
0
 51
0
 71
    0
 72
  100
 73
    1
 74
    3
 75
    0
 76
    0
 77
    0
 78
    0
  0
ENDTAB
  0
TABLE
  2
LTYPE
  5
5
100
AcDbSymbolTable
 70
    4
  0
LTYPE
  5
14
100
AcDbSymbolTableRecord
100
AcDbLinetypeTableRecord
  2
ByBlock
 70
    0
  3

 72
   65
 73
    0
 40
0
  0
LTYPE
  5
15
100
AcDbSymbolTableRecord
100
AcDbLinetypeTableRecord
  2
ByLayer
 70
    0
  3

 72
   65
 73
    0
 40
0
  0
LTYPE
  5
16
100
AcDbSymbolTableRecord
100
AcDbLinetypeTableRecord
  2
Continuous
 70
    0
  3
Solid line
 72
   65
 73
    0
 40
0
  0
LTYPE
  5
32
330
5
100
AcDbSymbolTableRecord
100
AcDbLinetypeTableRecord
  2
DOT
 70
    0
  3
Dot . . . . . . . . . . . . . . . . . . . . . .
 72
   65
 73
    2
 40
6.35
 49
0
 74
    0
 49
-6.35
 74
    0
  0
LTYPE
  5
33
330
5
100
AcDbSymbolTableRecord
100
AcDbLinetypeTableRecord
  2
DOTTINY
 70
    0
  3
Dot (.15x) .....................................
 72
   65
 73
    2
 40
0.9525
 49
0
 74
    0
 49
-0.9525
 74
    0
  0
LTYPE
  5
34
330
5
100
AcDbSymbolTableRecord
100
AcDbLinetypeTableRecord
  2
DOT2
 70
    0
  3
Dot (.5x) .....................................
 72
   65
 73
    2
 40
3.175
 49
0
 74
    0
 49
-3.175
 74
    0
  0
LTYPE
  5
35
330
5
100
AcDbSymbolTableRecord
100
AcDbLinetypeTableRecord
  2
DOTX2
 70
    0
  3
Dot (2x) .  .  .  .  .  .  .  .  .  .  .  .  .
 72
   65
 73
    2
 40
12.7
 49
0
 74
    0
 49
-12.7
 74
    0
  0
LTYPE
  5
36
330
5
100
AcDbSymbolTableRecord
100
AcDbLinetypeTableRecord
  2
DASHED
 70
    0
  3
Dashed _ _ _ _ _ _ _ _ _ _ _ _ _ _ _ _ _
 72
   65
 73
    2
 40
19.05
 49
12.7
 74
    0
 49
-6.35
 74
    0
  0
LTYPE
  5
37
330
5
100
AcDbSymbolTableRecord
100
AcDbLinetypeTableRecord
  2
DASHEDTINY
 70
    0
  3
Dashed (.15x) _ _ _ _ _ _ _ _ _ _ _ _ _ _ _ _ _
 72
   65
 73
    2
 40
2.8575
 49
1.905
 74
    0
 49
-0.9525
 74
    0
  0
LTYPE
  5
38
330
5
100
AcDbSymbolTableRecord
100
AcDbLinetypeTableRecord
  2
DASHED2
 70
    0
  3
Dashed (.5x) _ _ _ _ _ _ _ _ _ _ _ _ _ _ _ _ _
 72
   65
 73
    2
 40
9.524999999999999
 49
6.35
 74
    0
 49
-3.175
 74
    0
  0
LTYPE
  5
39
330
5
100
AcDbSymbolTableRecord
100
AcDbLinetypeTableRecord
  2
DASHEDX2
 70
    0
  3
Dashed (2x) ____  ____  ____  ____  ____  ___
 72
   65
 73
    2
 40
38.09999999999999
 49
25.4
 74
    0
 49
-12.7
 74
    0
  0
LTYPE
  5
3A
330
5
100
AcDbSymbolTableRecord
100
AcDbLinetypeTableRecord
  2
DASHDOT
 70
    0
  3
Dash dot __ . __ . __ . __ . __ . __ . __ . __
 72
   65
 73
    4
 40
25.4
 49
12.7
 74
    0
 49
-6.35
 74
    0
 49
0
 74
    0
 49
-6.35
 74
    0
  0
LTYPE
  5
3B
330
5
100
AcDbSymbolTableRecord
100
AcDbLinetypeTableRecord
  2
DASHDOTTINY
 70
    0
  3
Dash dot (.15x) _._._._._._._._._._._._._._._.
 72
   65
 73
    4
 40
3.81
 49
1.905
 74
    0
 49
-0.9525
 74
    0
 49
0
 74
    0
 49
-0.9525
 74
    0
  0
LTYPE
  5
3C
330
5
100
AcDbSymbolTableRecord
100
AcDbLinetypeTableRecord
  2
DASHDOT2
 70
    0
  3
Dash dot (.5x) _._._._._._._._._._._._._._._.
 72
   65
 73
    4
 40
12.7
 49
6.35
 74
    0
 49
-3.175
 74
    0
 49
0
 74
    0
 49
-3.175
 74
    0
  0
LTYPE
  5
3D
330
5
100
AcDbSymbolTableRecord
100
AcDbLinetypeTableRecord
  2
DASHDOTX2
 70
    0
  3
Dash dot (2x) ____  .  ____  .  ____  .  ___
 72
   65
 73
    4
 40
50.8
 49
25.4
 74
    0
 49
-12.7
 74
    0
 49
0
 74
    0
 49
-12.7
 74
    0
  0
LTYPE
  5
3E
330
5
100
AcDbSymbolTableRecord
100
AcDbLinetypeTableRecord
  2
DIVIDE
 70
    0
  3
Divide ____ . . ____ . . ____ . . ____ . . ____
 72
   65
 73
    6
 40
31.75
 49
12.7
 74
    0
 49
-6.35
 74
    0
 49
0
 74
    0
 49
-6.35
 74
    0
 49
0
 74
    0
 49
-6.35
 74
    0
  0
LTYPE
  5
3F
330
5
100
AcDbSymbolTableRecord
100
AcDbLinetypeTableRecord
  2
DIVIDETINY
 70
    0
  3
Divide (.15x) __..__..__..__..__..__..__..__.._
 72
   65
 73
    6
 40
4.7625
 49
1.905
 74
    0
 49
-0.9525
 74
    0
 49
0
 74
    0
 49
-0.9525
 74
    0
 49
0
 74
    0
 49
-0.9525
 74
    0
  0
LTYPE
  5
40
330
5
100
AcDbSymbolTableRecord
100
AcDbLinetypeTableRecord
  2
DIVIDE2
 70
    0
  3
Divide (.5x) __..__..__..__..__..__..__..__.._
 72
   65
 73
    6
 40
15.875
 49
6.35
 74
    0
 49
-3.175
 74
    0
 49
0
 74
    0
 49
-3.175
 74
    0
 49
0
 74
    0
 49
-3.175
 74
    0
  0
LTYPE
  5
41
330
5
100
AcDbSymbolTableRecord
100
AcDbLinetypeTableRecord
  2
DIVIDEX2
 70
    0
  3
Divide (2x) ________  .  .  ________  .  .  _
 72
   65
 73
    6
 40
63.5
 49
25.4
 74
    0
 49
-12.7
 74
    0
 49
0
 74
    0
 49
-12.7
 74
    0
 49
0
 74
    0
 49
-12.7
 74
    0
  0
LTYPE
  5
42
330
5
100
AcDbSymbolTableRecord
100
AcDbLinetypeTableRecord
  2
BORDER
 70
    0
  3
Border __ __ . __ __ . __ __ . __ __ . __ __ .
 72
   65
 73
    6
 40
44.45
 49
12.7
 74
    0
 49
-6.35
 74
    0
 49
12.7
 74
    0
 49
-6.35
 74
    0
 49
0
 74
    0
 49
-6.35
 74
    0
  0
LTYPE
  5
43
330
5
100
AcDbSymbolTableRecord
100
AcDbLinetypeTableRecord
  2
BORDERTINY
 70
    0
  3
Border (.15x) __.__.__.__.__.__.__.__.__.__.__.
 72
   65
 73
    6
 40
6.6675
 49
1.905
 74
    0
 49
-0.9525
 74
    0
 49
1.905
 74
    0
 49
-0.9525
 74
    0
 49
0
 74
    0
 49
-0.9525
 74
    0
  0
LTYPE
  5
44
330
5
100
AcDbSymbolTableRecord
100
AcDbLinetypeTableRecord
  2
BORDER2
 70
    0
  3
Border (.5x) __.__.__.__.__.__.__.__.__.__.__.
 72
   65
 73
    6
 40
22.225
 49
6.35
 74
    0
 49
-3.175
 74
    0
 49
6.35
 74
    0
 49
-3.175
 74
    0
 49
0
 74
    0
 49
-3.175
 74
    0
  0
LTYPE
  5
45
330
5
100
AcDbSymbolTableRecord
100
AcDbLinetypeTableRecord
  2
BORDERX2
 70
    0
  3
Border (2x) ____  ____  .  ____  ____  .  ___
 72
   65
 73
    6
 40
88.89999999999999
 49
25.4
 74
    0
 49
-12.7
 74
    0
 49
25.4
 74
    0
 49
-12.7
 74
    0
 49
0
 74
    0
 49
-12.7
 74
    0
  0
LTYPE
  5
46
330
5
100
AcDbSymbolTableRecord
100
AcDbLinetypeTableRecord
  2
CENTER
 70
    0
  3
Center ____ _ ____ _ ____ _ ____ _ ____ _ ____
 72
   65
 73
    4
 40
50.8
 49
31.75
 74
    0
 49
-6.35
 74
    0
 49
6.35
 74
    0
 49
-6.35
 74
    0
  0
LTYPE
  5
47
330
5
100
AcDbSymbolTableRecord
100
AcDbLinetypeTableRecord
  2
CENTERTINY
 70
    0
  3
Center (.15x) ___ _ ___ _ ___ _ ___ _ ___ _ ___
 72
   65
 73
    4
 40
7.62
 49
4.7625
 74
    0
 49
-0.9525
 74
    0
 49
0.9525
 74
    0
 49
-0.9525
 74
    0
  0
LTYPE
  5
48
330
5
100
AcDbSymbolTableRecord
100
AcDbLinetypeTableRecord
  2
CENTER2
 70
    0
  3
Center (.5x) ___ _ ___ _ ___ _ ___ _ ___ _ ___
 72
   65
 73
    4
 40
28.575
 49
19.05
 74
    0
 49
-3.175
 74
    0
 49
3.175
 74
    0
 49
-3.175
 74
    0
  0
LTYPE
  5
49
330
5
100
AcDbSymbolTableRecord
100
AcDbLinetypeTableRecord
  2
CENTERX2
 70
    0
  3
Center (2x) ________  __  ________  __  _____
 72
   65
 73
    4
 40
101.6
 49
63.5
 74
    0
 49
-12.7
 74
    0
 49
12.7
 74
    0
 49
-12.7
 74
    0
  0
ENDTAB
  0
TABLE
  2
LAYER
  5
2
100
AcDbSymbolTable
 70
    1
  0
LAYER
  5
10
330
2
100
AcDbSymbolTableRecord
100
AcDbLayerTableRecord
  2
0
 70
    0
 62
    7
  6
CONTINUOUS
370
   -3
390
F
  0
LAYER
  5
4A
330
2
100
AcDbSymbolTableRecord
100
AcDbLayerTableRecord
  2
ASHADE
 70
    4
 62
    7
  6
CONTINUOUS
370
   -3
390
F
  0
LAYER
  5
4B
330
2
100
AcDbSymbolTableRecord
100
AcDbLayerTableRecord
  2
LAYER_1
 70
    0
 62
  255
  6
CONTINUOUS
370
   -3
390
F
  0
ENDTAB
  0
TABLE
  2
STYLE
  5
3
100
AcDbSymbolTable
 70
    3
  0
STYLE
  5
4C
330
2
100
AcDbSymbolTableRecord
100
AcDbTextStyleTableRecord
  2
Standard
 70
    0
 40
0
 41
1
 50
0
 71
    0
 42
1
  3
txt
  4

  0
ENDTAB
  0
TABLE
  2
VIEW
  5
6
100
AcDbSymbolTable
 70
    0
  0
ENDTAB
  0
TABLE
  2
UCS
  5
7
100
AcDbSymbolTable
 70
    0
  0
ENDTAB
  0
TABLE
  2
APPID
  5
9
100
AcDbSymbolTable
 70
    1
  0
APPID
  5
12
100
AcDbSymbolTableRecord
100
AcDbRegAppTableRecord
  2
ACAD
 70
    0
  0
APPID
  5
4D
100
AcDbSymbolTableRecord
100
AcDbRegAppTableRecord
  2
LibreCad
 70
    0
  0
ENDTAB
  0
TABLE
  2
DIMSTYLE
  5
A
100
AcDbSymbolTable
 70
    1
  0
DIMSTYLE
105
4E
330
A
100
AcDbSymbolTableRecord
100
AcDbDimStyleTableRecord
  2
Standard
 70
    0
 40
1
 41
0.18
 42
0.0625
 43
0.38
 44
0.18
 45
0
 46
0
 47
0
 48
0
 49
1
140
0.18
141
0.09
142
0
143
25.4
144
1
145
0
146
1
147
0.09
 71
    0
 72
    0
 73
    1
 74
    1
 75
    0
 76
    0
 77
    0
 78
    0
170
    0
171
    2
172
    0
173
    0
174
    0
175
    0
176
    0
177
    0
178
    0
270
    2
271
    4
272
    4
273
    2
274
    2
275
    0
280
    0
281
    0
282
    0
283
    1
284
    0
285
    0
286
    0
287
    3
288
    0
340
Standard
  0
ENDTAB
  0
TABLE
  2
BLOCK_RECORD
  5
1
100
AcDbSymbolTable
 70
    2
  0
BLOCK_RECORD
  5
1F
100
AcDbSymbolTableRecord
100
AcDbBlockTableRecord
  2
*Model_Space
  0
BLOCK_RECORD
  5
1E
100
AcDbSymbolTableRecord
100
AcDbBlockTableRecord
  2
*Paper_Space
  0
BLOCK_RECORD
  5
4F
100
AcDbSymbolTableRecord
100
AcDbBlockTableRecord
  2
direct
  0
BLOCK_RECORD
  5
52
100
AcDbSymbolTableRecord
100
AcDbBlockTableRecord
  2
overhead
  0
BLOCK_RECORD
  5
55
100
AcDbSymbolTableRecord
100
AcDbBlockTableRecord
  2
sh_spot
  0
BLOCK_RECORD
  5
58
100
AcDbSymbolTableRecord
100
AcDbBlockTableRecord
  2
AVE_RENDER
  0
BLOCK_RECORD
  5
5B
100
AcDbSymbolTableRecord
100
AcDbBlockTableRecord
  2
AVE_GLOBAL
  0
ENDTAB
  0
ENDSEC
  0
SECTION
  2
BLOCKS
  0
BLOCK
  5
20
100
AcDbEntity
  8
0
100
AcDbBlockBegin
  2
*Model_Space
 70
    0
 10
0
 20
0
 30
0
  3
*Model_Space
  1

  0
ENDBLK
  5
21
100
AcDbEntity
  8
0
100
AcDbBlockEnd
  0
BLOCK
  5
1C
100
AcDbEntity
  8
0
100
AcDbBlockBegin
  2
*Paper_Space
 70
    0
 10
0
 20
0
 30
0
  3
*Paper_Space
  1

  0
ENDBLK
  5
1D
100
AcDbEntity
  8
0
100
AcDbBlockEnd
  0
BLOCK
  5
50
100
AcDbEntity
  8
0
100
AcDbBlockBegin
  2
direct
 70
    0
 10
0
 20
0
  3
direct
  1

  0
ARC
  5
5E
100
AcDbEntity
  8
ASHADE
  6
CONTINUOUS
 62
    7
100
AcDbCircle
 10
0
 20
0
 40
0.3
100
AcDbArc
 50
205.6792886194569
 51
334.3207113805431
  0
ARC
  5
5F
100
AcDbEntity
  8
ASHADE
  6
CONTINUOUS
 62
    7
100
AcDbCircle
 10
0
 20
0
 40
0.3
100
AcDbArc
 50
25.67928861945685
 51
154.3207113805431
  0
LINE
  5
60
100
AcDbEntity
  8
ASHADE
  6
CONTINUOUS
 62
    7
100
AcDbLine
 10
-0.21
 20
0.2142428528562855
 11
-0.21
 21
0.5
  0
LINE
  5
61
100
AcDbEntity
  8
ASHADE
  6
CONTINUOUS
 62
    7
100
AcDbLine
 10
-0.11
 20
0.2791057147390572
 11
-0.11
 21
0.5
  0
LINE
  5
62
100
AcDbEntity
  8
ASHADE
  6
CONTINUOUS
 62
    7
100
AcDbLine
 10
0.21
 20
0.2142428528562855
 11
0.21
 21
0.5
  0
LINE
  5
63
100
AcDbEntity
  8
ASHADE
  6
CONTINUOUS
 62
    7
100
AcDbLine
 10
0
 20
0.3
 11
0
 21
0.5
  0
LINE
  5
64
100
AcDbEntity
  8
ASHADE
  6
CONTINUOUS
 62
    7
100
AcDbLine
 10
0.11
 20
0.2791057147390572
 11
0.11
 21
0.5
  0
ENDBLK
  5
51
100
AcDbEntity
  8
0
100
AcDbBlockEnd
  0
BLOCK
  5
53
100
AcDbEntity
  8
0
100
AcDbBlockBegin
  2
overhead
 70
    0
 10
0
 20
0
  3
overhead
  1

  0
ARC
  5
65
100
AcDbEntity
  8
ASHADE
  6
CONTINUOUS
 62
    7
100
AcDbCircle
 10
0
 20
0
 40
0.3
100
AcDbArc
 50
205.6792886194569
 51
334.3207113805431
  0
LINE
  5
66
100
AcDbEntity
  8
ASHADE
  6
CONTINUOUS
 62
    7
100
AcDbLine
 10
-0.2041413561583015
 20
-0.2198324514393848
 11
-0.2721884748777353
 21
-0.2931099352525131
  0
LINE
  5
67
100
AcDbEntity
  8
ASHADE
  6
CONTINUOUS
 62
    7
100
AcDbLine
 10
-0.1096591641591904
 20
-0.2792398032442862
 11
-0.1279356915190555
 21
-0.3257797704516673
  0
LINE
  5
68
100
AcDbEntity
  8
ASHADE
  6
CONTINUOUS
 62
    7
100
AcDbLine
 10
0
 20
-0.2999999999999999
 11
0
 21
-0.4
  0
LINE
  5
69
100
AcDbEntity
  8
ASHADE
  6
CONTINUOUS
 62
    7
100
AcDbLine
 10
0.1096591641591904
 20
-0.2792398032442862
 11
0.1279356915190555
 21
-0.3257797704516673
  0
LINE
  5
6A
100
AcDbEntity
  8
ASHADE
  6
CONTINUOUS
 62
    7
100
AcDbLine
 10
0.2041413561583015
 20
-0.2198324514393848
 11
0.2721884748777353
 21
-0.2931099352525131
  0
ARC
  5
6B
100
AcDbEntity
  8
ASHADE
  6
CONTINUOUS
 62
    7
100
AcDbCircle
 10
0
 20
0
 40
0.3
100
AcDbArc
 50
25.67928861945685
 51
154.3207113805431
  0
LINE
  5
6C
100
AcDbEntity
  8
ASHADE
  6
CONTINUOUS
 62
    7
100
AcDbLine
 10
-0.2703701166919155
 20
0.13
 11
-0.3154318028072347
 21
0.1516666666666666
  0
LINE
  5
6D
100
AcDbEntity
  8
ASHADE
  6
CONTINUOUS
 62
    7
100
AcDbLine
 10
-0.2703701166919155
 20
-0.13
 11
-0.3154318028072347
 21
-0.1516666666666666
  0
LINE
  5
6E
100
AcDbEntity
  8
ASHADE
  6
CONTINUOUS
 62
    7
100
AcDbLine
 10
-0.2041413561583015
 20
0.2198324514393849
 11
-0.2721884748777353
 21
0.2931099352525131
  0
LINE
  5
6F
100
AcDbEntity
  8
ASHADE
  6
CONTINUOUS
 62
    7
100
AcDbLine
 10
-0.1096591641591904
 20
0.2792398032442862
 11
-0.1279356915190555
 21
0.3257797704516674
  0
LINE
  5
70
100
AcDbEntity
  8
ASHADE
  6
CONTINUOUS
 62
    7
100
AcDbLine
 10
0.2703701166919155
 20
-0.13
 11
0.3154318028072347
 21
-0.1516666666666666
  0
LINE
  5
71
100
AcDbEntity
  8
ASHADE
  6
CONTINUOUS
 62
    7
100
AcDbLine
 10
0.2703701166919155
 20
0.13
 11
0.3154318028072347
 21
0.1516666666666666
  0
LINE
  5
72
100
AcDbEntity
  8
ASHADE
  6
CONTINUOUS
 62
    7
100
AcDbLine
 10
0
 20
0.3
 11
0
 21
0.4
  0
LINE
  5
73
100
AcDbEntity
  8
ASHADE
  6
CONTINUOUS
 62
    7
100
AcDbLine
 10
0.1096591641591904
 20
0.2792398032442862
 11
0.1279356915190555
 21
0.3257797704516674
  0
LINE
  5
74
100
AcDbEntity
  8
ASHADE
  6
CONTINUOUS
 62
    7
100
AcDbLine
 10
0.2041413561583015
 20
0.2198324514393849
 11
0.2721884748777353
 21
0.2931099352525131
  0
ENDBLK
  5
54
100
AcDbEntity
  8
0
100
AcDbBlockEnd
  0
BLOCK
  5
56
100
AcDbEntity
  8
0
100
AcDbBlockBegin
  2
sh_spot
 70
    0
 10
0
 20
0
  3
sh_spot
  1

  0
LINE
  5
75
100
AcDbEntity
  8
ASHADE
  6
CONTINUOUS
 62
    7
100
AcDbLine
 10
0.25
 20
0.26
 11
-0.25
 21
0.26
  0
LINE
  5
76
100
AcDbEntity
  8
ASHADE
  6
CONTINUOUS
 62
    7
100
AcDbLine
 10
-0.25
 20
-0.3399999999999999
 11
0.25
 21
-0.3399999999999999
  0
LINE
  5
77
100
AcDbEntity
  8
ASHADE
  6
CONTINUOUS
 62
    7
100
AcDbLine
 10
-0.25
 20
-0.13
 11
-0.25
 21
-0.3399999999999999
  0
LINE
  5
78
100
AcDbEntity
  8
ASHADE
  6
CONTINUOUS
 62
    7
100
AcDbLine
 10
-0.25
 20
-0.18
 11
-0.29
 21
-0.18
  0
LINE
  5
79
100
AcDbEntity
  8
ASHADE
  6
CONTINUOUS
 62
    7
100
AcDbLine
 10
-0.29
 20
-0.22
 11
-0.25
 21
-0.22
  0
LINE
  5
7A
100
AcDbEntity
  8
ASHADE
  6
CONTINUOUS
 62
    7
100
AcDbLine
 10
-0.29
 20
-0.18
 11
-0.29
 21
-0.22
  0
LINE
  5
7B
100
AcDbEntity
  8
ASHADE
  6
CONTINUOUS
 62
    7
100
AcDbLine
 10
-0.1045454545454545
 20
0.26
 11
-0.15
 21
0.46
  0
LINE
  5
7C
100
AcDbEntity
  8
ASHADE
  6
CONTINUOUS
 62
    7
100
AcDbLine
 10
-0.21
 20
0.26
 11
-0.301304347826087
 21
0.46
  0
LINE
  5
7D
100
AcDbEntity
  8
ASHADE
  6
CONTINUOUS
 62
    7
100
AcDbLine
 10
-0.25
 20
0.26
 11
-0.25
 21
0.13
  0
LINE
  5
7E
100
AcDbEntity
  8
ASHADE
  6
CONTINUOUS
 62
    7
100
AcDbLine
 10
-0.25
 20
0.22
 11
-0.29
 21
0.22
  0
LINE
  5
7F
100
AcDbEntity
  8
ASHADE
  6
CONTINUOUS
 62
    7
100
AcDbLine
 10
-0.29
 20
0.1799999999999999
 11
-0.25
 21
0.1799999999999999
  0
LINE
  5
80
100
AcDbEntity
  8
ASHADE
  6
CONTINUOUS
 62
    7
100
AcDbLine
 10
-0.29
 20
0.22
 11
-0.29
 21
0.1799999999999999
  0
LINE
  5
81
100
AcDbEntity
  8
ASHADE
  6
CONTINUOUS
 62
    7
100
AcDbLine
 10
0.25
 20
-0.3399999999999999
 11
0.25
 21
-0.13
  0
LINE
  5
82
100
AcDbEntity
  8
ASHADE
  6
CONTINUOUS
 62
    7
100
AcDbLine
 10
0.25
 20
-0.18
 11
0.29
 21
-0.18
  0
LINE
  5
83
100
AcDbEntity
  8
ASHADE
  6
CONTINUOUS
 62
    7
100
AcDbLine
 10
0.29
 20
-0.22
 11
0.25
 21
-0.22
  0
LINE
  5
84
100
AcDbEntity
  8
ASHADE
  6
CONTINUOUS
 62
    7
100
AcDbLine
 10
0.29
 20
-0.18
 11
0.29
 21
-0.22
  0
LINE
  5
85
100
AcDbEntity
  8
ASHADE
  6
CONTINUOUS
 62
    7
100
AcDbLine
 10
0.21
 20
0.26
 11
0.301304347826087
 21
0.46
  0
LINE
  5
86
100
AcDbEntity
  8
ASHADE
  6
CONTINUOUS
 62
    7
100
AcDbLine
 10
0.1045454545454545
 20
0.26
 11
0.15
 21
0.46
  0
LINE
  5
87
100
AcDbEntity
  8
ASHADE
  6
CONTINUOUS
 62
    7
100
AcDbLine
 10
0
 20
0.26
 11
0
 21
0.46
  0
LINE
  5
88
100
AcDbEntity
  8
ASHADE
  6
CONTINUOUS
 62
    7
100
AcDbLine
 10
0.25
 20
0.13
 11
0.25
 21
0.26
  0
LINE
  5
89
100
AcDbEntity
  8
ASHADE
  6
CONTINUOUS
 62
    7
100
AcDbLine
 10
0.25
 20
0.22
 11
0.29
 21
0.22
  0
LINE
  5
8A
100
AcDbEntity
  8
ASHADE
  6
CONTINUOUS
 62
    7
100
AcDbLine
 10
0.29
 20
0.1799999999999999
 11
0.25
 21
0.1799999999999999
  0
LINE
  5
8B
100
AcDbEntity
  8
ASHADE
  6
CONTINUOUS
 62
    7
100
AcDbLine
 10
0.29
 20
0.22
 11
0.29
 21
0.1799999999999999
  0
ENDBLK
  5
57
100
AcDbEntity
  8
0
100
AcDbBlockEnd
  0
BLOCK
  5
59
100
AcDbEntity
  8
0
100
AcDbBlockBegin
  2
AVE_RENDER
 70
    0
 10
0
 20
0
  3
AVE_RENDER
  1

  0
ENDBLK
  5
5A
100
AcDbEntity
  8
0
100
AcDbBlockEnd
  0
BLOCK
  5
5C
100
AcDbEntity
  8
0
100
AcDbBlockBegin
  2
AVE_GLOBAL
 70
    0
 10
0
 20
0
  3
AVE_GLOBAL
  1

  0
ENDBLK
  5
5D
100
AcDbEntity
  8
0
100
AcDbBlockEnd
  0
ENDSEC
  0
SECTION
  2
ENTITIES
  0
INSERT
  5
8C
100
AcDbEntity
  8
ASHADE
  6
ByLayer
 62
    1
100
AcDbBlockReference
  2
AVE_RENDER
 10
0
 20
0
 30
0
 41
1
 42
1
 43
0
 50
0
 70
    1
 71
    1
 44
0
 45
0
  0
INSERT
  5
8D
100
AcDbEntity
  8
ASHADE
  6
ByLayer
 62
    3
100
AcDbBlockReference
  2
AVE_RENDER
 10
0
 20
0
 30
0
 41
1
 42
1
 43
0
 50
0
 70
    1
 71
    1
 44
0
 45
0
  0
INSERT
  5
8E
100
AcDbEntity
  8
ASHADE
  6
ByLayer
 62
    4
100
AcDbBlockReference
  2
AVE_RENDER
 10
0
 20
0
 30
0
 41
1
 42
1
 43
0
 50
0
 70
    1
 71
    1
 44
0
 45
0
  0
INSERT
  5
8F
100
AcDbEntity
  8
ASHADE
  6
ByLayer
 62
    5
100
AcDbBlockReference
  2
AVE_RENDER
 10
0
 20
0
 30
0
 41
1
 42
1
 43
0
 50
0
 70
    1
 71
    1
 44
0
 45
0
  0
INSERT
  5
90
100
AcDbEntity
  8
ASHADE
  6
ByLayer
 62
    6
100
AcDbBlockReference
  2
AVE_RENDER
 10
0
 20
0
 30
0
 41
1
 42
1
 43
0
 50
0
 70
    1
 71
    1
 44
0
 45
0
  0
INSERT
  5
91
100
AcDbEntity
  8
ASHADE
  6
ByLayer
 62
    7
100
AcDbBlockReference
  2
AVE_RENDER
 10
0
 20
0
 30
0
 41
1
 42
1
 43
0
 50
0
 70
    1
 71
    1
 44
0
 45
0
  0
INSERT
  5
92
100
AcDbEntity
  8
ASHADE
  6
ByLayer
 62
    8
100
AcDbBlockReference
  2
AVE_RENDER
 10
0
 20
0
 30
0
 41
1
 42
1
 43
0
 50
0
 70
    1
 71
    1
 44
0
 45
0
  0
INSERT
  5
93
100
AcDbEntity
  8
ASHADE
  6
ByLayer
 62
    9
100
AcDbBlockReference
  2
AVE_RENDER
 10
0
 20
0
 30
0
 41
1
 42
1
 43
0
 50
0
 70
    1
 71
    1
 44
0
 45
0
  0
INSERT
  5
94
100
AcDbEntity
  8
ASHADE
  6
ByLayer
 62
    1
100
AcDbBlockReference
  2
AVE_GLOBAL
 10
0
 20
0
 30
0
 41
1
 42
1
 43
0
 50
0
 70
    1
 71
    1
 44
0
 45
0
  0
LWPOLYLINE
  5
95
100
AcDbEntity
  8
LAYER_1
  6
ByLayer
 62
  256
100
AcDbPolyline
 90
  326
 70
    1
 43
0
 10
0.919025719165802
 20
-1.137355208396911
 10
0.9190648794174194
 20
-1.140890836715698
 10
0.919182002544403
 20
-1.144407510757446
 10
0.9193760752677917
 20
-1.147904276847839
 10
0.9196464419364929
 20
-1.151380181312561
 10
0.9199921488761901
 20
-1.154834747314453
 10
0.9204124212265014
 20
-1.15826678276062
 10
0.9209064245223999
 20
-1.161675691604614
 10
0.9214733839035034
 20
-1.165060520172119
 10
0.9221124053001403
 20
-1.168420553207397
 10
0.9228226542472839
 20
-1.171754956245422
 10
0.923603355884552
 20
-1.175062775611877
 10
0.9244536161422729
 20
-1.178343296051025
 10
0.9253727197647094
 20
-1.181595683097839
 10
0.9263597130775451
 20
-1.184818983078002
 10
0.9274138808250427
 20
-1.188012599945068
 10
0.9285342693328857
 20
-1.191175460815429
 10
0.9297201633453369
 20
-1.194306969642639
 10
0.9309707283973693
 20
-1.19740617275238
 10
0.9322851300239562
 20
-1.200472235679626
 10
0.933662474155426
 20
-1.20350432395935
 10
0.9351019859313964
 20
-1.206501722335815
 10
0.9366028308868408
 20
-1.209463477134704
 10
0.9381641745567321
 20
-1.212388753890991
 10
0.9397852420806884
 20
-1.215276837348937
 10
0.941465139389038
 20
-1.218126893043518
 10
0.9432030916213989
 20
-1.220937967300415
 10
0.9449982047080993
 20
-1.223709344863891
 10
0.9468497037887573
 20
-1.22644019126892
 10
0.9487568140029907
 20
-1.229129552841186
 10
0.9507185816764832
 20
-1.23177683353424
 10
0.9527342319488525
 20
-1.234381079673767
 10
0.9548029899597167
 20
-1.236941337585449
 10
0.956924021244049
 20
-1.239457011222839
 10
0.9590964317321777
 20
-1.241927146911621
 10
0.9613194465637207
 20
-1.244350910186767
 10
0.9635922312736511
 20
-1.246727585792541
 10
0.9659139513969421
 20
-1.249056220054626
 10
0.9682837724685668
 20
-1.251336097717285
 10
0.9707008600234985
 20
-1.253566265106201
 10
0.9731644392013549
 20
-1.255745887756347
 10
0.9756736755371093
 20
-1.257874369621276
 10
0.97822767496109
 20
-1.259950637817382
 10
0.980825662612915
 20
-1.261973857879638
 10
0.9834668040275573
 20
-1.263943433761596
 10
0.9861502647399902
 20
-1.26585841178894
 10
0.9888752102851867
 20
-1.267717838287353
 10
0.9916408658027648
 20
-1.269521117210388
 10
0.9944463372230529
 20
-1.271267294883728
 10
0.9972908496856689
 20
-1.272955536842346
 10
1.000173568725585
 20
-1.274585008621215
 10
1.003093600273132
 20
-1.276154994964599
 10
1.00605022907257
 20
-1.277664542198181
 10
1.009042501449584
 20
-1.279112815856933
 10
1.012069702148437
 20
-1.280499100685119
 10
1.015130996704101
 20
-1.281822562217712
 10
1.01822543144226
 20
-1.283082246780395
 10
1.021352410316467
 20
-1.284277439117431
 10
1.024510860443115
 20
-1.285407304763793
 10
1.027700066566467
 20
-1.286470890045166
 10
1.030919194221496
 20
-1.2874675989151
 10
1.034167528152465
 20
-1.288396477699279
 10
1.037443995475769
 20
-1.289256572723388
 10
1.040748000144958
 20
-1.290047287940979
 10
1.044078707695007
 20
-1.290767669677734
 10
1.047435045242309
 20
-1.291416883468627
 10
1.050816416740417
 20
-1.291994214057922
 10
1.054221987724304
 20
-1.292498588562011
 10
1.057650804519653
 20
-1.292929530143737
 10
1.061102032661437
 20
-1.293285965919494
 10
1.06457507610321
 20
-1.293567061424255
 10
1.068068861961364
 20
-1.293772101402282
 10
1.071582674980163
 20
-1.293900251388549
 10
1.07511568069458
 20
-1.293950676918029
 10
1.075621962547302
 20
-1.296631932258605
 10
1.075621962547302
 20
-1.299217224121093
 10
1.075621962547302
 20
-1.302076697349548
 10
1.075621962547302
 20
-1.305363774299621
 10
1.075621962547302
 20
-1.308051705360412
 10
1.075621962547302
 20
-1.310885071754455
 10
1.075621962547302
 20
-1.314818859100341
 10
1.075621962547302
 20
-1.320857524871826
 10
1.075621962547302
 20
-1.324834465980529
 10
1.075621962547302
 20
-1.327722787857055
 10
1.075621962547302
 20
-1.330485105514526
 10
1.075621962547302
 20
-1.333080530166625
 10
1.075621962547302
 20
-1.336211085319519
 10
1.075621962547302
 20
-1.338876008987426
 10
1.075621962547302
 20
-1.341602683067321
 10
1.07340133190155
 20
-1.343156576156616
 10
1.070188999176025
 20
-1.343156576156616
 10
1.06743574142456
 20
-1.343156576156616
 10
1.063985705375671
 20
-1.343029618263244
 10
1.059365630149841
 20
-1.342727184295654
 10
1.05477499961853
 20
-1.342324018478393
 10
1.050215005874633
 20
-1.341820955276489
 10
1.045686602592468
 20
-1.341219305992126
 10
1.041190862655639
 20
-1.340520143508911
 10
1.036728739738464
 20
-1.339724659919738
 10
1.032301545143127
 20
-1.338833928108215
 10
1.027910113334655
 20
-1.337849020957946
 10
1.023555517196655
 20
-1.336771249771118
 10
1.019238948822021
 20
-1.335601568222045
 10
1.01496136188507
 20
-1.334341287612915
 10
1.010723829269409
 20
-1.332991361618041
 10
1.006527304649353
 20
-1.331553101539611
 10
1.002373099327087
 20
-1.33002746105194
 10
0.9982619881629943
 20
-1.328415751457214
 10
0.9941952228546141
 20
-1.326718926429748
 10
0.9901738166809082
 20
-1.324938297271728
 10
0.9861987233161926
 20
-1.32307493686676
 10
0.982271134853363
 20
-1.321129918098449
 10
0.9783920645713806
 20
-1.319104433059692
 10
0.9745625257492065
 20
-1.316999554634094
 10
0.9707835912704467
 20
-1.31481659412384
 10
0.9670563936233521
 20
-1.312556505203247
 10
0.9633818864822387
 20
-1.310220479965209
 10
0.9597611427307128
 20
-1.307809591293334
 10
0.9561952352523803
 20
-1.305325031280517
 10
0.9526852369308471
 20
-1.302767992019653
 10
0.9492322206497192
 20
-1.300139546394348
 10
0.9458371996879577
 20
-1.297440886497497
 10
0.9425012469291687
 20
-1.294673085212707
 10
0.939225435256958
 20
-1.291837215423583
 10
0.9360107779502868
 20
-1.288934588432312
 10
0.9328583478927612
 20
-1.285966157913208
 10
0.9297692179679869
 20
-1.282933115959167
 10
0.9267444610595703
 20
-1.279836654663085
 10
0.9237850904464721
 20
-1.276677966117858
 10
0.9208921790122985
 20
-1.273458003997802
 10
0.9180667996406555
 20
-1.270177960395812
 10
0.9153099656105042
 20
-1.266839146614074
 10
0.9126227498054504
 20
-1.263442397117614
 10
0.9100062847137451
 20
-1.259989142417907
 10
0.9074614644050598
 20
-1.25648021697998
 10
0.9049895405769348
 20
-1.252917051315307
 10
0.9025914072990417
 20
-1.249300599098205
 10
0.9002681970596313
 20
-1.245632052421569
 10
0.8980209827423095
 20
-1.241912603378295
 10
0.8958507776260375
 20
-1.2381432056427
 10
0.8937585949897766
 20
-1.234325170516967
 10
0.8917456269264221
 20
-1.230459570884704
 10
0.8898128271102905
 20
-1.226547479629516
 10
0.8879612684249877
 20
-1.222590208053588
 10
0.8861920237541198
 20
-1.218588709831237
 10
0.8845061063766479
 20
-1.214544177055358
 10
0.8829046487808228
 20
-1.210457801818847
 10
0.8813886046409606
 20
-1.20633065700531
 10
0.8799591660499572
 20
-1.202163815498352
 10
0.8786172270774841
 20
-1.197958588600158
 10
0.8773639798164367
 20
-1.193715929985046
 10
0.8762004375457763
 20
-1.1894371509552
 10
0.8751276731491088
 20
-1.185123205184936
 10
0.8741466403007507
 20
-1.18077540397644
 10
0.8732585310935974
 20
-1.176394701004028
 10
0.8724643588066101
 20
-1.171982407569885
 10
0.87176513671875
 20
-1.167539596557617
 10
0.871161937713623
 20
-1.16306722164154
 10
0.8706558346748352
 20
-1.158566713333129
 10
0.8702479004859924
 20
-1.154039025306701
 10
0.8699391484260559
 20
-1.149485349655151
 10
0.8697306513786315
 20
-1.144906878471374
 10
0.8696234822273254
 20
-1.140304565429687
 10
0.8696187138557434
 20
-1.135679721832275
 10
0.8697173595428466
 20
-1.131033420562744
 10
0.8698310256004333
 20
-1.128126621246337
 10
0.8700416088104248
 20
-1.124176740646362
 10
0.870372712612152
 20
-1.119688510894775
 10
0.8707991242408752
 20
-1.115229129791259
 10
0.8713198304176329
 20
-1.110799312591552
 10
0.8719338774681091
 20
-1.10640013217926
 10
0.8726400732994078
 20
-1.102032661437988
 10
0.8734374642372131
 20
-1.097697615623474
 10
0.8743249177932739
 20
-1.093396067619323
 10
0.8753014206886292
 20
-1.089129090309143
 10
0.8763659000396729
 20
-1.084897398948669
 10
0.877517282962799
 20
-1.080702185630798
 10
0.8787545561790466
 20
-1.076544284820556
 10
0.8800766468048095
 20
-1.07242476940155
 10
0.8814824819564819
 20
-1.068344354629516
 10
0.8829709887504577
 20
-1.064304232597351
 10
0.8845412135124207
 20
-1.06030523777008
 10
0.886191964149475
 20
-1.056348443031311
 10
0.8879222273826599
 20
-1.052434682846069
 10
0.8897310495376586
 20
-1.048564910888671
 10
0.8916172385215759
 20
-1.044740200042724
 10
0.8935797810554504
 20
-1.040961503982543
 10
0.895617663860321
 20
-1.037229657173156
 10
0.897729754447937
 20
-1.033545613288879
 10
0.899915039539337
 20
-1.029910445213317
 10
0.9021725058555603
 20
-1.026325106620788
 10
0.9045010209083557
 20
-1.022790551185607
 10
0.9068995714187622
 20
-1.019307613372802
 10
0.9093670845031738
 20
-1.015877366065979
 10
0.9119024872779846
 20
-1.012500762939453
 10
0.9145047664642333
 20
-1.009178757667541
 10
0.9171728491783142
 20
-1.00591230392456
 10
0.919905662536621
 20
-1.002702236175537
 10
0.9227021932601928
 20
-0.9995497465133666
 10
0.9255613088607788
 20
-0.9964556097984313
 10
0.9284820556640625
 20
-0.9934208393096923
 10
0.9314633011817932
 20
-0.990446388721466
 10
0.9345039725303649
 20
-0.9875332713127136
 10
0.9376030564308167
 20
-0.9846823215484619
 10
0.940759539604187
 20
-0.9818946123123168
 10
0.9439722895622253
 20
-0.9791710972785949
 10
0.9472402334213256
 20
-0.9765126705169677
 10
0.9505624175071716
 20
-0.9739202857017517
 10
0.9539377093315125
 20
-0.9713949561119078
 10
0.9573650360107421
 20
-0.9689376354217529
 10
0.9608433842658995
 20
-0.9665492177009583
 10
0.9643717408180236
 20
-0.9642307162284851
 10
0.9679489135742188
 20
-0.9619831442832946
 10
0.9715740084648132
 20
-0.9598073363304138
 10
0.9752458333969116
 20
-0.9577043056488037
 10
0.9789634346961975
 20
-0.9556750059127807
 10
0.9827256798744201
 20
-0.9537203907966613
 10
0.9865315556526184
 20
-0.9518414735794067
 10
0.9903799891471862
 20
-0.9500391483306884
 10
0.9942699074745178
 20
-0.9483143687248229
 10
0.9982002973556519
 20
-0.9466681480407714
 10
1.002170085906982
 20
-0.9451014399528503
 10
1.006178140640258
 20
-0.9436151385307312
 10
1.010223507881164
 20
-0.9422101974487304
 10
1.014305114746093
 20
-0.9408876299858093
 10
1.01842188835144
 20
-0.939648449420929
 10
1.022572875022888
 20
-0.9384934902191162
 10
1.026756763458251
 20
-0.9374237656593322
 10
1.030972719192504
 20
-0.9364402294158936
 10
1.035219669342041
 20
-0.9355438351631165
 10
1.039496421813964
 20
-0.9347355365753173
 10
1.043802022933959
 20
-0.9340163469314575
 10
1.04813539981842
 20
-0.9333871603012084
 10
1.05249547958374
 20
-0.9328489303588867
 10
1.056881189346313
 20
-0.9324026107788085
 10
1.061291575431823
 20
-0.93204927444458
 10
1.065725445747375
 20
-0.9317896962165833
 10
1.070181846618652
 20
-0.9316250085830688
 10
1.074659705162048
 20
-0.9315560460090637
 10
1.075621962547302
 20
-0.9339602589607238
 10
1.075621962547302
 20
-0.9371023178100585
 10
1.075621962547302
 20
-0.9400120377540588
 10
1.075621962547302
 20
-0.9433390498161315
 10
1.075621962547302
 20
-0.9460501074790953
 10
1.075621962547302
 20
-0.948900818824768
 10
1.075621962547302
 20
-0.951850414276123
 10
1.075621962547302
 20
-0.957883596420288
 10
1.075621962547302
 20
-0.9618740677833557
 10
1.075621962547302
 20
-0.9647817015647888
 10
1.075621962547302
 20
-0.9675709605216979
 10
1.075621962547302
 20
-0.9702011942863464
 10
1.075621962547302
 20
-0.973390221595764
 10
1.075621962547302
 20
-0.9761275053024291
 10
1.075621962547302
 20
-0.9787666201591491
 10
1.073346853256225
 20
-0.9807725548744201
 10
1.069823384284973
 20
-0.9808619618415833
 10
1.066319465637207
 20
-0.98102867603302
 10
1.062835931777954
 20
-0.9812718629837036
 10
1.059373617172241
 20
-0.981590747833252
 10
1.055933475494384
 20
-0.9819845557212828
 10
1.052516222000122
 20
-0.9824523329734802
 10
1.049122691154479
 20
-0.9829933047294616
 10
1.045753717422485
 20
-0.9836066961288452
 10
1.042410016059875
 20
-0.9842916131019592
 10
1.039092659950256
 20
-0.9850472807884216
 10
1.035802245140075
 20
-0.9858728647232055
 10
1.032539844512939
 20
-0.9867674708366394
 10
1.029305934906005
 20
-0.987730324268341
 10
1.02610170841217
 20
-0.9887606501579284
 10
1.02292776107788
 20
-0.9898575544357299
 10
1.019784927368164
 20
-0.9910202026367188
 10
1.016674160957336
 20
-0.9922477602958679
 10
1.013596177101135
 20
-0.9935395121574401
 10
1.010551810264587
 20
-0.9948945045471191
 10
1.007541894912719
 20
-0.9963119626045227
 10
1.004567384719848
 20
-0.9977909922599792
 10
1.001628875732421
 20
-0.9993309378623962
 10
0.9987274408340454
 20
-1.000930786132812
 10
0.9958637356758117
 20
-1.00258982181549
 10
0.9930386543273925
 20
-1.004307150840759
 10
0.9902529716491699
 20
-1.00608205795288
 10
0.9875075817108154
 20
-1.007913589477539
 10
0.9848032593727111
 20
-1.009800910949707
 10
0.982140839099884
 20
-1.011743307113647
 10
0.9795212149620056
 20
-1.013739824295043
 10
0.9769451022148132
 20
-1.015789866447448
 10
0.9744133949279785
 20
-1.017892360687255
 10
0.9719269275665283
 20
-1.020046472549438
 10
0.9694864749908447
 20
-1.022251605987548
 10
0.9670928716659545
 20
-1.02450680732727
 10
0.9647470116615295
 20
-1.026811122894287
 10
0.9624496698379515
 20
-1.02916395664215
 10
0.9602016806602478
 20
-1.031564354896545
 10
0.9580038785934448
 20
-1.034011483192443
 10
0.9558570384979248
 20
-1.036504507064819
 10
0.9537620544433593
 20
-1.039042592048645
 10
0.9517197608947753
 20
-1.041625022888183
 10
0.94973087310791
 20
-1.044250965118408
 10
0.94779634475708
 20
-1.046919465065002
 10
0.9459169507026672
 20
-1.049629688262939
 10
0.9440935254096984
 20
-1.052381038665771
 10
0.9423269033432006
 20
-1.055172324180603
 10
0.9406178593635559
 20
-1.058003067970275
 10
0.9389672875404357
 20
-1.060872316360473
 10
0.9373760223388671
 20
-1.063779115676879
 10
0.9358447790145874
 20
-1.066722869873046
 10
0.9343745112419128
 20
-1.069702506065368
 10
0.9329659342765808
 20
-1.072717428207397
 10
0.9316200017929077
 20
-1.075766682624816
 10
0.9303374290466307
 20
-1.0788494348526
 10
0.9291191101074218
 20
-1.08196485042572
 10
0.9279658198356628
 20
-1.085112214088439
 10
0.9268784523010253
 20
-1.088290572166442
 10
0.9258577823638916
 20
-1.091499209403991
 10
0.9249046444892883
 20
-1.09473717212677
 10
0.9240198135375975
 20
-1.09800374507904
 10
0.9232042431831359
 20
-1.101298093795776
 10
0.9224586486816406
 20
-1.104619264602661
 10
0.9217839241027832
 20
-1.107966542243957
 10
0.9211808443069458
 20
-1.111339211463928
 10
0.9206503033638
 20
-1.114736199378967
 10
0.9201930165290833
 20
-1.118156790733337
 10
0.9198099374771118
 20
-1.121600151062011
 10
0.919501781463623
 20
-1.125065565109252
 10
0.9192694425582885
 20
-1.128551959991455
 10
0.9191137552261353
 20
-1.13205873966217
  0
LWPOLYLINE
  5
96
100
AcDbEntity
  8
LAYER_1
  6
ByLayer
 62
  256
100
AcDbPolyline
 90
  399
 70
    1
 43
0
 10
1.281423330307006
 20
-1.145913004875183
 10
1.28124189376831
 20
-1.149475455284118
 10
1.281000971794128
 20
-1.15302038192749
 10
1.280701398849487
 20
-1.15654718875885
 10
1.280343413352966
 20
-1.16005539894104
 10
1.279927492141723
 20
-1.163544654846191
 10
1.279454350471496
 20
-1.167014479637145
 10
1.278924465179443
 20
-1.170464515686035
 10
1.278338074684143
 20
-1.173894047737121
 10
1.277696013450622
 20
-1.177302837371826
 10
1.27699851989746
 20
-1.18069040775299
 10
1.276246309280395
 20
-1.184056282043457
 10
1.275439739227294
 20
-1.187399983406066
 10
1.274579405784606
 20
-1.190721035003662
 10
1.273665785789489
 20
-1.194019079208374
 10
1.272699236869812
 20
-1.197293639183044
 10
1.271680474281311
 20
-1.200544238090515
 10
1.270609974861145
 20
-1.203770399093627
 10
1.269488096237182
 20
-1.206971645355224
 10
1.268315434455871
 20
-1.210147738456726
 10
1.267092585563659
 20
-1.213297963142395
 10
1.265819787979125
 20
-1.216421961784362
 10
1.264497876167297
 20
-1.219519257545471
 10
1.263127088546752
 20
-1.222589492797851
 10
1.26170802116394
 20
-1.225632071495056
 10
1.260241150856018
 20
-1.228646755218505
 10
1.258727073669433
 20
-1.231632828712463
 10
1.257166266441345
 20
-1.234590053558349
 10
1.255559086799621
 20
-1.237517833709716
 10
1.25390625
 20
-1.240415811538696
 10
1.252208113670349
 20
-1.243283629417419
 10
1.250465154647827
 20
-1.246120572090148
 10
1.248677968978881
 20
-1.248926281929016
 10
1.24684715270996
 20
-1.251700401306152
 10
1.244972944259643
 20
-1.254442453384399
 10
1.243056058883666
 20
-1.257151961326599
 10
1.241096854209899
 20
-1.259828448295593
 10
1.239096045494079
 20
-1.262471556663513
 10
1.237053871154785
 20
-1.265080690383911
 10
1.234971046447753
 20
-1.267655491828918
 10
1.232847929000854
 20
-1.270195484161376
 10
1.230685114860534
 20
-1.272700309753417
 10
1.228483080863952
 20
-1.275169253349304
 10
1.226242303848266
 20
-1.277602195739746
 10
1.223963379859924
 20
-1.279998421669006
 10
1.221646666526794
 20
-1.282357573509216
 10
1.219292640686035
 20
-1.284679293632507
 10
1.216902017593383
 20
-1.286962985992431
 10
1.214475274085998
 20
-1.28920829296112
 10
1.212012648582458
 20
-1.291414737701416
 10
1.20951497554779
 20
-1.293581843376159
 10
1.206982493400573
 20
-1.295709133148193
 10
1.204415798187255
 20
-1.297796249389648
 10
1.201815485954284
 20
-1.299842715263366
 10
1.199181914329528
 20
-1.3018479347229
 10
1.196515798568725
 20
-1.30381166934967
 10
1.193817377090454
 20
-1.305733323097229
 10
1.191087245941162
 20
-1.307612538337707
 10
1.188326001167297
 20
-1.309448838233947
 10
1.185534000396728
 20
-1.311241626739501
 10
1.182711839675903
 20
-1.312990665435791
 10
1.179860115051269
 20
-1.314695358276367
 10
1.176979064941406
 20
-1.316355347633361
 10
1.17406952381134
 20
-1.317970156669616
 10
1.171131610870361
 20
-1.319539308547973
 10
1.168166160583496
 20
-1.321062326431274
 10
1.165173530578613
 20
-1.32253873348236
 10
1.16215431690216
 20
-1.323968172073364
 10
1.159108877182006
 20
-1.325350284576416
 10
1.156037807464599
 20
-1.326684355735778
 10
1.152941584587097
 20
-1.327970027923583
 10
1.149820685386657
 20
-1.329207062721252
 10
1.146675705909729
 20
-1.330394625663757
 10
1.143507003784179
 20
-1.331532597541809
 10
1.140315175056457
 20
-1.332620382308959
 10
1.13710081577301
 20
-1.333657503128051
 10
1.133864283561706
 20
-1.334643602371215
 10
1.130606055259704
 20
-1.335578203201293
 10
1.127326726913452
 20
-1.336460828781127
 10
1.124026775360107
 20
-1.33729088306427
 10
1.120706796646118
 20
-1.33806824684143
 10
1.117367148399353
 20
-1.338792204856872
 10
1.11400830745697
 20
-1.339462280273437
 10
1.110630989074707
 20
-1.340078234672546
 10
1.107235431671142
 20
-1.340639472007751
 10
1.103822350502014
 20
-1.341145515441894
 10
1.10039210319519
 20
-1.341596126556396
 10
1.096945285797119
 20
-1.34199059009552
 10
1.093482375144958
 20
-1.342328548431396
 10
1.090003967285156
 20
-1.342609524726867
 10
1.086510300636291
 20
-1.342833161354064
 10
1.083002209663391
 20
-1.34299886226654
 10
1.079479932785034
 20
-1.343106389045715
 10
1.075944066047668
 20
-1.343155145645141
 10
1.075621962547302
 20
-1.340580344200134
 10
1.075621962547302
 20
-1.337890744209289
 10
1.075621962547302
 20
-1.335086464881896
 10
1.075621962547302
 20
-1.332540392875671
 10
1.075621962547302
 20
-1.329776048660278
 10
1.075621962547302
 20
-1.326085090637207
 10
1.075621962547302
 20
-1.323001027107238
 10
1.075621962547302
 20
-1.315104484558105
 10
1.075621962547302
 20
-1.311994194984436
 10
1.075621962547302
 20
-1.308982014656066
 10
1.075621962547302
 20
-1.306114554405212
 10
1.075621962547302
 20
-1.303438663482666
 10
1.075621962547302
 20
-1.300434827804565
 10
1.075621962547302
 20
-1.29745078086853
 10
1.075621962547302
 20
-1.294784903526306
 10
1.078149080276489
 20
-1.293931484222412
 10
1.080917358398437
 20
-1.293863415718078
 10
1.083672881126403
 20
-1.293747544288635
 10
1.086415648460388
 20
-1.29358434677124
 10
1.089144945144653
 20
-1.293374061584472
 10
1.09186053276062
 20
-1.29311728477478
 10
1.09456193447113
 20
-1.292814373970031
 10
1.097248911857604
 20
-1.292465567588806
 10
1.099921107292175
 20
-1.292071461677551
 10
1.102577924728393
 20
-1.291632413864135
 10
1.10521912574768
 20
-1.291148900985717
 10
1.107844352722167
 20
-1.290621161460876
 10
1.110453248023986
 20
-1.29004967212677
 10
1.113045215606689
 20
-1.289434790611267
 10
1.115620136260986
 20
-1.288777112960815
 10
1.118177413940429
 20
-1.288076877593994
 10
1.12071681022644
 20
-1.287334561347961
 10
1.123237967491149
 20
-1.286550521850585
 10
1.12574028968811
 20
-1.285725235939025
 10
1.128223657608032
 20
-1.284859061241149
 10
1.130687594413757
 20
-1.283952355384826
 10
1.133131623268127
 20
-1.283005714416503
 10
1.135555505752563
 20
-1.282019257545471
 10
1.137958645820617
 20
-1.280993580818176
 10
1.140340924263
 20
-1.279929161071777
 10
1.142701864242553
 20
-1.278826236724853
 10
1.145040988922119
 20
-1.277685165405273
 10
1.147358059883117
 20
-1.276506662368774
 10
1.149652600288391
 20
-1.275290846824645
 10
1.15192425251007
 20
-1.274038195610046
 10
1.154172658920288
 20
-1.272749185562133
 10
1.156397342681884
 20
-1.271424174308776
 10
1.158598065376281
 20
-1.270063519477844
 10
1.16077435016632
 20
-1.268667817115783
 10
1.162925839424133
 20
-1.267237186431884
 10
1.16505217552185
 20
-1.265772223472595
 10
1.167152881622314
 20
-1.264273405075073
 10
1.169227719306945
 20
-1.262740969657897
 10
1.171276211738586
 20
-1.261175274848937
 10
1.173298001289367
 20
-1.25957703590393
 10
1.17529273033142
 20
-1.257946252822875
 10
1.177260041236877
 20
-1.2562837600708
 10
1.179199457168579
 20
-1.254589557647705
 10
1.181110620498657
 20
-1.252864360809326
 10
1.182993173599243
 20
-1.251108407974243
 10
1.184846758842468
 20
-1.249322175979614
 10
1.187630534172058
 20
-1.246589183807373
 10
1.190324068069458
 20
-1.2438405752182
 10
1.192955493927001
 20
-1.241002440452575
 10
1.195521593093872
 20
-1.238077878952026
 10
1.19801914691925
 20
-1.23507022857666
 10
1.200444817543029
 20
-1.231982707977294
 10
1.202795505523681
 20
-1.228818655014038
 10
1.205067873001098
 20
-1.225581169128417
 10
1.207258701324462
 20
-1.222273707389831
 10
1.209364652633666
 20
-1.218899369239807
 10
1.211382746696472
 20
-1.215461373329162
 10
1.213309407234191
 20
-1.211963176727294
 10
1.21479332447052
 20
-1.209042429924011
 10
1.215967297554016
 20
-1.206725120544433
 10
1.217129945755004
 20
-1.204360842704772
 10
1.218242168426513
 20
-1.201962828636169
 10
1.219264864921569
 20
-1.199544310569763
 10
1.2206951379776
 20
-1.196119308471679
 10
1.221724987030029
 20
-1.193669199943542
 10
1.222700953483581
 20
-1.191202998161315
 10
1.22362458705902
 20
-1.188722372055053
 10
1.224497437477111
 20
-1.18622887134552
 10
1.225321292877197
 20
-1.183724284172058
 10
1.226097702980041
 20
-1.181210279464721
 10
1.226828336715698
 20
-1.178688287734985
 10
1.227514743804931
 20
-1.176160216331481
 10
1.228158473968505
 20
-1.173627614974975
 10
1.228761434555053
 20
-1.17109203338623
 10
1.229305267333984
 20
-1.168534874916076
 10
1.229732513427734
 20
-1.165875196456909
 10
1.230137109756469
 20
-1.163198351860046
 10
1.230515599250793
 20
-1.160506010055541
 10
1.230864763259887
 20
-1.157800078392028
 10
1.231181502342224
 20
-1.155081868171691
 10
1.231462359428405
 20
-1.152353167533874
 10
1.231704115867614
 20
-1.14961552619934
 10
1.231903553009033
 20
-1.146870613098144
 10
1.232057332992553
 20
-1.144120097160339
 10
1.232162237167358
 20
-1.141365528106689
 10
1.232214927673339
 20
-1.138608694076538
 10
1.232202768325805
 20
-1.13495397567749
 10
1.232136845588684
 20
-1.132184386253356
 10
1.232023119926452
 20
-1.129426836967468
 10
1.231862068176269
 20
-1.126681685447692
 10
1.231653928756713
 20
-1.123949289321899
 10
1.231399059295654
 20
-1.121230125427246
 10
1.231098055839538
 20
-1.118524670600891
 10
1.230751156806945
 20
-1.115833163261413
 10
1.230358839035034
 20
-1.113155961036682
 10
1.229921579360961
 20
-1.110493659973144
 10
1.229439616203308
 20
-1.107846617698669
 10
1.22891342639923
 20
-1.105215191841125
 10
1.228343486785888
 20
-1.102599620819091
 10
1.22773003578186
 20
-1.100000619888305
 10
1.227073550224304
 20
-1.097418427467346
 10
1.226374506950378
 20
-1.094853401184082
 10
1.225633144378662
 20
-1.092306017875671
 10
1.224850058555603
 20
-1.089776635169982
 10
1.22402548789978
 20
-1.087265610694885
 10
1.223159909248352
 20
-1.084773540496826
 10
1.222253799438476
 20
-1.082300543785095
 10
1.221307396888732
 20
-1.079847335815429
 10
1.220321178436279
 20
-1.077414035797119
 10
1.219295501708984
 20
-1.075001120567321
 10
1.218230843544006
 20
-1.072609186172485
 10
1.217127561569213
 20
-1.070238351821899
 10
1.215986132621765
 20
-1.067889213562011
 10
1.214806795120239
 20
-1.065562009811401
 10
1.213590145111083
 20
-1.063257336616516
 10
1.212336421012878
 20
-1.060975432395935
 10
1.21104609966278
 20
-1.058716773986816
 10
1.209719538688659
 20
-1.056481838226318
 10
1.208357214927673
 20
-1.05427086353302
 10
1.20695948600769
 20
-1.052084326744079
 10
1.205526709556579
 20
-1.049922585487365
 10
1.204059362411499
 20
-1.047786116600036
 10
1.202557921409606
 20
-1.04567527770996
 10
1.201022505760192
 20
-1.043590426445007
 10
1.199453711509704
 20
-1.041532039642333
 10
1.1978520154953
 20
-1.039500594139099
 10
1.196217656135559
 20
-1.037496328353881
 10
1.194551110267639
 20
-1.03551959991455
 10
1.192852735519409
 20
-1.033571124076843
 10
1.191123008728027
 20
-1.031650900840759
 10
1.189362287521362
 20
-1.029759645462036
 10
1.187570929527282
 20
-1.027897596359252
 10
1.185749411582946
 20
-1.026065111160278
 10
1.183898091316223
 20
-1.02426278591156
 10
1.18201732635498
 20
-1.022490859031677
 10
1.180107593536376
 20
-1.020749807357788
 10
1.17816936969757
 20
-1.019039988517761
 10
1.176202893257141
 20
-1.017361879348754
 10
1.174208641052246
 20
-1.015715718269348
 10
1.172186970710754
 20
-1.014102101325988
 10
1.170138239860534
 20
-1.012521266937255
 10
1.168063044548034
 20
-1.010973691940307
 10
1.165961623191833
 20
-1.009459853172302
 10
1.163834452629089
 20
-1.007979989051818
 10
1.16168189048767
 20
-1.006534576416015
 10
1.159504294395446
 20
-1.00512409210205
 10
1.157302141189575
 20
-1.003748893737792
 10
1.155075788497924
 20
-1.002409219741821
 10
1.152825713157653
 20
-1.001105666160583
 10
1.15055227279663
 20
-0.999838650226593
 10
1.148255825042724
 20
-0.9986084699630737
 10
1.145936727523803
 20
-0.997415542602539
 10
1.143595576286315
 20
-0.9962602257728576
 10
1.14123260974884
 20
-0.9951430559158325
 10
1.138848304748535
 20
-0.9940643310546875
 10
1.136442899703979
 20
-0.993024468421936
 10
1.134016990661621
 20
-0.9920238256454467
 10
1.131570935249328
 20
-0.9910629391670227
 10
1.12910521030426
 20
-0.9901420474052429
 10
1.126619935035705
 20
-0.9892616868019104
 10
1.124115824699401
 20
-0.988422155380249
 10
1.121593117713928
 20
-0.9876239299774169
 10
1.119052171707153
 20
-0.9868673682212828
 10
1.116493463516235
 20
-0.9861528873443604
 10
1.113917469978332
 20
-0.9854809045791625
 10
1.111324548721313
 20
-0.9848517775535583
 10
1.108714938163757
 20
-0.984265923500061
 10
1.106089234352111
 20
-0.983723759651184
 10
1.103447794914245
 20
-0.9832257032394409
 10
1.100790977478027
 20
-0.9827721118927001
 10
1.098119258880615
 20
-0.9823634028434753
 10
1.095432877540588
 20
-0.9819999933242797
 10
1.092732429504394
 20
-0.9816822409629821
 10
1.090018153190612
 20
-0.9814105629920959
 10
1.087290525436401
 20
-0.9811853766441345
 10
1.084550023078918
 20
-0.9810070991516113
 10
1.081796884536743
 20
-0.9808761477470397
 10
1.079031705856323
 20
-0.9807928204536437
 10
1.076254725456237
 20
-0.9807575941085815
 10
1.075621962547302
 20
-0.9780409336090087
 10
1.075621962547302
 20
-0.9753028154373168
 10
1.075621962547302
 20
-0.9724654555320739
 10
1.075621962547302
 20
-0.9698977470397949
 10
1.075621962547302
 20
-0.9671160578727722
 10
1.075621962547302
 20
-0.9634093642234802
 10
1.075621962547302
 20
-0.9603174924850463
 10
1.075621962547302
 20
-0.9555785655975341
 10
1.075621962547302
 20
-0.9524201154708862
 10
1.075621962547302
 20
-0.9493170380592346
 10
1.075621962547302
 20
-0.9463161826133728
 10
1.075621962547302
 20
-0.9434643983840942
 10
1.075621962547302
 20
-0.9408084154129028
 10
1.075621962547302
 20
-0.9378353357315063
 10
1.075621962547302
 20
-0.9348970055580139
 10
1.075621962547302
 20
-0.9323070049285888
 10
1.078236103057861
 20
-0.931553840637207
 10
1.080944418907165
 20
-0.931553840637207
 10
1.08359146118164
 20
-0.931553840637207
 10
1.086343884468078
 20
-0.9316544532775878
 10
1.089991807937622
 20
-0.9318749308586119
 10
1.093621253967285
 20
-0.9321579337120056
 10
1.09723162651062
 20
-0.9325028657913208
 10
1.100822448730468
 20
-0.9329091906547546
 10
1.104393124580383
 20
-0.9333763718605042
 10
1.107943296432495
 20
-0.9339038729667662
 10
1.111472487449645
 20
-0.9344910979270935
 10
1.114979982376098
 20
-0.9351375699043273
 10
1.118465423583984
 20
-0.9358426332473754
 10
1.121928334236145
 20
-0.9366057515144348
 10
1.125368118286132
 20
-0.9374264478683471
 10
1.128784418106079
 20
-0.9383041262626647
 10
1.132176637649536
 20
-0.9392381906509399
 10
1.135544300079345
 20
-0.9402281641960144
 10
1.13888680934906
 20
-0.9412734508514404
 10
1.1422039270401
 20
-0.9423734545707702
 10
1.145494818687438
 20
-0.9435276985168457
 10
1.148759245872497
 20
-0.9447356462478637
 10
1.151996493339538
 20
-0.9459966421127319
 10
1.155206322669982
 20
-0.9473101496696472
 10
1.158388018608093
 20
-0.9486756920814514
 10
1.161541223526
 20
-0.9500926733016967
 10
1.164665222167968
 20
-0.9515605568885803
 10
1.167759776115417
 20
-0.9530787467956542
 10
1.170824289321899
 20
-0.9546467661857604
 10
1.173858165740966
 20
-0.9562639594078063
 10
1.17686104774475
 20
-0.9579298496246337
 10
1.179832339286804
 20
-0.9596438407897949
 10
1.182771563529968
 20
-0.9614053964614868
 10
1.185678243637084
 20
-0.9632139801979064
 10
1.188551783561706
 20
-0.9650689959526062
 10
1.191391825675964
 20
-0.9669699072837828
 10
1.1941978931427
 20
-0.9689162373542785
 10
1.196969270706176
 20
-0.9709072709083557
 10
1.199705719947814
 20
-0.9729425907135009
 10
1.202406525611877
 20
-0.9750216007232666
 10
1.205071330070495
 20
-0.9771437644958496
 10
1.207699537277221
 20
-0.9793084859848022
 10
1.210290670394897
 20
-0.9815152287483215
 10
1.212844371795654
 20
-0.9837634563446044
 10
1.215359926223754
 20
-0.9860525727272033
 10
1.21783697605133
 20
-0.9883821010589598
 10
1.220274925231933
 20
-0.9907514452934265
 10
1.222673296928405
 20
-0.9931600093841552
 10
1.225031614303588
 20
-0.995607316493988
 10
1.227349400520324
 20
-0.9980927109718322
 10
1.229626178741455
 20
-1.000615715980529
 10
1.231861472129821
 20
-1.003175854682922
 10
1.234054565429687
 20
-1.005772471427917
 10
1.236205220222473
 20
-1.008404970169067
 10
1.238312721252441
 20
-1.011072754859924
 10
1.240376710891723
 20
-1.013775467872619
 10
1.242396712303161
 20
-1.016512513160705
 10
1.244372129440307
 20
-1.019283175468444
 10
1.246302485466003
 20
-1.022087097167968
 10
1.24818730354309
 20
-1.02492356300354
 10
1.250025987625122
 20
-1.02779221534729
 10
1.251818299293518
 20
-1.030692219734191
 10
1.253563404083251
 20
-1.033623218536376
 10
1.255261063575744
 20
-1.036584615707397
 10
1.256910681724548
 20
-1.039575934410095
 10
1.258511662483215
 20
-1.042596459388732
 10
1.260063648223876
 20
-1.045645713806152
 10
1.261566162109375
 20
-1.048723220825195
 10
1.263018488883972
 20
-1.051828384399414
 10
1.264420390129089
 20
-1.054960489273071
 10
1.265771150588989
 20
-1.058119297027587
 10
1.267070412635803
 20
-1.061303973197937
 10
1.268317699432373
 20
-1.06451404094696
 10
1.26951241493225
 20
-1.0677490234375
 10
1.270654082298278
 20
-1.071008205413818
 10
1.271742105484008
 20
-1.074291229248046
 10
1.272776246070861
 20
-1.077597498893737
 10
1.273755669593811
 20
-1.080926299095153
 10
1.274680256843566
 20
-1.084277272224426
 10
1.275549173355102
 20
-1.087649822235107
 10
1.276362061500549
 20
-1.091043233871459
 10
1.277118444442749
 20
-1.094457268714904
 10
1.277817726135253
 20
-1.097890973091125
 10
1.278459548950195
 20
-1.101344108581542
 10
1.279043316841125
 20
-1.104816079139709
 10
1.279568433761596
 20
-1.108306169509887
 10
1.280034661293029
 20
-1.111813902854919
 10
1.280441284179687
 20
-1.115338802337646
 10
1.280787944793701
 20
-1.118880271911621
 10
1.281073927879333
 20
-1.122437715530395
 10
1.281298995018005
 20
-1.126010656356811
 10
1.281462550163269
 20
-1.129598379135131
 10
1.281563997268676
 20
-1.133200526237487
 10
1.28160285949707
 20
-1.136816501617431
 10
1.281578779220581
 20
-1.140445590019226
  0
LWPOLYLINE
  5
97
100
AcDbEntity
  8
LAYER_1
  6
ByLayer
 62
  256
100
AcDbPolyline
 90
  316
 70
    1
 43
0
 10
1.232169866561889
 20
-1.137356519699096
 10
1.232118725776672
 20
-1.133317232131958
 10
1.231965899467468
 20
-1.129303097724914
 10
1.231712937355041
 20
-1.125315189361572
 10
1.231360793113708
 20
-1.121354818344116
 10
1.230910778045654
 20
-1.117423176765441
 10
1.230364084243774
 20
-1.113521456718444
 10
1.229722142219543
 20
-1.109651088714599
 10
1.228985905647277
 20
-1.105813145637512
 10
1.228156924247741
 20
-1.102008819580078
 10
1.227236151695251
 20
-1.098239421844482
 10
1.226224899291992
 20
-1.09450626373291
 10
1.225124478340148
 20
-1.090810418128967
 10
1.223936080932617
 20
-1.087153196334838
 10
1.222661018371582
 20
-1.083535909652709
 10
1.221300363540649
 20
-1.079959630966186
 10
1.219855427742004
 20
-1.076425790786743
 10
1.218327403068542
 20
-1.072935342788696
 10
1.216717600822448
 20
-1.06948983669281
 10
1.215027213096618
 20
-1.06609034538269
 10
1.213257551193237
 20
-1.062738060951232
 10
1.21140968799591
 20
-1.059434175491333
 10
1.209484934806823
 20
-1.056180238723754
 10
1.207484602928161
 20
-1.052977085113525
 10
1.205409884452819
 20
-1.049826145172119
 10
1.203261971473693
 20
-1.046728730201721
 10
1.201042056083679
 20
-1.043685913085937
 10
1.19875156879425
 20
-1.040699005126953
 10
1.196391463279724
 20
-1.037769317626953
 10
1.193963170051574
 20
-1.034897923469543
 10
1.191467881202697
 20
-1.032086133956909
 10
1.188906908035278
 20
-1.029335141181945
 10
1.186281323432922
 20
-1.026646256446838
 10
1.183592438697814
 20
-1.024020671844482
 10
1.180841445922851
 20
-1.021459579467773
 10
1.178029656410217
 20
-1.018964290618896
 10
1.175158262252807
 20
-1.016535997390747
 10
1.172228455543518
 20
-1.01417601108551
 10
1.169241547584533
 20
-1.011885404586791
 10
1.166198849678039
 20
-1.009665608406066
 10
1.163101315498352
 20
-1.00751769542694
 10
1.159950494766235
 20
-1.005442857742309
 10
1.156747341156005
 20
-1.003442525863647
 10
1.153493285179138
 20
-1.00151789188385
 10
1.150189518928527
 20
-0.9996700286865234
 10
1.14683723449707
 20
-0.9979003071784973
 10
1.14343774318695
 20
-0.9962099194526672
 10
1.139992117881774
 20
-0.9946001172065734
 10
1.136501789093017
 20
-0.9930721521377563
 10
1.132967829704284
 20
-0.9916272163391113
 10
1.12939167022705
 20
-0.9902665615081787
 10
1.125774264335632
 20
-0.9889914393424987
 10
1.122117042541503
 20
-0.987803041934967
 10
1.11842131614685
 20
-0.9867026209831237
 10
1.114688038825988
 20
-0.9856914281845092
 10
1.110918760299682
 20
-0.984770655632019
 10
1.107114434242248
 20
-0.9839415550231932
 10
1.103276491165161
 20
-0.9832054376602172
 10
1.099406003952026
 20
-0.9825634360313416
 10
1.095504403114318
 20
-0.9820168018341064
 10
1.091572761535644
 20
-0.9815667867660522
 10
1.087612390518188
 20
-0.9812146425247192
 10
1.083624482154846
 20
-0.9809615612030029
 10
1.079610228538513
 20
-0.9808088541030883
 10
1.075571060180664
 20
-0.9807576537132263
 10
1.075571060180664
 20
-0.9833059906959533
 10
1.075571060180664
 20
-0.9860040545463562
 10
1.075571060180664
 20
-0.9890072345733641
 10
1.075571060180664
 20
-0.9915544390678405
 10
1.075571060180664
 20
-0.9942954778671264
 10
1.075571060180664
 20
-0.9971775412559509
 10
1.075571060180664
 20
-1.000147700309753
 10
1.075571060180664
 20
-1.004153728485107
 10
1.075571060180664
 20
-1.007123947143554
 10
1.075571060180664
 20
-1.010006070137023
 10
1.075571060180664
 20
-1.012747049331665
 10
1.075571060180664
 20
-1.015294194221496
 10
1.075571060180664
 20
-1.017950296401977
 10
1.075571060180664
 20
-1.020736455917358
 10
1.075571060180664
 20
-1.023353099822998
 10
1.07263171672821
 20
-1.023581266403198
 10
1.069710969924926
 20
-1.023692965507507
 10
1.06680941581726
 20
-1.023878097534179
 10
1.063928246498107
 20
-1.024135708808898
 10
1.061068058013916
 20
-1.024464726448059
 10
1.058229923248291
 20
-1.024864435195922
 10
1.055414676666259
 20
-1.025333881378173
 10
1.052623152732849
 20
-1.025871992111206
 10
1.049856424331665
 20
-1.026478052139282
 10
1.047115206718444
 20
-1.027150988578796
 10
1.044400334358215
 20
-1.027889847755432
 10
1.041712999343872
 20
-1.028693914413452
 10
1.039053797721862
 20
-1.02956211566925
 10
1.036423683166503
 20
-1.03049349784851
 10
1.033823728561401
 20
-1.031487226486206
 10
1.031254649162292
 20
-1.03254234790802
 10
1.028717279434204
 20
-1.033658027648925
 10
1.026212692260742
 20
-1.034833192825317
 10
1.023741722106933
 20
-1.036067008972167
 10
1.021305203437805
 20
-1.03735864162445
 10
1.018903970718383
 20
-1.038707017898559
 10
1.016539096832275
 20
-1.040111184120178
 10
1.014211416244506
 20
-1.041570425033569
 10
1.011921644210815
 20
-1.043083667755126
 10
1.009670853614807
 20
-1.044649958610534
 10
1.007459998130798
 20
-1.046268463134765
 10
1.005289673805236
 20
-1.047938346862792
 10
1.003161072731018
 20
-1.04965853691101
 10
1.001075029373168
 20
-1.051428079605102
 10
0.9990322589874266
 20
-1.053246259689331
 10
0.9970338344573973
 20
-1.05511200428009
 10
0.9950805902481079
 20
-1.057024359703063
 10
0.9931733608245848
 20
-1.058982491493225
 10
0.9913131594657897
 20
-1.060985565185546
 10
0.9895007610321044
 20
-1.063032388687133
 10
0.9877370595932006
 20
-1.065122365951538
 10
0.9860230684280396
 20
-1.067254304885864
 10
0.9843595623970031
 20
-1.069427371025085
 10
0.9827474951744078
 20
-1.071640729904174
 10
0.9811877012252807
 20
-1.073893427848815
 10
0.9796810746192932
 20
-1.076184391975402
 10
0.9782285690307617
 20
-1.078512907028198
 10
0.9768310189247131
 20
-1.080878019332885
 10
0.9754893779754638
 20
-1.083278656005859
 10
0.9742044806480407
 20
-1.085714101791381
 10
0.9729772210121154
 20
-1.088183283805847
 10
0.9718084931373596
 20
-1.090685248374938
 10
0.9706992506980895
 20
-1.093219280242919
 10
0.9696502685546875
 20
-1.095784306526184
 10
0.9686625599861145
 20
-1.098379373550415
 10
0.9677368998527526
 20
-1.101003766059875
 10
0.9668743014335632
 20
-1.103656291961669
 10
0.9660755395889282
 20
-1.106336236000061
 10
0.965341567993164
 20
-1.109042525291442
 10
0.9646732807159423
 20
-1.111774325370788
 10
0.9640715718269348
 20
-1.114530801773071
 10
0.9635372757911682
 20
-1.117310881614685
 10
0.9630713462829589
 20
-1.120113611221313
 10
0.9626746773719786
 20
-1.122938275337219
 10
0.9623481035232543
 20
-1.125783801078796
 10
0.9620925784111022
 20
-1.128649353981018
 10
0.9619089365005493
 20
-1.131533861160278
 10
0.961798071861267
 20
-1.134436607360839
 10
0.961760938167572
 20
-1.137356519699096
 10
0.9592126011848449
 20
-1.137356519699096
 10
0.9565145373344421
 20
-1.137356519699096
 10
0.953511357307434
 20
-1.137356519699096
 10
0.9509642124176025
 20
-1.137356519699096
 10
0.9482231140136718
 20
-1.137356519699096
 10
0.9453410506248474
 20
-1.137356519699096
 10
0.9423708319664001
 20
-1.137356519699096
 10
0.9383648633956909
 20
-1.137356519699096
 10
0.9353946447372437
 20
-1.137356519699096
 10
0.9325125813484191
 20
-1.137356519699096
 10
0.9297715425491333
 20
-1.137356519699096
 10
0.9272243976593016
 20
-1.137356519699096
 10
0.9245682954788208
 20
-1.137356519699096
 10
0.9217820763587951
 20
-1.137356519699096
 10
0.919165551662445
 20
-1.137356519699096
 10
0.9190259575843811
 20
-1.141395807266235
 10
0.9191787242889404
 20
-1.145409941673278
 10
0.9194317460060119
 20
-1.149397850036621
 10
0.9197838902473449
 20
-1.153358221054077
 10
0.9202338457107543
 20
-1.157289862632751
 10
0.9207804799079895
 20
-1.161191463470458
 10
0.9214224815368652
 20
-1.165061831474304
 10
0.9221585988998413
 20
-1.168899774551391
 10
0.9229876399040222
 20
-1.172704100608825
 10
0.9239083528518676
 20
-1.176473379135131
 10
0.9249195456504821
 20
-1.180206537246704
 10
0.9260199069976806
 20
-1.183902382850646
 10
0.9272082448005676
 20
-1.187559485435485
 10
0.9284833669662474
 20
-1.191176772117614
 10
0.9298439621925354
 20
-1.194753050804138
 10
0.9312888979911804
 20
-1.198286890983581
 10
0.9328168034553527
 20
-1.201777219772338
 10
0.9344265460968016
 20
-1.205222725868225
 10
0.9361168742179869
 20
-1.208622217178344
 10
0.9378865361213684
 20
-1.211974382400512
 10
0.9397343397140502
 20
-1.215278148651123
 10
0.9416589736938475
 20
-1.218532085418701
 10
0.9436592459678649
 20
-1.221735119819641
 10
0.9457339644432067
 20
-1.224885940551757
 10
0.9478818178176879
 20
-1.227983355522155
 10
0.950101613998413
 20
-1.231026172637939
 10
0.9523921012878417
 20
-1.234012961387634
 10
0.9547520875930786
 20
-1.236942648887634
 10
0.9571803212165833
 20
-1.239814043045043
 10
0.9596755504608154
 20
-1.242625713348388
 10
0.9622365236282348
 20
-1.245376586914062
 10
0.964862048625946
 20
-1.248065471649169
 10
0.9675508737564086
 20
-1.250691056251525
 10
0.9703018069267272
 20
-1.253252029418945
 10
0.9731135368347167
 20
-1.255747199058532
 10
0.9759848713874816
 20
-1.258175492286682
 10
0.9789145588874816
 20
-1.260535478591918
 10
0.9819014072418212
 20
-1.262825965881347
 10
0.9849441647529602
 20
-1.265045762062072
 10
0.9880415201187133
 20
-1.267193555831909
 10
0.9911924004554749
 20
-1.26926827430725
 10
0.9943954348564147
 20
-1.271268606185913
 10
0.9976494312286376
 20
-1.27319324016571
 10
1.000953078269958
 20
-1.275040984153747
 10
1.004305362701416
 20
-1.276810646057128
 10
1.007704854011535
 20
-1.278501033782958
 10
1.011150360107421
 20
-1.280110716819763
 10
1.014640688896179
 20
-1.281638622283935
 10
1.018174529075622
 20
-1.28308355808258
 10
1.021750688552856
 20
-1.284444212913513
 10
1.025367975234985
 20
-1.285719275474548
 10
1.029025197029113
 20
-1.28690767288208
 10
1.032720923423767
 20
-1.288007974624633
 10
1.036454081535339
 20
-1.289019227027893
 10
1.040223479270935
 20
-1.289939880371093
 10
1.044027686119079
 20
-1.290768980979919
 10
1.047865629196166
 20
-1.291505098342895
 10
1.051736116409301
 20
-1.292147040367126
 10
1.055637717247009
 20
-1.292693614959716
 10
1.059569358825683
 20
-1.29314363002777
 10
1.063529729843139
 20
-1.293495774269104
 10
1.067517638206481
 20
-1.29374885559082
 10
1.071531772613525
 20
-1.293901562690734
 10
1.075571060180664
 20
-1.293952703475952
 10
1.075571060180664
 20
-1.291404366493225
 10
1.075571060180664
 20
-1.288706302642822
 10
1.075571060180664
 20
-1.285703182220458
 10
1.075571060180664
 20
-1.283156037330627
 10
1.075571060180664
 20
-1.280414938926696
 10
1.075571060180664
 20
-1.277532815933227
 10
1.075571060180664
 20
-1.274562716484069
 10
1.075571060180664
 20
-1.270556688308715
 10
1.075571060180664
 20
-1.267586469650268
 10
1.075571060180664
 20
-1.264704346656799
 10
1.075571060180664
 20
-1.261963367462158
 10
1.075571060180664
 20
-1.259416222572326
 10
1.075571060180664
 20
-1.256760120391845
 10
1.075571060180664
 20
-1.253973960876464
 10
1.075571060180664
 20
-1.251357316970825
 10
1.07849097251892
 20
-1.251129388809204
 10
1.081393599510192
 20
-1.251018643379211
 10
1.084278225898742
 20
-1.250834941864013
 10
1.087143778800964
 20
-1.250579476356506
 10
1.089989304542541
 20
-1.250252842903137
 10
1.092813849449157
 20
-1.249856114387512
 10
1.095616698265075
 20
-1.249390244483947
 10
1.098396778106689
 20
-1.248855948448181
 10
1.101153135299682
 20
-1.248254179954528
 10
1.103885054588317
 20
-1.247585892677307
 10
1.106591343879699
 20
-1.246852040290832
 10
1.10927128791809
 20
-1.246053218841552
 10
1.111923813819885
 20
-1.245190620422363
 10
1.114548087120056
 20
-1.244264960289001
 10
1.117143273353576
 20
-1.243277192115783
 10
1.11970829963684
 20
-1.242228269577026
 10
1.122242212295532
 20
-1.241119027137756
 10
1.124744296073913
 20
-1.239950299263
 10
1.127213478088378
 20
-1.238723039627075
 10
1.129648923873901
 20
-1.237438201904296
 10
1.132049560546875
 20
-1.236096501350402
 10
1.134414553642272
 20
-1.234699010848999
 10
1.136743068695068
 20
-1.233246445655822
 10
1.139034152030944
 20
-1.231739878654479
 10
1.141286849975585
 20
-1.230180025100708
 10
1.143500208854675
 20
-1.228567957878112
 10
1.145673274993896
 20
-1.226904511451721
 10
1.147805213928222
 20
-1.22519040107727
 10
1.149895071983337
 20
-1.223426818847656
 10
1.151942014694213
 20
-1.221614360809326
 10
1.153944969177246
 20
-1.219754099845886
 10
1.155903100967407
 20
-1.217846989631652
 10
1.15781557559967
 20
-1.215893745422363
 10
1.159681320190429
 20
-1.213895201683044
 10
1.161499381065368
 20
-1.211852550506591
 10
1.16326904296875
 20
-1.209766387939453
 10
1.164989233016967
 20
-1.207637786865234
 10
1.166658997535705
 20
-1.205467581748962
 10
1.168277621269226
 20
-1.203256607055664
 10
1.169843912124633
 20
-1.201005935668945
 10
1.171357154846191
 20
-1.198716163635253
 10
1.172816395759582
 20
-1.196388483047485
 10
1.174220561981201
 20
-1.194023489952087
 10
1.17556893825531
 20
-1.191622376441955
 10
1.176860451698303
 20
-1.189185857772827
 10
1.178094267845153
 20
-1.186714768409729
 10
1.179269552230834
 20
-1.184210181236267
 10
1.180385112762451
 20
-1.181672930717468
 10
1.181440353393554
 20
-1.179103851318359
 10
1.18243408203125
 20
-1.176503777503967
 10
1.18336546421051
 20
-1.173873782157897
 10
1.184233665466308
 20
-1.171214580535888
 10
1.185037612915039
 20
-1.168527126312255
 10
1.185776591300964
 20
-1.165812373161315
 10
1.186449527740478
 20
-1.163071155548095
 10
1.187055468559265
 20
-1.160304427146911
 10
1.187593698501586
 20
-1.1575129032135
 10
1.188063025474548
 20
-1.154697656631469
 10
1.188462734222412
 20
-1.151859521865844
 10
1.188791871070861
 20
-1.148999333381652
 10
1.189049363136291
 20
-1.14611804485321
 10
1.189234495162963
 20
-1.143216609954833
 10
1.189346313476562
 20
-1.14029574394226
 10
1.189383745193481
 20
-1.137356519699096
 10
1.191932082176208
 20
-1.137356519699096
 10
1.194630146026611
 20
-1.137356519699096
 10
1.197633266448974
 20
-1.137356519699096
 10
1.200180411338806
 20
-1.137356519699096
 10
1.202921509742736
 20
-1.137356519699096
 10
1.205803632736206
 20
-1.137356519699096
 10
1.208773851394653
 20
-1.137356519699096
 10
1.212779760360717
 20
-1.137356519699096
 10
1.215749979019165
 20
-1.137356519699096
 10
1.218632102012634
 20
-1.137356519699096
 10
1.221373081207275
 20
-1.137356519699096
 10
1.223920226097106
 20
-1.137356519699096
 10
1.226576328277587
 20
-1.137356519699096
 10
1.229362607002258
 20
-1.137356519699096
  0
LWPOLYLINE
  5
98
100
AcDbEntity
  8
LAYER_1
  6
ByLayer
 62
  256
100
AcDbPolyline
 90
  521
 70
    1
 43
0
 10
1.984375
 20
-0.707672119140625
 10
1.98297905921936
 20
-0.7101070284843445
 10
1.981569528579711
 20
-0.7125825881958008
 10
1.980146646499633
 20
-0.7150982022285463
 10
1.978710532188415
 20
-0.7176532149314881
 10
1.977261424064636
 20
-0.720246970653534
 10
1.975799560546875
 20
-0.7228788733482361
 10
1.974325299263
 20
-0.7255482077598572
 10
1.972838640213012
 20
-0.7282543778419495
 10
1.97133982181549
 20
-0.7309967279434204
 10
1.969829201698303
 20
-0.7337746024131775
 10
1.968307018280029
 20
-0.7365874052047729
 10
1.966773271560668
 20
-0.7394343614578247
 10
1.96522831916809
 20
-0.7423149347305298
 10
1.963672280311584
 20
-0.7452284693717957
 10
1.962105512619018
 20
-0.7481743097305298
 10
1.960528135299682
 20
-0.7511518001556396
 10
1.958940386772155
 20
-0.7541602849960328
 10
1.957342505455017
 20
-0.7571991086006165
 10
1.955734729766845
 20
-0.7602676749229432
 10
1.954117178916931
 20
-0.7633652687072754
 10
1.952490091323852
 20
-0.7664913535118103
 10
1.950853824615478
 20
-0.7696451544761658
 10
1.949208378791809
 20
-0.7728261351585389
 10
1.947554111480712
 20
-0.7760335803031922
 10
1.945891261100769
 20
-0.7792668342590332
 10
1.944219946861267
 20
-0.7825253009796143
 10
1.942540407180786
 20
-0.7858083248138428
 10
1.940852880477905
 20
-0.7891152501106263
 10
1.939157485961914
 20
-0.7924454212188721
 10
1.93745470046997
 20
-0.7957981824874878
 10
1.935744524002075
 20
-0.7991729378700257
 10
1.934027194976806
 20
-0.8025689721107482
 10
1.930571913719177
 20
-0.8094224333763121
 10
1.927090883255004
 20
-0.816353440284729
 10
1.923585534095764
 20
-0.823356807231903
 10
1.920057773590087
 20
-0.8304272890090942
 10
1.916509389877319
 20
-0.8375598192214965
 10
1.912941813468933
 20
-0.8447492122650146
 10
1.909357070922851
 20
-0.8519902825355529
 10
1.905756711959838
 20
-0.8592778444290161
 10
1.902142643928527
 20
-0.8666067719459533
 10
1.898516416549682
 20
-0.8739718198776245
 10
1.894879698753356
 20
-0.8813679218292236
 10
1.891234517097473
 20
-0.8887898325920104
 10
1.883924961090087
 20
-0.9036905169487
 10
1.876601696014404
 20
-0.9186325669288635
 10
1.869278311729431
 20
-0.933574616909027
 10
1.861968755722045
 20
-0.9484753012657166
 10
1.858323574066162
 20
-0.9558972120285034
 10
1.854686975479125
 20
-0.9632933139801025
 10
1.85106074810028
 20
-0.9706583619117736
 10
1.84744656085968
 20
-0.9779872894287109
 10
1.843846201896667
 20
-0.985274851322174
 10
1.840261459350585
 20
-0.9925158619880676
 10
1.836694002151489
 20
-0.9997052550315856
 10
1.833145499229431
 20
-1.006837844848632
 10
1.829617738723754
 20
-1.013908267021179
 10
1.826112389564514
 20
-1.020911693572998
 10
1.822631359100341
 20
-1.02784264087677
 10
1.819176197052001
 20
-1.034696102142333
 10
1.817458868026733
 20
-1.038092255592346
 10
1.815748572349548
 20
-1.041466951370239
 10
1.814045786857604
 20
-1.044819712638854
 10
1.812350511550903
 20
-1.048149943351745
 10
1.810662984848022
 20
-1.051456809043884
 10
1.808983445167541
 20
-1.054739832878112
 10
1.807312130928039
 20
-1.057998299598693
 10
1.805649161338806
 20
-1.061231613159179
 10
1.803994894027709
 20
-1.064438939094543
 10
1.80234956741333
 20
-1.067619919776916
 10
1.800713181495666
 20
-1.070773720741271
 10
1.799086093902587
 20
-1.073899865150451
 10
1.797468543052673
 20
-1.076997399330139
 10
1.795860767364501
 20
-1.080065965652465
 10
1.794262886047363
 20
-1.083104848861694
 10
1.792675137519836
 20
-1.086113333702087
 10
1.7910977602005
 20
-1.089090824127197
 10
1.789530992507934
 20
-1.092036604881286
 10
1.787975072860717
 20
-1.094950199127197
 10
1.78643000125885
 20
-1.097830772399902
 10
1.784896373748779
 20
-1.100677728652954
 10
1.783374071121215
 20
-1.103490471839904
 10
1.781863451004028
 20
-1.106268405914306
 10
1.780364632606506
 20
-1.109010696411132
 10
1.778877973556518
 20
-1.111716866493225
 10
1.777403712272644
 20
-1.114386200904846
 10
1.775941848754882
 20
-1.117018103599548
 10
1.774492859840393
 20
-1.119611859321594
 10
1.773056745529174
 20
-1.122166872024536
 10
1.771633744239807
 20
-1.124682545661926
 10
1.770224213600158
 20
-1.127158164978027
 10
1.768828272819519
 20
-1.129593014717102
 10
1.766434431076049
 20
-1.13046908378601
 10
1.763514161109924
 20
-1.131537795066833
 10
1.76039445400238
 20
-1.132679462432861
 10
1.757613778114318
 20
-1.133697152137756
 10
1.754466772079467
 20
-1.134848833084106
 10
1.750963687896728
 20
-1.136130809783935
 10
1.748435735702514
 20
-1.137055993080139
 10
1.745757102966308
 20
-1.138036251068115
 10
1.742931127548217
 20
-1.139070510864257
 10
1.739960670471191
 20
-1.140157580375671
 10
1.736848950386047
 20
-1.14129638671875
 10
1.733598947525024
 20
-1.142485737800598
 10
1.730213642120361
 20
-1.143724560737609
 10
1.726696372032165
 20
-1.145011782646179
 10
1.723049998283386
 20
-1.14634621143341
 10
1.719277739524841
 20
-1.147726774215698
 10
1.715382575988769
 20
-1.149152278900146
 10
1.711367487907409
 20
-1.150621652603149
 10
1.707235693931579
 20
-1.152133703231811
 10
1.702990293502807
 20
-1.153687477111816
 10
1.698634266853332
 20
-1.155281543731689
 10
1.694170594215393
 20
-1.156915068626403
 10
1.689602613449096
 20
-1.158586859703063
 10
1.684933185577392
 20
-1.160295724868774
 10
1.680165410041809
 20
-1.162040591239929
 10
1.677745580673217
 20
-1.162926077842712
 10
1.675302386283874
 20
-1.163820266723632
 10
1.672836184501647
 20
-1.164722800254821
 10
1.670347213745117
 20
-1.165633678436279
 10
1.667836070060729
 20
-1.166552662849426
 10
1.665302991867065
 20
-1.167479634284973
 10
1.662748456001281
 20
-1.168414592742919
 10
1.660172700881958
 20
-1.169357180595397
 10
1.654959440231323
 20
-1.171265006065368
 10
1.649666428565979
 20
-1.173202157020568
 10
1.644296407699584
 20
-1.175167322158813
 10
1.638852834701538
 20
-1.177159547805786
 10
1.633338451385498
 20
-1.179177641868591
 10
1.627756595611572
 20
-1.181220412254333
 10
1.622110128402709
 20
-1.183286786079406
 10
1.616402268409729
 20
-1.185375690460205
 10
1.610635995864868
 20
-1.187485933303833
 10
1.604814410209655
 20
-1.189616441726684
 10
1.59894061088562
 20
-1.191766023635864
 10
1.593017697334289
 20
-1.193933606147766
 10
1.587048649787902
 20
-1.196118116378784
 10
1.581036567687988
 20
-1.198318243026733
 10
1.574984669685363
 20
-1.200533032417297
 10
1.568895816802978
 20
-1.20276141166687
 10
1.56277310848236
 20
-1.205002069473266
 10
1.556619763374328
 20
-1.20725393295288
 10
1.55043876171112
 20
-1.209516048431396
 10
1.544233202934265
 20
-1.211787104606628
 10
1.538006067276
 20
-1.214065909385681
 10
1.525499582290649
 20
-1.218642950057983
 10
1.512943983078002
 20
-1.223237752914428
 10
1.500363826751708
 20
-1.227841734886169
 10
1.487783670425415
 20
-1.23244559764862
 10
1.475228071212768
 20
-1.237040519714355
 10
1.462721586227416
 20
-1.241617441177368
 10
1.456494569778442
 20
-1.24389636516571
 10
1.450288891792297
 20
-1.246167421340942
 10
1.444107890129089
 20
-1.248429417610168
 10
1.437954545021057
 20
-1.250681400299072
 10
1.431831955909729
 20
-1.252922058105468
 10
1.425743103027343
 20
-1.255150318145751
 10
1.419691085815429
 20
-1.257365226745605
 10
1.413679003715515
 20
-1.259565353393554
 10
1.407709956169128
 20
-1.261749863624572
 10
1.401787042617797
 20
-1.263917446136474
 10
1.395913243293762
 20
-1.266067028045654
 10
1.390091657638549
 20
-1.268197536468505
 10
1.384325504302978
 20
-1.270307779312133
 10
1.378617525100708
 20
-1.272396683692932
 10
1.372971177101135
 20
-1.274463057518005
 10
1.367389202117919
 20
-1.276505827903747
 10
1.361874938011169
 20
-1.278523921966552
 10
1.356431245803833
 20
-1.280516147613525
 10
1.351061344146728
 20
-1.28248131275177
 10
1.345768213272094
 20
-1.28441834449768
 10
1.340554952621459
 20
-1.28632628917694
 10
1.337979316711425
 20
-1.287268877029418
 10
1.335424661636352
 20
-1.288203716278076
 10
1.332891583442687
 20
-1.289130806922912
 10
1.3303804397583
 20
-1.290049791336059
 10
1.32789146900177
 20
-1.290960669517517
 10
1.325425267219543
 20
-1.291863203048706
 10
1.3229820728302
 20
-1.292757391929626
 10
1.320562243461608
 20
-1.293642878532409
 10
1.318166255950927
 20
-1.294519782066345
 10
1.31344735622406
 20
-1.296246767044067
 10
1.308828234672546
 20
-1.297937154769897
 10
1.304311990737915
 20
-1.299589991569519
 10
1.299901843070983
 20
-1.301203966140747
 10
1.295600652694702
 20
-1.302778005599975
 10
1.291411638259887
 20
-1.304311037063598
 10
1.287337899208068
 20
-1.30580186843872
 10
1.283382415771484
 20
-1.307249426841735
 10
1.279548287391662
 20
-1.308652639389038
 10
1.275838494300842
 20
-1.310010194778442
 10
1.27225637435913
 20
-1.311321258544921
 10
1.268804669380187
 20
-1.312584400177001
 10
1.265486717224121
 20
-1.313798666000366
 10
1.262305378913879
 20
-1.314962863922119
 10
1.25926399230957
 20
-1.316075921058654
 10
1.256365299224853
 20
-1.317136764526367
 10
1.253612637519836
 20
-1.31814420223236
 10
1.251008987426757
 20
-1.31909704208374
 10
1.248557329177856
 20
-1.319994211196899
 10
1.245171904563903
 20
-1.3212331533432
 10
1.242145776748657
 20
-1.322340607643127
 10
1.239489555358886
 20
-1.323312759399414
 10
1.236541152000427
 20
-1.324391722679138
 10
1.233843564987182
 20
-1.325378894805908
 10
1.231194257736206
 20
-1.324503540992736
 10
1.232971787452697
 20
-1.320833086967468
 10
1.23542582988739
 20
-1.318716883659362
 10
1.237850666046142
 20
-1.316568136215209
 10
1.240246176719665
 20
-1.314387321472167
 10
1.24261200428009
 20
-1.312174797058105
 10
1.244947671890258
 20
-1.309930920600891
 10
1.247252941131591
 20
-1.307655930519104
 10
1.24952745437622
 20
-1.305350065231323
 10
1.251770853996276
 20
-1.303013920783996
 10
1.253982901573181
 20
-1.300647616386413
 10
1.256163239479064
 20
-1.298251509666442
 10
1.25831139087677
 20
-1.295826077461242
 10
1.260427236557006
 20
-1.293371438980102
 10
1.262510418891906
 20
-1.29088807106018
 10
1.264560461044311
 20
-1.288376212120056
 10
1.266577124595642
 20
-1.285836338996887
 10
1.268560051918029
 20
-1.283268690109252
 10
1.270509004592895
 20
-1.280673503875732
 10
1.272423505783081
 20
-1.278051257133483
 10
1.274303317070007
 20
-1.275402188301086
 10
1.276148080825805
 20
-1.272726774215698
 10
1.277957439422607
 20
-1.270025134086608
 10
1.279731035232543
 20
-1.267297744750976
 10
1.281468749046325
 20
-1.26454484462738
 10
1.283169984817504
 20
-1.261766910552978
 10
1.284834504127502
 20
-1.25896406173706
 10
1.286462068557739
 20
-1.256136894226074
 10
1.288052320480346
 20
-1.253285527229309
 10
1.289604783058166
 20
-1.250410318374633
 10
1.291119217872619
 20
-1.247511625289916
 10
1.292595386505126
 20
-1.244589805603027
 10
1.29403281211853
 20
-1.241645216941833
 10
1.29543113708496
 20
-1.238678216934204
 10
1.296790242195129
 20
-1.235688924789428
 10
1.298109650611877
 20
-1.232677817344665
 10
1.299389004707336
 20
-1.229645371437072
 10
1.300628066062927
 20
-1.226591706275939
 10
1.301826357841491
 20
-1.223517179489135
 10
1.30298376083374
 20
-1.220422148704528
 10
1.304099798202514
 20
-1.217306971549987
 10
1.305174112319946
 20
-1.214172005653381
 10
1.306206583976745
 20
-1.211017489433288
 10
1.307196617126464
 20
-1.207843780517578
 10
1.308143973350524
 20
-1.204651236534118
 10
1.309048414230346
 20
-1.201440215110778
 10
1.309909462928771
 20
-1.198211073875427
 10
1.310726881027221
 20
-1.194964051246643
 10
1.311500310897827
 20
-1.191699504852294
 10
1.312229514122009
 20
-1.188417792320251
 10
1.312914013862609
 20
-1.185119152069091
 10
1.31355345249176
 20
-1.181804060935974
 10
1.31414771080017
 20
-1.178472876548767
 10
1.314696311950683
 20
-1.17512571811676
 10
1.315198898315429
 20
-1.171763062477111
 10
1.31565523147583
 20
-1.1683851480484
 10
1.316064953804016
 20
-1.164992451667785
 10
1.316427707672119
 20
-1.161585211753845
 10
1.31674313545227
 20
-1.158163666725158
 10
1.317010998725891
 20
-1.154728412628173
 10
1.317230820655822
 20
-1.15127944946289
 10
1.317402362823486
 20
-1.147817373275756
 10
1.317525386810302
 20
-1.144342422485351
 10
1.317599415779113
 20
-1.140854954719543
 10
1.31762409210205
 20
-1.137355208396911
 10
1.317597866058349
 20
-1.133739948272705
 10
1.317519187927246
 20
-1.13013756275177
 10
1.317388534545898
 20
-1.126548290252685
 10
1.317206263542175
 20
-1.12297248840332
 10
1.316972732543945
 20
-1.119410753250122
 10
1.316688179969787
 20
-1.11586320400238
 10
1.31635308265686
 20
-1.112330317497253
 10
1.315967798233032
 20
-1.108812570571899
 10
1.315532684326171
 20
-1.105310201644897
 10
1.315047979354858
 20
-1.101823687553405
 10
1.31451416015625
 20
-1.098353385925292
 10
1.313931465148925
 20
-1.094899535179138
 10
1.313300371170043
 20
-1.091462731361389
 10
1.312621235847473
 20
-1.088043332099914
 10
1.311894297599792
 20
-1.084641575813293
 10
1.31112003326416
 20
-1.081257939338684
 10
1.310298681259155
 20
-1.077892780303955
 10
1.309430718421936
 20
-1.074546456336975
 10
1.308516383171081
 20
-1.071219325065612
 10
1.30755615234375
 20
-1.067911863327026
 10
1.30655026435852
 20
-1.064624309539794
 10
1.305499196052551
 20
-1.061357259750366
 10
1.304403185844421
 20
-1.058110833168029
 10
1.303262591361999
 20
-1.054885625839233
 10
1.302077889442443
 20
-1.051681876182556
 10
1.300849318504333
 20
-1.048500061035156
 10
1.299577355384826
 20
-1.045340538024902
 10
1.298262119293212
 20
-1.042203664779663
 10
1.296904206275939
 20
-1.039089679718017
 10
1.295503973960876
 20
-1.035999298095703
 10
1.294061541557312
 20
-1.032932519912719
 10
1.292577505111694
 20
-1.029890060424804
 10
1.291052103042602
 20
-1.026872038841247
 10
1.289485692977905
 20
-1.023879051208496
 10
1.287878632545471
 20
-1.020911216735839
 10
1.286231398582458
 20
-1.017969250679016
 10
1.284544110298156
 20
-1.015053153038024
 10
1.282817363739013
 20
-1.012163639068603
 10
1.281051278114318
 20
-1.009300947189331
 10
1.27924644947052
 20
-1.006465435028076
 10
1.277403116226196
 20
-1.003657460212707
 10
1.275521636009216
 20
-1.000877499580383
 10
1.273602247238159
 20
-0.9981258511543273
 10
1.271645545959472
 20
-0.9954029321670532
 10
1.269651770591735
 20
-0.9927091002464294
 10
1.267621159553527
 20
-0.9900447726249694
 10
1.265554308891296
 20
-0.9874103069305419
 10
1.263451337814331
 20
-0.9848060607910156
 10
1.261312842369079
 20
-0.9822324514389038
 10
1.259138941764831
 20
-0.9796898365020751
 10
1.256930112838745
 20
-0.9771786332130432
 10
1.254686713218688
 20
-0.9746991395950317
 10
1.252408981323242
 20
-0.9722517728805541
 10
1.250097513198852
 20
-0.969836950302124
 10
1.247752428054809
 20
-0.9674550294876098
 10
1.245374083518981
 20
-0.9651063680648803
 10
1.242963075637817
 20
-0.9627913832664489
 10
1.240519523620605
 20
-0.9605104327201843
 10
1.238043904304504
 20
-0.958263874053955
 10
1.235536456108093
 20
-0.9560521245002745
 10
1.232997775077819
 20
-0.9538754820823669
 10
1.230427861213684
 20
-0.9517344832420349
 10
1.227827429771423
 20
-0.9496293663978576
 10
1.225196480751037
 20
-0.9475606083869934
 10
1.223344802856445
 20
-0.9453707933425903
 10
1.225790500640869
 20
-0.9438437223434448
 10
1.228206634521484
 20
-0.942732036113739
 10
1.230654597282409
 20
-0.9416056871414183
 10
1.233542442321777
 20
-0.9402769804000854
 10
1.235987067222595
 20
-0.9391521215438842
 10
1.238662838935852
 20
-0.9379209876060485
 10
1.241562724113464
 20
-0.9365867376327514
 10
1.244679689407348
 20
-0.935152530670166
 10
1.24800682067871
 20
-0.9336217045783995
 10
1.250338196754455
 20
-0.9325490593910217
 10
1.252757668495178
 20
-0.9314357638359069
 10
1.255263328552246
 20
-0.9302828907966613
 10
1.257853031158447
 20
-0.9290913343429565
 10
1.261890530586242
 20
-0.9272335767745971
 10
1.264681220054626
 20
-0.9259495735168457
 10
1.26754879951477
 20
-0.9246301651000975
 10
1.270491003990173
 20
-0.9232764244079589
 10
1.273505806922912
 20
-0.921889305114746
 10
1.276591181755065
 20
-0.9204696416854858
 10
1.27974510192871
 20
-0.9190185070037841
 10
1.282965302467346
 20
-0.9175368547439575
 10
1.286249876022338
 20
-0.9160255193710327
 10
1.289596796035766
 20
-0.9144856333732604
 10
1.293003797531127
 20
-0.9129179716110229
 10
1.29646897315979
 20
-0.911323606967926
 10
1.299990057945251
 20
-0.9097034931182861
 10
1.303565144538879
 20
-0.9080585241317749
 10
1.307192206382751
 20
-0.9063897132873535
 10
1.310868978500366
 20
-0.9046979546546936
 10
1.31459355354309
 20
-0.9029842615127563
 10
1.318363666534423
 20
-0.9012495279312133
 10
1.322177410125732
 20
-0.8994947671890258
 10
1.326032757759094
 20
-0.8977209329605103
 10
1.329927444458007
 20
-0.8959289193153381
 10
1.33385944366455
 20
-0.8941197395324707
 10
1.3378267288208
 20
-0.8922943472862243
 10
1.341827273368835
 20
-0.8904536366462708
 10
1.345858931541442
 20
-0.888598620891571
 10
1.3499196767807
 20
-0.8867302536964417
 10
1.354007244110107
 20
-0.8848494291305541
 10
1.358119845390319
 20
-0.8829572200775146
 10
1.362255334854125
 20
-0.8810544610023499
 10
1.370586276054382
 20
-0.8772212266921997
 10
1.378983616828918
 20
-0.8733574748039244
 10
1.387430906295776
 20
-0.8694708347320556
 10
1.40440821647644
 20
-0.861659288406372
 10
1.421385645866394
 20
-0.8538477420806884
 10
1.429832816123962
 20
-0.8499611020088195
 10
1.438230276107788
 20
-0.8460973501205444
 10
1.446561217308044
 20
-0.8422641158103942
 10
1.450696587562561
 20
-0.8403614163398742
 10
1.454809188842773
 20
-0.8384691476821899
 10
1.458896875381469
 20
-0.8365883231163024
 10
1.462957620620727
 20
-0.834719955921173
 10
1.466989159584045
 20
-0.8328649401664733
 10
1.47098970413208
 20
-0.8310242295265197
 10
1.47495698928833
 20
-0.8291988372802734
 10
1.478889107704162
 20
-0.827389657497406
 10
1.482783794403076
 20
-0.8255976438522338
 10
1.486639022827148
 20
-0.8238238096237182
 10
1.490452766418457
 20
-0.8220690488815307
 10
1.494222998619079
 20
-0.8203343152999877
 10
1.497947454452514
 20
-0.8186206221580505
 10
1.501624345779418
 20
-0.8169288635253906
 10
1.505251288414001
 20
-0.8152600526809692
 10
1.508826375007629
 20
-0.813615083694458
 10
1.51234757900238
 20
-0.8119949698448181
 10
1.515812754631042
 20
-0.8104006052017211
 10
1.519219756126403
 20
-0.8088330030441284
 10
1.522566556930541
 20
-0.8072930574417114
 10
1.525851130485534
 20
-0.8057817816734313
 10
1.529071450233459
 20
-0.8043000698089598
 10
1.532225370407104
 20
-0.8028489351272583
 10
1.535310745239257
 20
-0.8014293313026428
 10
1.538325548171997
 20
-0.800042152404785
 10
1.541267752647399
 20
-0.7986884117126465
 10
1.544135212898254
 20
-0.7973690032958985
 10
1.546925902366638
 20
-0.796085000038147
 10
1.549637794494628
 20
-0.7948372364044189
 10
1.552268743515014
 20
-0.7936266660690308
 10
1.554816603660583
 20
-0.7924543619155884
 10
1.557279467582702
 20
-0.7913211584091187
 10
1.55965518951416
 20
-0.7902280688285828
 10
1.563050746917724
 20
-0.7886657118797303
 10
1.566238522529602
 20
-0.7871989607810975
 10
1.569211602210998
 20
-0.7858310341835022
 10
1.571962833404541
 20
-0.7845651507377625
 10
1.574485301971435
 20
-0.783404529094696
 10
1.577480554580688
 20
-0.7820263504981995
 10
1.580040097236633
 20
-0.7808487415313721
 10
1.582601308822631
 20
-0.779670238494873
 10
1.584937930107116
 20
-0.7785951495170594
 10
1.587513804435729
 20
-0.7779131531715393
 10
1.590213418006896
 20
-0.777435302734375
 10
1.5933438539505
 20
-0.7768812775611879
 10
1.596399188041687
 20
-0.7763404846191407
 10
1.598999977111816
 20
-0.7758801579475403
 10
1.601857423782348
 20
-0.7753744721412659
 10
1.604963660240173
 20
-0.7748246788978577
 10
1.608311295509338
 20
-0.7742321491241455
 10
1.611892342567443
 20
-0.7735983729362488
 10
1.614405632019042
 20
-0.7731534838676453
 10
1.617017030715942
 20
-0.7726913094520569
 10
1.61972427368164
 20
-0.7722121477127076
 10
1.622524976730346
 20
-0.7717164754867554
 10
1.625416874885559
 20
-0.7712045907974244
 10
1.628397822380065
 20
-0.7706770300865174
 10
1.631465435028076
 20
-0.7701340913772583
 10
1.634617447853088
 20
-0.7695761919021606
 10
1.637851595878601
 20
-0.7690038084983826
 10
1.641165494918823
 20
-0.7684172391891479
 10
1.644556999206542
 20
-0.767816960811615
 10
1.648023843765258
 20
-0.7672033905982972
 10
1.65156352519989
 20
-0.766576886177063
 10
1.655174016952514
 20
-0.7659378647804261
 10
1.658852934837341
 20
-0.7652867436408997
 10
1.662598013877868
 20
-0.7646238803863527
 10
1.666406989097595
 20
-0.7639496922492981
 10
1.670277476310729
 20
-0.7632646560668946
 10
1.674207329750061
 20
-0.7625691294670105
 10
1.678194165229797
 20
-0.7618634700775146
 10
1.682235836982727
 20
-0.7611481547355652
 10
1.686329841613769
 20
-0.7604235410690308
 10
1.690474152565002
 20
-0.7596900463104248
 10
1.694666266441345
 20
-0.7589480876922609
 10
1.698904037475585
 20
-0.7581980228424073
 10
1.703185081481933
 20
-0.7574403285980225
 10
1.707507252693176
 20
-0.7566753029823304
 10
1.711868286132812
 20
-0.7559034824371338
 10
1.716265678405761
 20
-0.7551251649856568
 10
1.720697283744812
 20
-0.7543408274650574
 10
1.725160956382751
 20
-0.7535507678985596
 10
1.729654192924499
 20
-0.7527555227279663
 10
1.734174847602844
 20
-0.7519553899765015
 10
1.738720536231994
 20
-0.7511508464813234
 10
1.747878074645996
 20
-0.749530017375946
 10
1.757108569145202
 20
-0.7478963136672974
 10
1.766393899917602
 20
-0.7462528944015503
 10
1.785055756568908
 20
-0.7429499030113221
 10
1.803717613220214
 20
-0.7396469116210938
 10
1.813002943992614
 20
-0.7380034923553467
 10
1.822233438491821
 20
-0.736369788646698
 10
1.831391096115112
 20
-0.7347489595413208
 10
1.835936784744262
 20
-0.7339444160461426
 10
1.840457320213317
 20
-0.7331442832946778
 10
1.844950556755065
 20
-0.7323490381240845
 10
1.849414229393005
 20
-0.7315590381622314
 10
1.853845834732055
 20
-0.7307746410369873
 10
1.858243346214294
 20
-0.7299963831901551
 10
1.862604260444641
 20
-0.7292245030403138
 10
1.866926431655883
 20
-0.7284595370292664
 10
1.871207475662231
 20
-0.7277017831802369
 10
1.875445246696472
 20
-0.7269517779350281
 10
1.879637479782104
 20
-0.7262097597122193
 10
1.883781671524047
 20
-0.7254762649536133
 10
1.887875795364379
 20
-0.7247516512870789
 10
1.89191734790802
 20
-0.7240363359451294
 10
1.895904183387756
 20
-0.7233306765556335
 10
1.899834036827087
 20
-0.7226351499557496
 10
1.903704524040222
 20
-0.7219501137733459
 10
1.907513499259948
 20
-0.7212759852409363
 10
1.911258578300476
 20
-0.7206131219863892
 10
1.914937496185302
 20
-0.7199620008468628
 10
1.918547987937927
 20
-0.7193229794502259
 10
1.922087788581848
 20
-0.718696415424347
 10
1.925554513931274
 20
-0.7180828452110291
 10
1.928946018218994
 20
-0.7174825668334961
 10
1.932260036468505
 20
-0.7168960571289062
 10
1.935494065284729
 20
-0.7163236141204834
 10
1.938646078109741
 20
-0.7157657742500306
 10
1.941713690757751
 20
-0.7152228355407715
 10
1.944694638252258
 20
-0.7146952152252198
 10
1.94758653640747
 20
-0.7141833901405334
 10
1.950387358665466
 20
-0.7136876583099366
 10
1.953094482421875
 20
-0.7132084965705872
 10
1.955705881118774
 20
-0.7127463221549988
 10
1.958219170570373
 20
-0.7123014926910402
 10
1.961800336837768
 20
-0.7116676568984986
 10
1.965147852897644
 20
-0.7110751867294312
 10
1.968254208564758
 20
-0.7105253934860229
 10
1.971111536026
 20
-0.7100196480751038
 10
1.97371232509613
 20
-0.7095593214035035
 10
1.976767659187316
 20
-0.7090185880661011
 10
1.979334712028503
 20
-0.7085642218589783
  0
LWPOLYLINE
  5
99
100
AcDbEntity
  8
LAYER_1
  6
ByLayer
 62
  256
100
AcDbPolyline
 90
  158
 70
    1
 43
0
 10
1.062919616699218
 20
-0.8960542678833007
 10
1.058095812797546
 20
-0.8963110446929931
 10
1.053298711776733
 20
-0.8966667652130126
 10
1.048529267311096
 20
-0.8971203565597534
 10
1.043788313865661
 20
-0.8976706266403198
 10
1.039076566696166
 20
-0.8983164429664611
 10
1.034395217895507
 20
-0.8990567326545715
 10
1.029744982719421
 20
-0.8998903036117553
 10
1.025126695632934
 20
-0.9008160233497619
 10
1.020541310310363
 20
-0.9018327593803405
 10
1.015989661216735
 20
-0.9029394388198853
 10
1.011472821235656
 20
-0.9041348099708557
 10
1.006991386413574
 20
-0.9054178595542907
 10
1.002546429634094
 20
-0.9067873954772949
 10
0.9981388449668884
 20
-0.9082422852516174
 10
0.9937694072723388
 20
-0.9097813963890075
 10
0.9894390702247619
 20
-0.9114035964012145
 10
0.9851487278938293
 20
-0.9131077527999877
 10
0.980899155139923
 20
-0.9148927330970764
 10
0.9766913652420043
 20
-0.9167573451995848
 10
0.9725262522697448
 20
-0.9187005758285522
 10
0.9684045910835266
 20
-0.9207211732864379
 10
0.9643272757530212
 20
-0.922818124294281
 10
0.9602952599525451
 20
-0.924990177154541
 10
0.95630943775177
 20
-0.9272362589836119
 10
0.9523706436157225
 20
-0.9295551776885986
 10
0.9501760601997375
 20
-0.930891215801239
 10
0.947605013847351
 20
-0.9274677038192749
 10
0.9441471099853515
 20
-0.9215971231460571
 10
0.9406841397285461
 20
-0.9157084822654724
 10
0.937216579914093
 20
-0.9098025560379028
 10
0.9337447881698608
 20
-0.90388023853302
 10
0.930269181728363
 20
-0.8979423046112061
 10
0.9267900586128234
 20
-0.8919895887374877
 10
0.9233079552650451
 20
-0.886022925376892
 10
0.919823169708252
 20
-0.880043089389801
 10
0.9163361191749572
 20
-0.8740509152412415
 10
0.9128472208976744
 20
-0.8680472373962402
 10
0.9093568325042723
 20
-0.8620328903198242
 10
0.9058653116226196
 20
-0.8560087084770202
 10
0.902373194694519
 20
-0.8499754667282104
 10
0.8953883647918701
 20
-0.8378850817680358
 10
0.8884056210517883
 20
-0.8257683515548706
 10
0.8814279437065125
 20
-0.8136318922042846
 10
0.8744586110115051
 20
-0.8014822006225585
 10
0.8675006628036499
 20
-0.7893258333206177
 10
0.8605573773384094
 20
-0.777169406414032
 10
0.853631854057312
 20
-0.7650194168090821
 10
0.8467272520065307
 20
-0.7528824806213379
 10
0.8432837724685668
 20
-0.7468209266662598
 10
0.8398467302322387
 20
-0.7407650947570801
 10
0.8364164233207702
 20
-0.7347158193588257
 10
0.8329933881759644
 20
-0.7286738753318787
 10
0.8295779228210449
 20
-0.7226401567459106
 10
0.8261704444885253
 20
-0.716615378856659
 10
0.8227713704109191
 20
-0.7106004357337952
 10
0.8193810582160949
 20
-0.7045961022377015
 10
0.8159998655319213
 20
-0.6986032724380494
 10
0.8126283288002014
 20
-0.6926227211952209
 10
0.809266686439514
 20
-0.6866552233695984
 10
0.8059154152870178
 20
-0.6807016730308533
 10
0.8025748729705811
 20
-0.6747629046440125
 10
0.7992455363273621
 20
-0.6688396334648133
 10
0.7959277033805848
 20
-0.6629327535629272
 10
0.7926217913627625
 20
-0.6570430994033813
 10
0.7893282175064087
 20
-0.6511714458465577
 10
0.7860473394393921
 20
-0.6453186273574829
 10
0.7827795743942261
 20
-0.6394854187965393
 10
0.7795253396034241
 20
-0.6336727738380433
 10
0.7762849926948548
 20
-0.6278813481330872
 10
0.7746701836585999
 20
-0.6249939203262329
 10
0.7768630385398865
 20
-0.6229124069213868
 10
0.7795817852020264
 20
-0.6213306784629822
 10
0.7822235226631165
 20
-0.6198402047157288
 10
0.7847915291786194
 20
-0.6184370517730713
 10
0.7872890233993531
 20
-0.6171173453330994
 10
0.7897192835807801
 20
-0.615877389907837
 10
0.7920855283737183
 20
-0.614713191986084
 10
0.7943910360336304
 20
-0.613620936870575
 10
0.7977424263954163
 20
-0.6121091246604921
 10
0.8009755015373229
 20
-0.6107375025749207
 10
0.8041010499000549
 20
-0.6094931960105896
 10
0.8071301579475402
 20
-0.6083632111549379
 10
0.8100737333297729
 20
-0.6073344945907593
 10
0.8129427433013916
 20
-0.6063940525054932
 10
0.8157481551170349
 20
-0.605529010295868
 10
0.8194087147712708
 20
-0.6044702529907227
 10
0.823001742362976
 20
-0.6034916043281556
 10
0.8265532255172729
 20
-0.6025621891021729
 10
0.8300890922546386
 20
-0.6016512513160706
 10
0.8336353302001953
 20
-0.6007279753684998
 10
0.8372179865837097
 20
-0.5997616052627563
 10
0.840863049030304
 20
-0.5987213850021363
 10
0.8436534404754638
 20
-0.5978741645812989
 10
0.8465044498443604
 20
-0.5969551205635071
 10
0.8494271636009216
 20
-0.5959512591362
 10
0.8524324297904968
 20
-0.5948495268821717
 10
0.855531334877014
 20
-0.5936369299888611
 10
0.8587347269058228
 20
-0.5923005342483521
 10
0.8620536327362061
 20
-0.5908274054527283
 10
0.8654990196228027
 20
-0.5892044305801392
 10
0.8678716421127319
 20
-0.5880328416824341
 10
0.8703085780143737
 20
-0.5867850184440613
 10
0.8728130459785461
 20
-0.5854572057723999
 10
0.8753883838653564
 20
-0.5840454697608948
 10
0.8780378103256224
 20
-0.582546055316925
 10
0.8807645440101624
 20
-0.5809549689292908
 10
0.8829507231712341
 20
-0.5796457529067994
 10
0.8854215741157531
 20
-0.5841765403747559
 10
0.8871501684188842
 20
-0.5874243378639222
 10
0.8888801336288452
 20
-0.590662956237793
 10
0.8906114697456359
 20
-0.593892514705658
 10
0.892344057559967
 20
-0.5971131324768068
 10
0.8940779566764832
 20
-0.6003251075744629
 10
0.8958131074905396
 20
-0.6035285592079163
 10
0.8975495100021362
 20
-0.6067236661911011
 10
0.9010259509086608
 20
-0.6130896210670472
 10
0.904507040977478
 20
-0.6194244623184204
 10
0.9079926013946533
 20
-0.6257296204566956
 10
0.9114824533462524
 20
-0.6320065855979921
 10
0.914976418018341
 20
-0.6382567882537842
 10
0.9184743165969848
 20
-0.6444817781448365
 10
0.9219759106636047
 20
-0.6506829857826233
 10
0.9254810214042662
 20
-0.6568617820739746
 10
0.9289894700050354
 20
-0.6630197763442994
 10
0.9325010776519775
 20
-0.6691583991050721
 10
0.9360157251358032
 20
-0.6752790212631226
 10
0.9395330548286437
 20
-0.6813832521438599
 10
0.9430530071258544
 20
-0.6874724626541138
 10
0.9465753436088562
 20
-0.6935480833053589
 10
0.9500999450683593
 20
-0.6996117234230042
 10
0.9536265134811401
 20
-0.7056647539138794
 10
0.9571549296379089
 20
-0.7117086052894593
 10
0.9642164707183837
 20
-0.7237748503684998
 10
0.9783532023429869
 20
-0.7478623390197754
 10
0.9854253530502319
 20
-0.7599070072174073
 10
0.9924980401992797
 20
-0.7719679474830629
 10
0.9960340857505798
 20
-0.7780082225799561
 10
0.9995697140693665
 20
-0.7840569615364075
 10
1.00310468673706
 20
-0.7901155948638916
 10
1.006638884544372
 20
-0.7961856722831726
 10
1.010172009468078
 20
-0.8022685647010803
 10
1.013703942298889
 20
-0.8083658814430236
 10
1.017234563827514
 20
-0.8144789338111877
 10
1.020763516426086
 20
-0.8206092715263366
 10
1.024290800094604
 20
-0.826758325099945
 10
1.0278160572052
 20
-0.832927644252777
 10
1.031339168548583
 20
-0.8391185998916625
 10
1.034859895706176
 20
-0.8453326821327209
 10
1.038378238677978
 20
-0.8515713810920715
 10
1.04189383983612
 20
-0.8578361272811889
 10
1.045406460762023
 20
-0.8641284108161926
 10
1.048915982246398
 20
-0.8704497218132019
 10
1.052422285079956
 20
-0.8768014907836914
 10
1.055925130844116
 20
-0.8831852078437805
 10
1.057675242424011
 20
-0.8863894939422607
 10
1.0594242811203
 20
-0.8896023035049438
 10
1.061172485351562
 20
-0.892823815345764
  0
LWPOLYLINE
  5
9A
100
AcDbEntity
  8
LAYER_1
  6
ByLayer
 62
  256
100
AcDbPolyline
 90
  529
 70
    1
 43
0
 10
0.9888371229171752
 20
-1.363133907318115
 10
0.9655748605728149
 20
-1.367560267448425
 10
0.9422590732574462
 20
-1.371992707252502
 10
0.9188941717147827
 20
-1.376430630683898
 10
0.8954848647117614
 20
-1.380873441696166
 10
0.8720355629920959
 20
-1.385320782661437
 10
0.8485508561134338
 20
-1.389772057533264
 10
0.825035274028778
 20
-1.394226789474487
 10
0.8014933466911315
 20
-1.398684501647949
 10
0.7543486952781678
 20
-1.407606601715087
 10
0.7071532607078553
 20
-1.416534423828125
 10
0.6599432826042176
 20
-1.425464034080505
 10
0.6127551794052124
 20
-1.434391140937805
 10
0.5656252503395081
 20
-1.443311810493469
 10
0.5420934557914734
 20
-1.447768449783325
 10
0.5185897946357727
 20
-1.452221989631652
 10
0.4951188564300537
 20
-1.456671953201293
 10
0.4716851711273194
 20
-1.4611177444458
 10
0.4482932090759278
 20
-1.465558767318725
 10
0.4249476790428162
 20
-1.469994783401489
 10
0.4016529321670533
 20
-1.474425077438354
 10
0.3900260925292969
 20
-1.476637959480285
 10
0.3874160051345825
 20
-1.476991653442382
 10
0.3849772214889526
 20
-1.476151466369628
 10
0.3824684023857117
 20
-1.475214481353759
 10
0.3800272941589355
 20
-1.474263191223144
 10
0.3772192001342773
 20
-1.473132729530334
 10
0.3740614652633667
 20
-1.471823334693908
 10
0.3714741468429565
 20
-1.47072410583496
 10
0.3687071800231934
 20
-1.469524383544921
 10
0.3657680153846741
 20
-1.46822440624237
 10
0.3626639246940613
 20
-1.466824173927307
 10
0.3582811951637268
 20
-1.464801430702209
 10
0.3536356687545776
 20
-1.462600946426391
 10
0.3512197136878967
 20
-1.461434125900268
 10
0.3487446308135986
 20
-1.460222959518432
 10
0.3462125062942505
 20
-1.458967447280883
 10
0.3436254858970642
 20
-1.457667589187622
 10
0.3409857749938965
 20
-1.456323504447937
 10
0.338295578956604
 20
-1.454935073852539
 10
0.3355571031570435
 20
-1.453502416610717
 10
0.3327723741531372
 20
-1.452025651931762
 10
0.3299436569213867
 20
-1.450504660606384
 10
0.3270730972290039
 20
-1.448939561843872
 10
0.3241629004478455
 20
-1.447330355644226
 10
0.3212151527404785
 20
-1.445677042007446
 10
0.3182321786880493
 20
-1.443979620933532
 10
0.3152159452438354
 20
-1.442238211631774
 10
0.3121688365936279
 20
-1.440452814102172
 10
0.3090928792953491
 20
-1.438623428344726
 10
0.3059902191162109
 20
-1.436750054359436
 10
0.3028631210327148
 20
-1.43483281135559
 10
0.2997137308120727
 20
-1.432871580123901
 10
0.2965442538261413
 20
-1.430866599082946
 10
0.2933567762374878
 20
-1.428817749023437
 10
0.2901535034179687
 20
-1.426725029945373
 10
0.2869366407394409
 20
-1.424588561058044
 10
0.2837083339691162
 20
-1.42240834236145
 10
0.2804707288742065
 20
-1.42018437385559
 10
0.2772259712219238
 20
-1.417916774749755
 10
0.2739763259887695
 20
-1.415605425834655
 10
0.2707239389419556
 20
-1.41325044631958
 10
0.2674709558486938
 20
-1.410851836204528
 10
0.2642195224761963
 20
-1.408409714698791
 10
0.2609717845916748
 20
-1.405923962593078
 10
0.2577300667762756
 20
-1.403394699096679
 10
0.2544963359832764
 20
-1.400821924209594
 10
0.2512729167938232
 20
-1.398205637931823
 10
0.2480619549751282
 20
-1.395545840263366
 10
0.2448655366897583
 20
-1.392842769622802
 10
0.2416858673095703
 20
-1.390096187591552
 10
0.2385252118110657
 20
-1.387306332588195
 10
0.2353855967521667
 20
-1.384473085403442
 10
0.232269287109375
 20
-1.381596446037292
 10
0.2291784286499023
 20
-1.378676652908325
 10
0.2261151671409607
 20
-1.375713467597961
 10
0.2230817079544067
 20
-1.37270712852478
 10
0.2200802564620972
 20
-1.369657516479492
 10
0.2171128988265991
 20
-1.366564869880676
 10
0.2141817808151245
 20
-1.363428950309753
 10
0.2112892270088196
 20
-1.360249996185302
 10
0.2084372639656067
 20
-1.357027888298034
 10
0.2056281566619873
 20
-1.353762626647949
 10
0.2028639912605286
 20
-1.350454449653625
 10
0.2001470327377319
 20
-1.347103238105773
 10
0.1974793076515198
 20
-1.343708992004394
 10
0.1948631405830383
 20
-1.340271830558776
 10
0.1923006176948547
 20
-1.33679175376892
 10
0.1897939443588257
 20
-1.333268761634826
 10
0.1873452663421631
 20
-1.329702973365783
 10
0.1849567890167236
 20
-1.326094269752502
 10
0.1826306581497192
 20
-1.322442650794982
 10
0.1803690195083618
 20
-1.318748354911804
 10
0.1781740188598633
 20
-1.315011262893676
 10
0.1760479211807251
 20
-1.31123149394989
 10
0.1739928722381592
 20
-1.307408928871154
 10
0.1720110177993774
 20
-1.303543806076049
 10
0.1701045036315918
 20
-1.299635887145996
 10
0.1682755947113037
 20
-1.295685410499572
 10
0.1665263175964355
 20
-1.291692376136779
 10
0.1648589372634888
 20
-1.287656664848327
 10
0.1632756590843201
 20
-1.283578515052795
 10
0.1617785692214966
 20
-1.279457807540893
 10
0.160369873046875
 20
-1.275294542312622
 10
0.1590517163276672
 20
-1.27108895778656
 10
0.15782630443573
 20
-1.266840815544128
 10
0.1566957831382751
 20
-1.262550354003906
 10
0.1556623578071594
 20
-1.258217453956604
 10
0.1547281742095947
 20
-1.253842234611511
 10
0.153895378112793
 20
-1.249424695968627
 10
0.1531661748886108
 20
-1.244964838027954
 10
0.152542769908905
 20
-1.240462779998779
 10
0.1520272493362427
 20
-1.235918402671813
 10
0.1517127752304077
 20
-1.232482433319091
 10
0.1515092253684998
 20
-1.229231476783752
 10
0.1514195203781128
 20
-1.225226998329162
 10
0.1514653563499451
 20
-1.222047209739685
 10
0.1516166925430298
 20
-1.218707203865051
 10
0.1518810987472534
 20
-1.215199470520019
 10
0.1522663831710815
 20
-1.211516141891479
 10
0.1525940895080566
 20
-1.208959102630615
 10
0.152981162071228
 20
-1.206318259239196
 10
0.1534298062324524
 20
-1.203591227531433
 10
0.153942346572876
 20
-1.200775742530822
 10
0.154521107673645
 20
-1.197869539260864
 10
0.1551682353019714
 20
-1.194870233535766
 10
0.1558860540390015
 20
-1.191775560379028
 10
0.1566768288612366
 20
-1.188583135604858
 10
0.157542884349823
 20
-1.185290813446044
 10
0.1584863662719727
 20
-1.181896090507507
 10
0.1595096588134766
 20
-1.178396701812744
 10
0.1606149673461914
 20
-1.174790501594543
 10
0.1618045568466186
 20
-1.171074867248535
 10
0.1630807518959045
 20
-1.167247772216796
 10
0.1644457578659058
 20
-1.163306832313537
 10
0.1659018397331238
 20
-1.159249663352966
 10
0.1674513220787048
 20
-1.155074000358581
 10
0.1690964698791504
 20
-1.150777578353881
 10
0.1708394885063171
 20
-1.146358013153076
 10
0.1726826429367065
 20
-1.141813039779663
 10
0.1746283173561096
 20
-1.137140274047851
 10
0.1756402254104614
 20
-1.134755253791809
 10
0.1766786575317383
 20
-1.132337570190429
 10
0.1777437925338745
 20
-1.129886627197265
 10
0.1788359880447388
 20
-1.127402424812316
 10
0.1799554824829102
 20
-1.124884486198425
 10
0.1811025738716125
 20
-1.122332572937011
 10
0.1822775602340698
 20
-1.119746446609497
 10
0.1834806203842163
 20
-1.117125749588012
 10
0.1847122311592102
 20
-1.114470243453979
 10
0.185972511768341
 20
-1.111779689788818
 10
0.1872618198394775
 20
-1.10905373096466
 10
0.1885804533958435
 20
-1.106292009353637
 10
0.1899286508560181
 20
-1.103494405746459
 10
0.1913067102432251
 20
-1.100660443305969
 10
0.1927148699760437
 20
-1.097790002822875
 10
0.1941534876823425
 20
-1.094882607460021
 10
0.1956228613853454
 20
-1.091938138008117
 10
0.1971231698989868
 20
-1.088956236839294
 10
0.1986547708511352
 20
-1.085936665534973
 10
0.2002179622650146
 20
-1.082879066467285
 10
0.2018129825592041
 20
-1.079783201217651
 10
0.2034401893615723
 20
-1.076648712158203
 10
0.2050997614860535
 20
-1.07347548007965
 10
0.2067919969558716
 20
-1.070262908935546
 10
0.2085172533988953
 20
-1.067010998725891
 10
0.2102757692337036
 20
-1.063719391822814
 10
0.2120678424835205
 20
-1.060387730598449
 10
0.2138937711715698
 20
-1.057015657424926
 10
0.2157537937164307
 20
-1.053603172302246
 10
0.2176481485366821
 20
-1.050149679183959
 10
0.2195772528648376
 20
-1.046655058860778
 10
0.2215413451194763
 20
-1.043118834495544
 10
0.2235406637191772
 20
-1.039541006088256
 10
0.2255755066871643
 20
-1.035921096801757
 10
0.2276461124420166
 20
-1.032258868217468
 10
0.2297528982162476
 20
-1.028553962707519
 10
0.2318960428237915
 20
-1.024806261062622
 10
0.2340758442878723
 20
-1.021015286445617
 10
0.2362926006317139
 20
-1.017180800437927
 10
0.23854660987854
 20
-1.013302564620971
 10
0.2408381104469299
 20
-1.009380221366882
 10
0.2426851987838745
 20
-1.006239295005798
 10
0.2444487810134888
 20
-1.0032719373703
 10
0.246249794960022
 20
-1.000273466110229
 10
0.2480888366699219
 20
-0.9972445964813232
 10
0.2499663233757019
 20
-0.9941860437393188
 10
0.251882791519165
 20
-0.991098403930664
 10
0.2538387775421143
 20
-0.9879823327064514
 10
0.2558348178863525
 20
-0.9848385453224182
 10
0.2578713893890381
 20
-0.9816676378250122
 10
0.2599490284919739
 20
-0.9784703850746154
 10
0.2620681524276733
 20
-0.975247323513031
 10
0.264229416847229
 20
-0.9719992280006408
 10
0.2664332389831543
 20
-0.9687266945838928
 10
0.268680214881897
 20
-0.9654304385185241
 10
0.2709707021713257
 20
-0.9621110558509826
 10
0.273305356502533
 20
-0.9587692022323608
 10
0.275684654712677
 20
-0.9554056525230407
 10
0.278109073638916
 20
-0.9520209431648254
 10
0.2805792093276977
 20
-0.9486158490180969
 10
0.2830954790115356
 20
-0.9451909065246582
 10
0.2856584191322327
 20
-0.9417469501495361
 10
0.2882685661315918
 20
-0.9382844567298889
 10
0.290926456451416
 20
-0.9348042607307434
 10
0.2936325073242187
 20
-0.9313068985939025
 10
0.2963873147964477
 20
-0.9277930855751036
 10
0.299191415309906
 20
-0.9242634177207946
 10
0.3020452260971069
 20
-0.9207187294960021
 10
0.3049493432044983
 20
-0.9171594977378845
 10
0.3079042434692383
 20
-0.9135864973068237
 10
0.3109104037284851
 20
-0.9100003242492675
 10
0.3139684200286865
 20
-0.9064017534255981
 10
0.317078709602356
 20
-0.9027913212776184
 10
0.3202419281005859
 20
-0.8991697430610656
 10
0.3234584331512451
 20
-0.8955376744270324
 10
0.3267287611961365
 20
-0.8918957710266113
 10
0.3300535082817078
 20
-0.8882447481155396
 10
0.3334331512451172
 20
-0.8845852017402648
 10
0.3368681669235229
 20
-0.8809178471565245
 10
0.340359091758728
 20
-0.8772433400154113
 10
0.3439064025878906
 20
-0.8735622763633728
 10
0.3475106954574585
 20
-0.869875431060791
 10
0.3511724472045898
 20
-0.8661834001541137
 10
0.3548921942710876
 20
-0.8624868392944335
 10
0.3586703538894653
 20
-0.8587864637374877
 10
0.3625075221061706
 20
-0.8550828695297241
 10
0.3664041757583618
 20
-0.8513767719268798
 10
0.3703608512878418
 20
-0.8476688265800476
 10
0.3743780851364136
 20
-0.843959629535675
 10
0.3784562945365906
 20
-0.8402499556541442
 10
0.3825960755348205
 20
-0.836540400981903
 10
0.3867979049682617
 20
-0.8328316807746887
 10
0.3910623788833618
 20
-0.8291243910789489
 10
0.3953898549079895
 20
-0.8254192471504211
 10
0.3997809886932373
 20
-0.8217169046401978
 10
0.4042361974716187
 20
-0.8180179595947265
 10
0.4087560176849366
 20
-0.8143231868743896
 10
0.4133409857749939
 20
-0.8106331229209899
 10
0.4179916381835938
 20
-0.8069486021995544
 10
0.4227083921432496
 20
-0.8032701015472412
 10
0.4274919033050537
 20
-0.7995983958244324
 10
0.432342529296875
 20
-0.7959341406822205
 10
0.4372608661651612
 20
-0.792277991771698
 10
0.4422473907470704
 20
-0.7886306047439576
 10
0.4473026990890503
 20
-0.7849926352500916
 10
0.4524272680282593
 20
-0.7813647389411927
 10
0.4576215147972107
 20
-0.777747631072998
 10
0.4628860354423523
 20
-0.7741419076919556
 10
0.4682213664054871
 20
-0.7705482840538025
 10
0.4736279249191285
 20
-0.7669673562049866
 10
0.4791063666343689
 20
-0.7633998990058899
 10
0.4846570491790772
 20
-0.7598465085029602
 10
0.4902806282043457
 20
-0.7563078403472902
 10
0.4959774613380433
 20
-0.752784550189972
 10
0.5017482042312622
 20
-0.7492773532867432
 10
0.5075932741165162
 20
-0.7457868456840516
 10
0.5135132670402527
 20
-0.7423137426376343
 10
0.5195086002349854
 20
-0.7388587594032288
 10
0.5255798101425171
 20
-0.7354224324226381
 10
0.5317274928092957
 20
-0.7320054769515992
 10
0.5379520654678345
 20
-0.7286085486412049
 10
0.5442541241645813
 20
-0.7252323627471924
 10
0.5506340861320496
 20
-0.7218775749206543
 10
0.5570925474166871
 20
-0.7185447812080384
 10
0.5603513121604921
 20
-0.716886878013611
 10
0.5636299252510071
 20
-0.7152346968650818
 10
0.5669284462928772
 20
-0.7135883569717408
 10
0.5702468156814576
 20
-0.7119479775428772
 10
0.5735852718353271
 20
-0.710313618183136
 10
0.5769437551498413
 20
-0.7086852788925171
 10
0.5803223848342896
 20
-0.7070631980895996
 10
0.5837211608886719
 20
-0.7054473161697388
 10
0.5871402025222779
 20
-0.7038377523422242
 10
0.590579628944397
 20
-0.7022346258163453
 10
0.5940393805503846
 20
-0.7006380558013916
 10
0.5975195765495301
 20
-0.6990480422973633
 10
0.601020336151123
 20
-0.6974646449089051
 10
0.6045415997505188
 20
-0.6958880424499512
 10
0.6080835461616517
 20
-0.6943182945251465
 10
0.6116462349891663
 20
-0.6927554607391359
 10
0.615229606628418
 20
-0.6911996006965638
 10
0.618833899497986
 20
-0.6896508932113647
 10
0.6224589943885804
 20
-0.6881092786788942
 10
0.6261051297187806
 20
-0.686574935913086
 10
0.6297722458839417
 20
-0.6850479245185852
 10
0.633460521697998
 20
-0.6835283637046814
 10
0.637169897556305
 20
-0.6820162534713746
 10
0.6409004926681519
 20
-0.6805117726325989
 10
0.6446523666381836
 20
-0.6790149211883545
 10
0.648425579071045
 20
-0.6775258779525757
 10
0.6522201895713807
 20
-0.6760445833206177
 10
0.6560363173484803
 20
-0.6745712757110596
 10
0.6598739624023438
 20
-0.6731058955192566
 10
0.663733184337616
 20
-0.671648681163788
 10
0.6676141023635865
 20
-0.6701995730400085
 10
0.6715167164802552
 20
-0.6687586903572083
 10
0.6754412055015564
 20
-0.6673261523246766
 10
0.6793874502182007
 20
-0.6659020781517029
 10
0.6833556890487671
 20
-0.6644864678382874
 10
0.687345862388611
 20
-0.6630794405937195
 10
0.6913581490516663
 20
-0.6616810560226442
 10
0.6953924894332886
 20
-0.6602914333343506
 10
0.6994490623474121
 20
-0.6589105725288392
 10
0.7015486359596254
 20
-0.6607609987258912
 10
0.7031459212303162
 20
-0.6634016633033754
 10
0.7048511505126954
 20
-0.6662209630012513
 10
0.7063681483268738
 20
-0.6687288880348206
 10
0.7080810070037842
 20
-0.6715607047080994
 10
0.709982454776764
 20
-0.6747043728828431
 10
0.7113513350486756
 20
-0.676967442035675
 10
0.7127985954284668
 20
-0.6793601512908936
 10
0.7143220901489258
 20
-0.6818789839744568
 10
0.7159197330474854
 20
-0.6845203638076783
 10
0.7175893783569336
 20
-0.6872806549072266
 10
0.7193287014961243
 20
-0.6901562809944153
 10
0.7211357355117798
 20
-0.6931437849998475
 10
0.7230082154273987
 20
-0.6962394714355469
 10
0.7249439954757692
 20
-0.699439823627472
 10
0.7269408702850342
 20
-0.7027412652969361
 10
0.7289968132972718
 20
-0.7061402201652527
 10
0.7311094999313354
 20
-0.7096331119537354
 10
0.733276903629303
 20
-0.7132164239883423
 10
0.7354967594146729
 20
-0.7168864607810975
 10
0.737766981124878
 20
-0.7206397652626038
 10
0.7400854229927063
 20
-0.7244727015495301
 10
0.7424498200416565
 20
-0.7283817529678345
 10
0.7460780143737793
 20
-0.7343801856040955
 10
0.7485480904579163
 20
-0.7384638190269471
 10
0.7510565519332886
 20
-0.7426109910011292
 10
0.7536013126373291
 20
-0.7468182444572449
 10
0.756180226802826
 20
-0.7510818839073182
 10
0.7587911486625672
 20
-0.7553983926773072
 10
0.761431872844696
 20
-0.7597641944885254
 10
0.764100193977356
 20
-0.7641757130622864
 10
0.7667940855026246
 20
-0.7686294317245485
 10
0.7695112824440004
 20
-0.7731216549873352
 10
0.7722496390342714
 20
-0.77764892578125
 10
0.7750070095062256
 20
-0.7822076082229615
 10
0.7777812480926514
 20
-0.7867941856384278
 10
0.7805701494216919
 20
-0.7914050221443177
 10
0.7833716273307801
 20
-0.7960366010665894
 10
0.7890034914016724
 20
-0.8053476214408875
 10
0.7946595549583435
 20
-0.8146985769271849
 10
0.8003225326538085
 20
-0.8240610361099243
 10
0.8059751391410827
 20
-0.8334063291549682
 10
0.8116000890731812
 20
-0.8427059054374694
 10
0.8143967390060424
 20
-0.8473296165466307
 10
0.8171800971031188
 20
-0.8519311547279357
 10
0.819947838783264
 20
-0.8565070033073425
 10
0.8226978778839111
 20
-0.8610535264015197
 10
0.8254280090332031
 20
-0.8655672669410704
 10
0.8281361460685729
 20
-0.870044469833374
 10
0.8308200240135192
 20
-0.8744817376136779
 10
0.8334776163101196
 20
-0.8788754343986511
 10
0.8361066579818724
 20
-0.883221924304962
 10
0.8387050032615661
 20
-0.8875177502632141
 10
0.8412705659866333
 20
-0.8917592167854309
 10
0.8438010811805725
 20
-0.8959428668022155
 10
0.8462944030761718
 20
-0.9000650644302368
 10
0.8487484455108641
 20
-0.9041222929954528
 10
0.8511610031127929
 20
-0.9081108570098876
 10
0.853529930114746
 20
-0.9120272994041442
 10
0.8558530211448669
 20
-0.9158680438995361
 10
0.8581281900405883
 20
-0.9196294546127319
 10
0.8603531718254089
 20
-0.9233080148696899
 10
0.8625259399414062
 20
-0.9269001483917236
 10
0.8646442294120787
 20
-0.9304022789001464
 10
0.8667058944702148
 20
-0.9338107705116271
 10
0.8687087893486022
 20
-0.937122106552124
 10
0.8706507682800292
 20
-0.9403327703475952
 10
0.8725296854972839
 20
-0.9434390664100646
 10
0.8743433356285095
 20
-0.9464375376701354
 10
0.8760895729064941
 20
-0.9493245482444763
 10
0.8777662515640258
 20
-0.9520965218544006
 10
0.879371166229248
 20
-0.9547499418258666
 10
0.8809022307395935
 20
-0.9572811722755432
 10
0.8823571801185607
 20
-0.9596866369247437
 10
0.8837339878082275
 20
-0.9619628190994262
 10
0.8856477737426757
 20
-0.9651268720626831
 10
0.8873734474182128
 20
-0.9679798483848571
 10
0.8889036774635314
 20
-0.9705097675323486
 10
0.8902311921119689
 20
-0.972704529762268
 10
0.8916733264923095
 20
-0.9750887155532836
 10
0.8930986523628234
 20
-0.9774451851844786
 10
0.8942287564277648
 20
-0.9797306060791015
 10
0.8924186229705811
 20
-0.9816103577613829
 10
0.8879826068878173
 20
-0.9858558177947998
 10
0.8854061961174011
 20
-0.9884883165359497
 10
0.8834294080734252
 20
-0.9908525347709655
 10
0.8811485767364501
 20
-0.9937305450439453
 10
0.8787586688995361
 20
-0.9968761205673217
 10
0.876433253288269
 20
-1.000078678131103
 10
0.8730663061141967
 20
-1.004980564117431
 10
0.8709023594856262
 20
-1.008307814598083
 10
0.8688030242919921
 20
-1.011677861213684
 10
0.8667682409286499
 20
-1.015086650848388
 10
0.8647980690002441
 20
-1.018530249595642
 10
0.8628924489021301
 20
-1.02200448513031
 10
0.8610514402389526
 20
-1.025505304336547
 10
0.8592749834060668
 20
-1.02902865409851
 10
0.8575631380081176
 20
-1.032570481300354
 10
0.8548076748847961
 20
-1.038429975509643
 10
0.8531352877616882
 20
-1.042163610458374
 10
0.8515256643295288
 20
-1.045928359031677
 10
0.8499794006347656
 20
-1.049723744392395
 10
0.8484971523284912
 20
-1.053549289703369
 10
0.847079575061798
 20
-1.057404518127441
 10
0.8457273244857788
 20
-1.061288952827453
 10
0.8444408774375916
 20
-1.065202116966247
 10
0.8432210683822631
 20
-1.069143295288085
 10
0.8420683741569519
 20
-1.073112249374389
 10
0.8409834504127502
 20
-1.077108263969421
 10
0.8399670124053955
 20
-1.081130862236022
 10
0.8390195965766906
 20
-1.085179686546325
 10
0.838141918182373
 20
-1.089254140853881
 10
0.8373345136642456
 20
-1.093353748321533
 10
0.8365980982780457
 20
-1.097477912902832
 10
0.8359332680702209
 20
-1.101626276969909
 10
0.8353406190872192
 20
-1.105798125267028
 10
0.8348208069801329
 20
-1.10999321937561
 10
0.8343744874000549
 20
-1.114210844039916
 10
0.8340023159980773
 20
-1.11845052242279
 10
0.8337048292160034
 20
-1.122711896896362
 10
0.8334827423095703
 20
-1.126994371414184
 10
0.8333365917205811
 20
-1.131297349929809
 10
0.8332671523094177
 20
-1.135620474815368
 10
0.833263874053955
 20
-1.138561725616455
 10
0.8332970142364501
 20
-1.141571879386901
 10
0.8333668112754821
 20
-1.144573211669921
 10
0.8334730863571166
 20
-1.147565603256225
 10
0.8336154818534851
 20
-1.150548815727233
 10
0.8337939381599426
 20
-1.153522491455078
 10
0.8340081572532653
 20
-1.156486630439758
 10
0.8342580199241638
 20
-1.159440755844116
 10
0.8345431685447692
 20
-1.162384986877441
 10
0.834863543510437
 20
-1.165318727493286
 10
0.8352187871932983
 20
-1.168242096900939
 10
0.8356087803840637
 20
-1.171154737472534
 10
0.8360332846641541
 20
-1.1740562915802
 10
0.836492121219635
 20
-1.176946759223937
 10
0.8369849920272827
 20
-1.179825901985168
 10
0.8375117778778076
 20
-1.182693362236022
 10
0.8380722403526306
 20
-1.185549020767211
 10
0.8386661410331726
 20
-1.188392639160156
 10
0.8392932415008544
 20
-1.191224098205566
 10
0.8399534225463867
 20
-1.194042921066284
 10
0.8406463861465454
 20
-1.196849226951599
 10
0.8413718938827514
 20
-1.199642539024353
 10
0.8421298861503601
 20
-1.202422738075256
 10
0.8429199457168579
 20
-1.205189585685729
 10
0.8437420725822448
 20
-1.207942962646484
 10
0.8445958495140075
 20
-1.21068251132965
 10
0.8454812169075012
 20
-1.213408112525939
 10
0.846397876739502
 20
-1.216119408607482
 10
0.8473456501960754
 20
-1.218816399574279
 10
0.8483243584632874
 20
-1.221498727798461
 10
0.8493337035179138
 20
-1.22416615486145
 10
0.8503735065460205
 20
-1.226818561553955
 10
0.851443588733673
 20
-1.229455709457397
 10
0.8525437116622924
 20
-1.232077240943908
 10
0.8536736965179443
 20
-1.234683156013488
 10
0.8548332452774047
 20
-1.237273097038269
 10
0.8560222387313842
 20
-1.239846944808959
 10
0.8572403788566589
 20
-1.242404341697692
 10
0.8584875464439392
 20
-1.244945168495178
 10
0.8597634434700012
 20
-1.247469186782836
 10
0.8610678911209106
 20
-1.249976158142089
 10
0.8624007105827332
 20
-1.252465963363647
 10
0.8637616038322448
 20
-1.254938244819641
 10
0.8651504516601562
 20
-1.257392883300781
 10
0.8665670156478881
 20
-1.259829640388488
 10
0.8680110573768615
 20
-1.262248277664184
 10
0.8694823384284973
 20
-1.264648675918579
 10
0.8709807395935057
 20
-1.267030477523803
 10
0.8725059032440186
 20
-1.269393444061279
 10
0.8740577697753906
 20
-1.271737575531005
 10
0.8756360411643981
 20
-1.274062395095825
 10
0.8772405385971069
 20
-1.276367902755737
 10
0.8788710236549377
 20
-1.278653740882873
 10
0.8805273175239562
 20
-1.280919671058654
 10
0.8822091221809387
 20
-1.283165693283081
 10
0.8839163184165953
 20
-1.285391330718994
 10
0.8856486678123474
 20
-1.287596464157104
 10
0.8874059915542603
 20
-1.289780974388122
 10
0.8891879916191101
 20
-1.291944503784179
 10
0.8909944891929626
 20
-1.294086933135986
 10
0.8928253054618835
 20
-1.296207904815673
 10
0.8946801424026489
 20
-1.298307418823242
 10
0.896558940410614
 20
-1.300385117530822
 10
0.89846134185791
 20
-1.302440762519836
 10
0.900387167930603
 20
-1.304474234580993
 10
0.9023362398147583
 20
-1.306485295295715
 10
0.9043083786964417
 20
-1.308473587036132
 10
0.9063032269477844
 20
-1.310439109802246
 10
0.9083207249641418
 20
-1.312381386756896
 10
0.9103606343269348
 20
-1.314300537109375
 10
0.9124226570129395
 20
-1.316196084022521
 10
0.9145066738128662
 20
-1.318067789077758
 10
0.9166123867034912
 20
-1.319915652275085
 10
0.9187396168708801
 20
-1.321739315986633
 10
0.9208881855010986
 20
-1.323538541793823
 10
0.9230578541755676
 20
-1.325313210487365
 10
0.9252484440803527
 20
-1.327063083648681
 10
0.9274596571922302
 20
-1.328787922859191
 10
0.9296913743019104
 20
-1.330487370491027
 10
0.9319432973861694
 20
-1.332161426544189
 10
0.9342153072357177
 20
-1.333809733390808
 10
0.9365071058273315
 20
-1.335432171821594
 10
0.9388185143470764
 20
-1.337028503417968
 10
0.9411492943763732
 20
-1.338598489761352
 10
0.9434993267059326
 20
-1.340141892433166
 10
0.9458682537078857
 20
-1.341658473014831
 10
0.9482560157775878
 20
-1.343148112297058
 10
0.9506622552871704
 20
-1.344610571861267
 10
0.9530869126319885
 20
-1.346045613288879
 10
0.9555296301841735
 20
-1.347452878952026
 10
0.9579902291297911
 20
-1.348832368850708
 10
0.960468590259552
 20
-1.350183725357055
 10
0.9629644155502319
 20
-1.351506829261779
 10
0.965477466583252
 20
-1.352801442146301
 10
0.9680076241493225
 20
-1.354067325592041
 10
0.9705545902252197
 20
-1.355304241180419
 10
0.9731181859970092
 20
-1.356511950492858
 10
0.9756982326507568
 20
-1.357690334320068
 10
0.9782944321632385
 20
-1.358839154243469
 10
0.9809066653251647
 20
-1.359958052635192
 10
0.9835346937179565
 20
-1.361047029495239
 10
0.9861782193183898
 20
-1.36210560798645
  0
LWPOLYLINE
  5
9B
100
AcDbEntity
  8
LAYER_1
  6
ByLayer
 62
  256
100
AcDbPolyline
 90
  555
 70
    1
 43
0
 10
1.480129361152648
 20
-0.7533709406852723
 10
1.478952288627624
 20
-0.7503585815429688
 10
1.478000998497009
 20
-0.747924029827118
 10
1.476839065551757
 20
-0.7449501156806946
 10
1.475509643554687
 20
-0.7415476441383362
 10
1.474056005477905
 20
-0.737827479839325
 10
1.473039388656616
 20
-0.7352255582809449
 10
1.471999645233154
 20
-0.7325645685195923
 10
1.469902276992797
 20
-0.7271966338157654
 10
1.468870162963867
 20
-0.7245553135871888
 10
1.467866420745849
 20
-0.7219862937927246
 10
1.466903686523437
 20
-0.7195222973823548
 10
1.465564608573913
 20
-0.7160952091217041
 10
1.464390039443969
 20
-0.7130892872810364
 10
1.463423371315002
 20
-0.7106153368949891
 10
1.462391853332519
 20
-0.7079752683639527
 10
1.460179090499877
 20
-0.7062411308288575
 10
1.457992076873779
 20
-0.7049161791801453
 10
1.455110192298889
 20
-0.7031701803207397
 10
1.452535986900329
 20
-0.7016106247901917
 10
1.449641704559326
 20
-0.6998571753501892
 10
1.446457743644714
 20
-0.6979282498359681
 10
1.444189310073852
 20
-0.6965538859367371
 10
1.441814541816711
 20
-0.6951152086257935
 10
1.439342617988586
 20
-0.693617582321167
 10
1.436782360076904
 20
-0.692066490650177
 10
1.43414294719696
 20
-0.6904674768447876
 10
1.431433320045471
 20
-0.6888258457183838
 10
1.428662538528442
 20
-0.6871472001075745
 10
1.4258394241333
 20
-0.6854368448257447
 10
1.422973155975341
 20
-0.6837003827095032
 10
1.420072793960571
 20
-0.6819431185722351
 10
1.414205193519592
 20
-0.6783883571624756
 10
1.408308863639831
 20
-0.6748160719871521
 10
1.402455687522888
 20
-0.6712700128555298
 10
1.39956784248352
 20
-0.6695204377174379
 10
1.39671778678894
 20
-0.6677937507629395
 10
1.393914461135864
 20
-0.6660954356193542
 10
1.391167044639587
 20
-0.6644309163093567
 10
1.388484477996826
 20
-0.6628057360649109
 10
1.385875701904296
 20
-0.6612251996994019
 10
1.383349657058715
 20
-0.6596948504447937
 10
1.380915522575378
 20
-0.6582201719284058
 10
1.378582239151
 20
-0.6568065285682679
 10
1.376358747482299
 20
-0.655459463596344
 10
1.373249053955078
 20
-0.6535755395889283
 10
1.370437145233154
 20
-0.6518719792366028
 10
1.367953419685363
 20
-0.6503672003746033
 10
1.365204691886901
 20
-0.6487019062042237
 10
1.362774848937988
 20
-0.6472297906875611
 10
1.364141464233398
 20
-0.6444382071495057
 10
1.366386771202087
 20
-0.6428273916244507
 10
1.368672609329223
 20
-0.6412818431854248
 10
1.370998382568359
 20
-0.639801025390625
 10
1.373363256454467
 20
-0.6383841037750245
 10
1.375766634941101
 20
-0.6370304226875306
 10
1.378207802772521
 20
-0.635739266872406
 10
1.380686044692993
 20
-0.6345099806785583
 10
1.383200645446777
 20
-0.6333417892456055
 10
1.385751008987426
 20
-0.6322340369224549
 10
1.388336300849914
 20
-0.6311860084533693
 10
1.390955805778503
 20
-0.6301969885826111
 10
1.393608927726745
 20
-0.6292662620544434
 10
1.396294951438903
 20
-0.6283931732177735
 10
1.39901316165924
 20
-0.6275769472122193
 10
1.401762843132019
 20
-0.6268168687820435
 10
1.404543280601501
 20
-0.6261123418807985
 10
1.40735375881195
 20
-0.6254625916481018
 10
1.410193681716918
 20
-0.6248669028282166
 10
1.413062214851379
 20
-0.6243245601654053
 10
1.415958881378173
 20
-0.6238349080085756
 10
1.418882727622985
 20
-0.6233972311019897
 10
1.421833157539367
 20
-0.6230108141899109
 10
1.424809455871582
 20
-0.6226749420166016
 10
1.427810907363891
 20
-0.6223888993263245
 10
1.430836915969848
 20
-0.6221520304679871
 10
1.433886647224426
 20
-0.6219635605812073
 10
1.436959505081176
 20
-0.6218228340148926
 10
1.440054655075073
 20
-0.6217291951179506
 10
1.443171620368957
 20
-0.621681809425354
 10
1.446309447288513
 20
-0.6216800808906556
 10
1.449467658996582
 20
-0.6217232346534729
 10
1.452645421028137
 20
-0.6218106150627137
 10
1.455842018127441
 20
-0.6219415068626404
 10
1.459056854248046
 20
-0.6221151947975159
 10
1.462289094924926
 20
-0.6223309636116028
 10
1.465538144111633
 20
-0.6225880980491639
 10
1.468803405761718
 20
-0.6228859424591064
 10
1.472083926200866
 20
-0.6232237815856934
 10
1.475379109382629
 20
-0.6236009001731873
 10
1.478688359260559
 20
-0.6240165829658509
 10
1.482010841369628
 20
-0.6244701147079468
 10
1.485345959663391
 20
-0.6249607801437378
 10
1.488692879676818
 20
-0.6254879236221313
 10
1.492051005363464
 20
-0.6260508298873902
 10
1.495419740676879
 20
-0.6266487836837769
 10
1.498798131942749
 20
-0.6272810697555542
 10
1.502185583114624
 20
-0.6279470324516297
 10
1.505581498146057
 20
-0.6286458969116211
 10
1.508985161781311
 20
-0.6293769478797913
 10
1.512395739555358
 20
-0.6301395297050476
 10
1.515812516212463
 20
-0.6309329867362976
 10
1.519235014915466
 20
-0.6317564845085144
 10
1.52609384059906
 20
-0.6334910988807679
 10
1.532966613769531
 20
-0.6353376507759095
 10
1.53984773159027
 20
-0.6372905373573304
 10
1.54673159122467
 20
-0.6393441557884217
 10
1.55361270904541
 20
-0.6414928436279297
 10
1.560485243797302
 20
-0.6437309384346009
 10
1.567343831062316
 20
-0.6460528969764709
 10
1.574182748794555
 20
-0.6484529376029969
 10
1.580996394157409
 20
-0.6509255170822144
 10
1.587779283523559
 20
-0.6534649729728699
 10
1.594525694847106
 20
-0.6560656428337098
 10
1.601230025291442
 20
-0.658721923828125
 10
1.607886672019958
 20
-0.6614281535148621
 10
1.614490270614624
 20
-0.6641787290573121
 10
1.621034860610961
 20
-0.6669679880142212
 10
1.627515077590942
 20
-0.669790267944336
 10
1.633925318717956
 20
-0.6726399660110474
 10
1.640259861946105
 20
-0.6755113601684571
 10
1.646513223648071
 20
-0.6783989667892456
 10
1.652679681777954
 20
-0.6812970042228699
 10
1.658753871917724
 20
-0.6841999292373658
 10
1.664729952812194
 20
-0.6871020197868348
 10
1.670602321624755
 20
-0.689997673034668
 10
1.676365613937377
 20
-0.6928812861442566
 10
1.679204583168029
 20
-0.6943168044090271
 10
1.682642340660095
 20
-0.6918827891349792
 10
1.697030067443847
 20
-0.6782819628715516
 10
1.711450219154357
 20
-0.6646848917007447
 10
1.725901246070861
 20
-0.6510928273200989
 10
1.75489056110382
 20
-0.6239287257194519
 10
1.783986568450927
 20
-0.5967995524406433
 10
1.813177943229675
 20
-0.5697153210639954
 10
1.842453360557556
 20
-0.5426859259605408
 10
1.871801376342773
 20
-0.5157213211059571
 10
1.901210665702819
 20
-0.4888314008712769
 10
1.930669903755187
 20
-0.4620262384414673
 10
1.960167646408081
 20
-0.4353156089782715
 10
1.989692568778991
 20
-0.4087096452713013
 10
2.004461765289306
 20
-0.3954488039016723
 10
2.019233465194702
 20
-0.3822180032730102
 10
2.034006118774414
 20
-0.3690183162689209
 10
2.048778772354125
 20
-0.3558509349822998
 10
2.05247163772583
 20
-0.3525642156600952
 10
2.054548740386962
 20
-0.3507164716720581
 10
2.056376457214355
 20
-0.3432177305221558
 10
2.059220314025878
 20
-0.3309292793273926
 10
2.062097311019897
 20
-0.3186469078063965
 10
2.065004587173461
 20
-0.306371808052063
 10
2.070897340774536
 20
-0.2818475961685181
 10
2.076874494552612
 20
-0.2573655843734741
 10
2.082911968231201
 20
-0.2329345941543579
 10
2.088985443115234
 20
-0.2085635662078857
 10
2.095070838928222
 20
-0.1842613220214844
 10
2.101143836975097
 20
-0.1600369215011597
 10
2.10718035697937
 20
-0.1358989477157593
 10
2.110177516937255
 20
-0.1238652467727661
 10
2.11315631866455
 20
-0.1118565797805786
 10
2.116113901138305
 20
-0.0998739004135132
 10
2.119047164916992
 20
-0.0879184007644654
 10
2.121953248977661
 20
-0.07599127292633059
 10
2.124829292297363
 20
-0.06409347057342531
 10
2.127671718597412
 20
-0.0522263050079346
 10
2.130477905273437
 20
-0.0403907299041748
 10
2.121856451034545
 20
-0.0420925617218018
 10
2.113290786743164
 20
-0.0437874794006348
 10
2.104781150817871
 20
-0.0454754829406738
 10
2.096327066421508
 20
-0.0471566915512085
 10
2.087928295135498
 20
-0.0488309860229492
 10
2.079584836959838
 20
-0.0504984855651856
 10
2.071296453475952
 20
-0.0521591901779175
 10
2.063063144683837
 20
-0.0538129806518555
 10
2.054884433746337
 20
-0.0554600954055786
 10
2.046760082244873
 20
-0.0571004152297974
 10
2.038690328598022
 20
-0.0587340593338013
 10
2.030674695968627
 20
-0.0603609085083008
 10
2.02271294593811
 20
-0.0619810819625855
 10
2.014805078506469
 20
-0.0635945796966553
 10
2.006950855255126
 20
-0.0652014017105103
 10
1.999150156974792
 20
-0.06680166721344
 10
1.991402626037597
 20
-0.06839513778686521
 10
1.983708143234252
 20
-0.0699821710586548
 10
1.976066708564758
 20
-0.07156252861022951
 10
1.968477845191955
 20
-0.07313632965087891
 10
1.960941553115844
 20
-0.074703574180603
 10
1.953457713127136
 20
-0.07626438140869141
 10
1.946025967597961
 20
-0.07781863212585451
 10
1.93864619731903
 20
-0.0793663263320923
 10
1.931318283081054
 20
-0.0809077024459839
 10
1.924041986465454
 20
-0.0824425220489502
 10
1.916817188262939
 20
-0.0839709043502808
 10
1.909643530845642
 20
-0.0854928493499756
 10
1.902521133422851
 20
-0.0870084762573242
 10
1.895449519157409
 20
-0.0885177850723267
 10
1.888428688049316
 20
-0.0900206565856934
 10
1.881458401679992
 20
-0.09151721000671389
 10
1.874538421630859
 20
-0.0930074453353882
 10
1.867668747901916
 20
-0.09449136257171629
 10
1.860849022865295
 20
-0.0959689617156983
 10
1.854079008102416
 20
-0.0974403619766236
 10
1.847358703613281
 20
-0.0989055633544922
 10
1.840687870979309
 20
-0.1003645658493042
 10
1.83406639099121
 20
-0.1018173694610596
 10
1.827493906021118
 20
-0.1032638549804687
 10
1.82097041606903
 20
-0.1047043800354004
 10
1.81449556350708
 20
-0.1061385869979858
 10
1.808069348335266
 20
-0.1075668334960937
 10
1.80169141292572
 20
-0.108988881111145
 10
1.795361638069152
 20
-0.1104048490524292
 10
1.789080023765563
 20
-0.1118147373199463
 10
1.782846093177795
 20
-0.1132186651229858
 10
1.776659846305847
 20
-0.1146165132522583
 10
1.770521163940429
 20
-0.1160082817077637
 10
1.764429688453674
 20
-0.117394208908081
 10
1.758385300636291
 20
-0.1187740564346313
 10
1.752387762069702
 20
-0.1201480627059936
 10
1.746437072753906
 20
-0.1215161085128784
 10
1.740532875061035
 20
-0.1228781938552856
 10
1.734675168991088
 20
-0.1242344379425049
 10
1.728863477706909
 20
-0.1255847215652466
 10
1.723097920417785
 20
-0.1269292831420898
 10
1.717378139495849
 20
-0.1282680034637451
 10
1.711704134941101
 20
-0.1296008825302124
 10
1.706075429916381
 20
-0.1309279203414917
 10
1.700492143630981
 20
-0.1322492361068726
 10
1.694953799247741
 20
-0.133564829826355
 10
1.689460515975952
 20
-0.1348745822906494
 10
1.684011936187744
 20
-0.136178731918335
 10
1.678607940673828
 20
-0.1374771595001221
 10
1.673248291015625
 20
-0.1387698650360107
 10
1.667932868003845
 20
-0.1400569677352905
 10
1.662661433219909
 20
-0.1413383483886719
 10
1.657433867454528
 20
-0.1426142454147339
 10
1.652249932289123
 20
-0.1438844203948975
 10
1.647109508514404
 20
-0.1451491117477417
 10
1.642012357711791
 20
-0.146408200263977
 10
1.636958241462707
 20
-0.1476616859436035
 10
1.63194715976715
 20
-0.1489096879959106
 10
1.626978754997253
 20
-0.1501522064208984
 10
1.622053027153015
 20
-0.1513892412185669
 10
1.617169618606567
 20
-0.1526209115982056
 10
1.61232841014862
 20
-0.1538469791412353
 10
1.607529163360595
 20
-0.1550676822662353
 10
1.602771878242492
 20
-0.1562830209732056
 10
1.598056197166442
 20
-0.1574928760528564
 10
1.593382000923156
 20
-0.1586974859237671
 10
1.588749051094055
 20
-0.1598966121673584
 10
1.584157228469848
 20
-0.1610904932022095
 10
1.579606413841247
 20
-0.1622791290283203
 10
1.575096249580383
 20
-0.1634624004364014
 10
1.570626735687255
 20
-0.1646404266357422
 10
1.566197633743286
 20
-0.1658130884170532
 10
1.561808705329895
 20
-0.1669806241989136
 10
1.557459831237792
 20
-0.1681429147720337
 10
1.5531507730484
 20
-0.1693000793457031
 10
1.548881411552429
 20
-0.1704519987106323
 10
1.544651508331298
 20
-0.1715987920761108
 10
1.54046082496643
 20
-0.1727404594421387
 10
1.536309361457824
 20
-0.1738770008087158
 10
1.532196879386901
 20
-0.1750084161758423
 10
1.528123140335083
 20
-0.1761348247528076
 10
1.524087905883789
 20
-0.1772561073303223
 10
1.52009105682373
 20
-0.1783723831176758
 10
1.516132473945617
 20
-0.1794836521148682
 10
1.512211918830871
 20
-0.1805899143218994
 10
1.508329272270202
 20
-0.1816911697387695
 10
1.504484176635742
 20
-0.1827875375747681
 10
1.500676751136779
 20
-0.1838788986206055
 10
1.496906518936157
 20
-0.1849653720855713
 10
1.493173360824584
 20
-0.1860469579696655
 10
1.489477157592773
 20
-0.1871235370635986
 10
1.485817790031433
 20
-0.1881953477859497
 10
1.482195019721984
 20
-0.1892622709274292
 10
1.478608608245849
 20
-0.1903244256973266
 10
1.475058436393737
 20
-0.1913818120956421
 10
1.47154426574707
 20
-0.1924343109130859
 10
1.468065977096557
 20
-0.1934820413589477
 10
1.46462345123291
 20
-0.1945251226425171
 10
1.461216330528259
 20
-0.1955634355545044
 10
1.457844495773315
 20
-0.1965969800949097
 10
1.454507827758789
 20
-0.1976258754730224
 10
1.451206088066101
 20
-0.1986501216888428
 10
1.447939157485961
 20
-0.199669599533081
 10
1.444706797599792
 20
-0.2006845474243164
 10
1.441508889198303
 20
-0.2016948461532593
 10
1.438345193862915
 20
-0.2027006149291992
 10
1.435215473175048
 20
-0.2037018537521362
 10
1.432119727134704
 20
-0.2046984434127808
 10
1.429057598114013
 20
-0.2056905031204224
 10
1.426028966903686
 20
-0.206678032875061
 10
1.423033595085144
 20
-0.2076610326766968
 10
1.420071482658386
 20
-0.2086396217346191
 10
1.417142271995544
 20
-0.2096136808395386
 10
1.414245843887329
 20
-0.2105834484100342
 10
1.411381959915161
 20
-0.2115486860275268
 10
1.40855050086975
 20
-0.2125095129013061
 10
1.405751347541809
 20
-0.2134660482406616
 10
1.402984142303466
 20
-0.2144180536270142
 10
1.400248885154724
 20
-0.2153658866882324
 10
1.397545337677001
 20
-0.2163093090057373
 10
1.394873261451721
 20
-0.2172484397888184
 10
1.392232537269592
 20
-0.2181832790374756
 10
1.389622926712036
 20
-0.2191139459609985
 10
1.387044191360473
 20
-0.2200402021408081
 10
1.384496331214904
 20
-0.2209624052047729
 10
1.38197910785675
 20
-0.221880316734314
 10
1.379492282867431
 20
-0.2227940559387207
 10
1.377035617828369
 20
-0.2237036228179932
 10
1.374609112739562
 20
-0.2246090173721313
 10
1.372212409973144
 20
-0.2255102396011352
 10
1.367507934570312
 20
-0.2273005247116089
 10
1.362920761108398
 20
-0.2290744781494141
 10
1.358449459075927
 20
-0.2308322191238403
 10
1.354092597961425
 20
-0.2325741052627563
 10
1.349848747253417
 20
-0.2343001365661621
 10
1.34571635723114
 20
-0.2360104322433472
 10
1.341694116592407
 20
-0.2377053499221802
 10
1.337780356407165
 20
-0.2393847703933716
 10
1.333973884582519
 20
-0.24104905128479
 10
1.330273151397705
 20
-0.2426983118057251
 10
1.326676607131958
 20
-0.2443325519561768
 10
1.323182821273803
 20
-0.2459521293640137
 10
1.319790482521057
 20
-0.2475571632385254
 10
1.316498160362243
 20
-0.2491477727890015
 10
1.313304185867309
 20
-0.2507239580154419
 10
1.310207247734069
 20
-0.2522860765457153
 10
1.30720579624176
 20
-0.2538343667984009
 10
1.304298520088195
 20
-0.255368709564209
 10
1.301483869552612
 20
-0.2568894624710083
 10
1.298760533332824
 20
-0.2583966255187988
 10
1.296126842498779
 20
-0.2598904371261597
 10
1.29358160495758
 20
-0.2613711357116699
 10
1.291123032569885
 20
-0.2628387212753296
 10
1.288750052452087
 20
-0.2642934322357178
 10
1.286460876464843
 20
-0.2657355070114136
 10
1.284254312515258
 20
-0.2671648263931274
 10
1.282128810882568
 20
-0.2685818672180176
 10
1.278115034103393
 20
-0.2713791131973267
 10
1.275970578193664
 20
-0.2730873823165893
 10
1.273693203926086
 20
-0.2752605676651001
 10
1.271478652954101
 20
-0.2774826288223267
 10
1.268836498260498
 20
-0.2801932096481323
 10
1.266840457916259
 20
-0.2822636365890503
 10
1.264658570289611
 20
-0.2845386266708374
 10
1.262292861938476
 20
-0.2870132923126221
 10
1.259745001792907
 20
-0.2896827459335327
 10
1.257016658782958
 20
-0.2925418615341186
 10
1.254109621047973
 20
-0.2955857515335083
 10
1.251025557518005
 20
-0.2988094091415405
 10
1.247766375541687
 20
-0.3022078275680542
 10
1.244333863258361
 20
-0.3057758808135986
 10
1.242552995681762
 20
-0.3076220750808716
 10
1.240729570388793
 20
-0.3095088005065918
 10
1.238863587379455
 20
-0.311435341835022
 10
1.236955285072326
 20
-0.3134013414382935
 10
1.235005021095275
 20
-0.3154059648513794
 10
1.233012914657592
 20
-0.3174487352371216
 10
1.230979204177856
 20
-0.3195289373397827
 10
1.228904008865356
 20
-0.3216458559036255
 10
1.22678780555725
 20
-0.3237990140914917
 10
1.22463047504425
 20
-0.3259878158569336
 10
1.222432613372802
 20
-0.3282114267349243
 10
1.220194101333618
 20
-0.3304694890975952
 10
1.217915296554565
 20
-0.3327611684799194
 10
1.215596437454223
 20
-0.3350859880447388
 10
1.213237643241882
 20
-0.3374431133270264
 10
1.21083927154541
 20
-0.3398321866989136
 10
1.208401560783386
 20
-0.3422523736953735
 10
1.20592451095581
 20
-0.344703197479248
 10
1.203408598899841
 20
-0.3471839427947998
 10
1.200853824615478
 20
-0.349694013595581
 10
1.19826054573059
 20
-0.352232813835144
 10
1.195628881454467
 20
-0.3547996282577515
 10
1.192959189414978
 20
-0.3573938608169556
 10
1.190251588821411
 20
-0.3600150346755981
 10
1.187506318092346
 20
-0.3626624345779419
 10
1.184723496437072
 20
-0.3653353452682495
 10
1.181903600692749
 20
-0.3680331707000732
 10
1.179046511650085
 20
-0.3707553148269653
 10
1.17615270614624
 20
-0.373501181602478
 10
1.173222422599792
 20
-0.3762701749801636
 10
1.170255661010742
 20
-0.3790615797042847
 10
1.167252779006958
 20
-0.3818747997283935
 10
1.164214015007019
 20
-0.3847092390060425
 10
1.161139488220214
 20
-0.3875643014907837
 10
1.158029556274414
 20
-0.3904392719268799
 10
1.154884338378906
 20
-0.3933336734771728
 10
1.15170395374298
 20
-0.3962466716766357
 10
1.148488879203796
 20
-0.3991777896881103
 10
1.145239114761352
 20
-0.402126431465149
 10
1.141955018043518
 20
-0.4050917625427246
 10
1.138636708259582
 20
-0.4080734252929688
 10
1.135284543037414
 20
-0.4110705852508545
 10
1.131898522377014
 20
-0.4140827655792237
 10
1.12847900390625
 20
-0.4171093702316285
 10
1.125026226043701
 20
-0.420149564743042
 10
1.121540427207946
 20
-0.4232028722763062
 10
1.118021607398986
 20
-0.4262686967849732
 10
1.114470243453979
 20
-0.4293462038040162
 10
1.110886454582214
 20
-0.4324350357055664
 10
1.10727047920227
 20
-0.4355344772338868
 10
1.103622555732727
 20
-0.4386439323425293
 10
1.099942803382873
 20
-0.4417626261711121
 10
1.096231460571289
 20
-0.4448900818824768
 10
1.092488884925842
 20
-0.4480255842208863
 10
1.088715076446533
 20
-0.4511686563491822
 10
1.08491051197052
 20
-0.4543185234069825
 10
1.081075191497802
 20
-0.4574745893478394
 10
1.07720947265625
 20
-0.4606362581253052
 10
1.073313474655151
 20
-0.4638029336929322
 10
1.069387435913085
 20
-0.4669739007949829
 10
1.06144630908966
 20
-0.4733264446258545
 10
1.053387641906738
 20
-0.4796888828277588
 10
1.045213341712951
 20
-0.4860562086105347
 10
1.036925077438354
 20
-0.492423415184021
 10
1.028524756431579
 20
-0.4987854957580567
 10
1.026407241821289
 20
-0.5003746747970581
 10
1.023872971534729
 20
-0.5022676587104798
 10
1.021801590919494
 20
-0.5038012266159058
 10
1.017766714096069
 20
-0.5067493319511414
 10
1.013870954513549
 20
-0.5095459818840027
 10
1.010108828544616
 20
-0.5121997594833374
 10
1.006474494934082
 20
-0.5147193074226381
 10
1.002962231636047
 20
-0.5171132683753968
 10
0.9995665550231932
 20
-0.5193902850151062
 10
0.9962815642356871
 20
-0.5215590000152588
 10
0.9931017160415649
 20
-0.5236281156539917
 10
0.9900212287902832
 20
-0.5256061553955079
 10
0.9870344996452332
 20
-0.5275018215179444
 10
0.9841358661651611
 20
-0.5293237566947937
 10
0.9813195466995239
 20
-0.5310805439949036
 10
0.9785799384117126
 20
-0.5327809453010559
 10
0.9759113192558287
 20
-0.5344334840774537
 10
0.9733079671859741
 20
-0.5360468626022339
 10
0.9707643389701843
 20
-0.5376296639442444
 10
0.9682745933532714
 20
-0.5391905903816224
 10
0.9658331871032714
 20
-0.5407382249832154
 10
0.9634343385696411
 20
-0.5422812700271606
 10
0.9610723853111267
 20
-0.5438283681869507
 10
0.9587416648864746
 20
-0.5453881025314331
 10
0.9564364552497863
 20
-0.5469691157341005
 10
0.9541511535644531
 20
-0.5485800504684449
 10
0.9518799781799316
 20
-0.5502296090126038
 10
0.9506248831748962
 20
-0.5525965690612793
 10
0.9552849531173706
 20
-0.5610650777816772
 10
0.9590525031089782
 20
-0.5678651332855225
 10
0.9628536105155944
 20
-0.5746866464614869
 10
0.966686725616455
 20
-0.5815287232398987
 10
0.9705504775047302
 20
-0.588390588760376
 10
0.9744433760643005
 20
-0.5952712297439576
 10
0.9783638715744019
 20
-0.6021698117256165
 10
0.9823105931282043
 20
-0.6090854406356812
 10
0.9902767539024353
 20
-0.6229643821716309
 10
0.9983299970626831
 20
-0.6369010210037231
 10
1.006458759307861
 20
-0.650888204574585
 10
1.014651179313659
 20
-0.6649189591407776
 10
1.022895455360412
 20
-0.6789861917495728
 10
1.031180024147033
 20
-0.6930828094482422
 10
1.039492964744567
 20
-0.7072018384933472
 10
1.05615746974945
 20
-0.7354786396026612
 10
1.072795033454895
 20
-0.7637601494789124
 10
1.081074476242065
 20
-0.7778849601745605
 10
1.089311838150024
 20
-0.791989803314209
 10
1.097495555877685
 20
-0.8060675859451293
 10
1.105613827705383
 20
-0.8201112151145935
 10
1.113654971122741
 20
-0.8341136574745178
 10
1.121607184410095
 20
-0.848067820072174
 10
1.125546216964721
 20
-0.8550246357917785
 10
1.129458785057067
 20
-0.8619667291641235
 10
1.13334310054779
 20
-0.8688932061195374
 10
1.137197971343994
 20
-0.8758032321929931
 10
1.141021847724914
 20
-0.8826958537101744
 10
1.144813060760498
 20
-0.8895702958106994
 10
1.148570537567138
 20
-0.8964255452156066
 10
1.152292370796203
 20
-0.903260827064514
 10
1.154139637947082
 20
-0.9066706895828247
 10
1.156294226646423
 20
-0.9082116484642028
 10
1.158892035484313
 20
-0.9069694876670837
 10
1.161443352699279
 20
-0.9057495594024658
 10
1.163766384124755
 20
-0.9046388268470764
 10
1.16642677783966
 20
-0.9033668041229248
 10
1.16941225528717
 20
-0.9019392728805541
 10
1.17271077632904
 20
-0.9003621339797973
 10
1.175077438354492
 20
-0.8992304801940917
 10
1.177574157714843
 20
-0.8980367183685302
 10
1.180197238922119
 20
-0.8967824578285217
 10
1.182943105697631
 20
-0.8954696059226989
 10
1.185807943344116
 20
-0.8940997719764709
 10
1.188788294792175
 20
-0.8926746845245361
 10
1.191880464553833
 20
-0.8911961913108825
 10
1.195080876350402
 20
-0.8896659612655639
 10
1.198385834693908
 20
-0.888085663318634
 10
1.201791644096374
 20
-0.8864571452140808
 10
1.205294847488403
 20
-0.8847821354866027
 10
1.208891749382019
 20
-0.8830623030662536
 10
1.212578654289245
 20
-0.8812993764877319
 10
1.216351985931396
 20
-0.8794952034950256
 10
1.220208168029785
 20
-0.8776513934135437
 10
1.224143385887145
 20
-0.8757697939872741
 10
1.228154182434082
 20
-0.8738520145416259
 10
1.232236862182617
 20
-0.871899902820587
 10
1.236387848854064
 20
-0.8699151277542114
 10
1.240603446960449
 20
-0.867899477481842
 10
1.244879961013793
 20
-0.8658546209335327
 10
1.249213933944702
 20
-0.8637824058532714
 10
1.253601551055908
 20
-0.8616844415664672
 10
1.258039355278015
 20
-0.8595625162124633
 10
1.262523651123046
 20
-0.8574183583259583
 10
1.267050743103027
 20
-0.8552537560462951
 10
1.27161705493927
 20
-0.8530703783035278
 10
1.276219010353088
 20
-0.8508700132369995
 10
1.280852794647216
 20
-0.8486543297767639
 10
1.285514950752258
 20
-0.8464251160621643
 10
1.294909834861755
 20
-0.8419330716133117
 10
1.30437433719635
 20
-0.837407648563385
 10
1.313879489898681
 20
-0.8328627943992614
 10
1.332895636558532
 20
-0.8237702846527098
 10
1.342348456382751
 20
-0.8192504048347473
 10
1.351725816726684
 20
-0.8147666454315186
 10
1.356377124786376
 20
-0.8125426769256591
 10
1.360998630523681
 20
-0.8103328943252563
 10
1.365586757659912
 20
-0.8081390857696533
 10
1.370137810707092
 20
-0.8059630393981932
 10
1.374648213386535
 20
-0.8038063645362854
 10
1.379114270210266
 20
-0.8016709089279174
 10
1.383532524108886
 20
-0.7995584011077881
 10
1.387899041175842
 20
-0.797470510005951
 10
1.392210483551025
 20
-0.7954090237617493
 10
1.396463155746459
 20
-0.7933756709098816
 10
1.40065324306488
 20
-0.7913721203804017
 10
1.404777407646179
 20
-0.7894002199172974
 10
1.408831715583801
 20
-0.7874616384506226
 10
1.412812709808349
 20
-0.7855581045150757
 10
1.416716814041137
 20
-0.78369140625
 10
1.420540213584899
 20
-0.781863272190094
 10
1.424279451370239
 20
-0.7800753712654114
 10
1.427930831909179
 20
-0.7783294916152954
 10
1.431490659713745
 20
-0.7766273617744446
 10
1.434955358505249
 20
-0.7749707102775574
 10
1.438321232795715
 20
-0.7733613252639771
 10
1.441584825515747
 20
-0.7718008756637574
 10
1.444742321968078
 20
-0.7702910900115967
 10
1.447790265083312
 20
-0.7688337564468384
 10
1.450724840164184
 20
-0.7674306035041809
 10
1.453542590141296
 20
-0.766083300113678
 10
1.456239700317382
 20
-0.7647936940193177
 10
1.458812594413757
 20
-0.7635634541511536
 10
1.461257815361022
 20
-0.7623943090438843
 10
1.463571548461914
 20
-0.7612879872322083
 10
1.466787695884704
 20
-0.7597501873970032
 10
1.469687700271606
 20
-0.7583635449409485
 10
1.472259402275085
 20
-0.7571339011192322
 10
1.475156188011169
 20
-0.7557488083839417
  0
ENDSEC
  0
SECTION
  2
OBJECTS
  0
DICTIONARY
  5
C
100
AcDbDictionary
281
    1
  3
ACAD_GROUP
350
D
  0
DICTIONARY
  5
D
330
C
100
AcDbDictionary
281
    1
  0
ENDSEC
  0
EOF
